<?xml version="1.0" encoding="utf-8"?>
<!-- Generator: Adobe Illustrator 27.5.0, SVG Export Plug-In . SVG Version: 6.00 Build 0)  -->
<svg version="1.1" xmlns="http://www.w3.org/2000/svg" xmlns:xlink="http://www.w3.org/1999/xlink" x="0px" y="0px"
	 viewBox="0 0 500 500" style="enable-background:new 0 0 500 500;" xml:space="preserve">
<g id="Background_complete">
	<g>
		<g>
			<g>
				<g>
					<g>
						<path style="fill:#E0E0E0;" d="M443.92,317.486H263.174c-3.232,0-5.862-2.63-5.862-5.862V48.351
							c0-3.232,2.63-5.862,5.862-5.862H443.92c3.232,0,5.862,2.629,5.862,5.862v263.273
							C449.783,314.857,447.153,317.486,443.92,317.486z M263.174,42.739c-3.095,0-5.612,2.518-5.612,5.612v263.273
							c0,3.095,2.518,5.612,5.612,5.612H443.92c3.095,0,5.612-2.517,5.612-5.612V48.351c0-3.094-2.518-5.612-5.612-5.612H263.174z"
							/>
					</g>
				</g>
				<g>
					<g>
						<path style="fill:#E0E0E0;" d="M235.493,317.486H54.746c-3.232,0-5.862-2.63-5.862-5.862V48.351
							c0-3.232,2.629-5.862,5.862-5.862h180.747c3.232,0,5.862,2.629,5.862,5.862v263.273
							C241.355,314.857,238.725,317.486,235.493,317.486z M54.746,42.739c-3.094,0-5.612,2.518-5.612,5.612v263.273
							c0,3.095,2.518,5.612,5.612,5.612h180.747c3.095,0,5.612-2.517,5.612-5.612V48.351c0-3.094-2.518-5.612-5.612-5.612H54.746z"
							/>
					</g>
				</g>
			</g>
			<g>
				<g>
					<rect x="0" y="394.773" style="fill:#E0E0E0;" width="500" height="0.25"/>
				</g>
			</g>
		</g>
		<rect x="51.672" y="409.037" style="fill:#E0E0E0;" width="16.06" height="0.25"/>
		<rect x="170.352" y="406.327" style="fill:#E0E0E0;" width="53.53" height="0.25"/>
		<rect x="68.732" y="418.327" style="fill:#E0E0E0;" width="36.25" height="0.25"/>
		<rect x="378.352" y="406.197" style="fill:#E0E0E0;" width="43.19" height="0.25"/>
		<rect x="430.452" y="406.197" style="fill:#E0E0E0;" width="6.33" height="0.25"/>
		<rect x="316.212" y="412.427" style="fill:#E0E0E0;" width="53.89" height="0.25"/>
	</g>
	<g>
		<g>
			<rect x="53.891" y="315.631" style="fill:#EBEBEB;" width="64.696" height="20.943"/>
		</g>
		<g>
			<rect x="406.153" y="232.807" style="fill:#EBEBEB;" width="64.696" height="20.943"/>
		</g>
		<g>
			<rect x="254.523" y="27.292" style="fill:#EBEBEB;" width="64.696" height="20.943"/>
		</g>
		<g>
			<rect x="234.449" y="48.244" style="fill:#F5F5F5;" width="64.696" height="20.943"/>
		</g>
		<g>
			<rect x="31.327" y="336.509" style="fill:#F5F5F5;" width="64.696" height="20.943"/>
		</g>
		<g>
			<rect x="35.166" y="164.564" style="fill:#F5F5F5;" width="64.696" height="20.943"/>
		</g>
	</g>
	<g>
		<rect x="66.373" y="76.151" style="fill:#E0E0E0;" width="114.161" height="181.405"/>
		<rect x="74.957" y="84.61" style="opacity:0.6;fill:#FFFFFF;enable-background:new    ;" width="96.993" height="164.486"/>
		<rect x="81.369" y="90.538" style="fill:#FFFFFF;" width="84.169" height="152.631"/>
		<rect x="100.712" y="110.557" style="fill:#E6E6E6;" width="46.614" height="110.84"/>
		<path style="opacity:0.6;fill:#FFFFFF;enable-background:new    ;" d="M86.293,93.87c0,0-1.504,110.718,0.752,110.342
			c2.256-0.376,60.037-109.019,60.281-110.147L86.293,93.87z"/>
	</g>
	<g>
		<rect x="345.141" y="71.007" style="fill:#E6E6E6;" width="77.649" height="146.386"/>
		<rect x="327.769" y="71.007" style="fill:#F0F0F0;" width="91.211" height="146.386"/>
		<rect x="341.632" y="84.009" style="fill:#FFFFFF;" width="63.441" height="120.381"/>
		<rect x="361.129" y="109.354" style="fill:#F0F0F0;" width="25.312" height="70.345"/>
	</g>
	<g>
		<path style="fill:#E0E0E0;" d="M422.771,362.159c-5.983-8.647-5.446-18.408,1.475-26.802
			c11.873-13.181,15.338-16.433,7.374-19.157c-7.964-2.724-10.988,10.633-10.988,10.633c-3.774-6.032-4.162-12.631-1.106-18.806
			c5.236-9.622,8.555-25.308,1.328-26.978c-7.227-1.67-1.328,19.552-7.374,26.802c-3.175-5.093-5.232-10.41-6.121-15.818
			c-0.811-7.733,0.516-20.036-5.162-23.199c-5.678-3.163-9.291-1.01-3.76,16.037c3.349,10.136,5.2,20.428,5.531,30.756
			c0,0-12.315-22.364-20.575-23.023c-8.259-0.659-8.259,6.591-1.18,12.874c7.079,6.283,20.722,17.575,23.008,23.331
			c0,0-13.568-16.828-25.662-11.643c-12.094,5.185,10.546,15.29,20.648,18.981c10.103,3.691,17.182,26.714,17.182,26.714
			L422.771,362.159z"/>
		<path style="fill:#EBEBEB;" d="M411.006,356.835c4.783-6.271,5.259-13.932,1.307-21.046c-6.933-11.331-8.972-14.064-3.602-15.575
			c5.37-1.511,6.546,9.192,6.546,9.192c3.06-4.426,3.891-9.558,2.371-14.641c-2.746-7.942-3.641-20.456,1.374-21.176
			c5.015-0.72-0.737,15.371,2.843,21.539c2.594-3.725,4.449-7.716,5.52-11.872c1.217-5.975,1.389-15.706,5.504-17.725
			c4.114-2.019,6.402-0.056,1.155,12.86c-3.128,7.647-5.269,15.532-6.399,23.567c0,0,10.27-16.492,15.939-16.363
			c5.668,0.129,5.044,5.832-0.329,10.164c-5.373,4.332-15.53,11.956-17.322,16.465c0,0,10.574-12.099,18.364-7.103
			c7.79,4.996-8.474,11.147-15.638,13.197c-7.163,2.049-13.957,19.54-13.957,19.54L411.006,356.835z"/>
		<polygon style="fill:#E0E0E0;" points="445.991,343.815 388.846,343.815 401.043,394.898 436.807,394.898 		"/>
	</g>
</g>
<g id="Background_simple" style="display:none;">
	<g style="display:inline;">
		<path style="fill:#407BFF;" d="M333.816,47.566c-5.357,5.902-9.193,13.704-10.941,23.251c-2.06,11.253-1.758,26.573,9.366,39.855
			c20.536,24.521,38.348,13.987,46.208,34.22c8.903,22.918,26.645,45.206,48.604,40.683c41.708-8.591,35.866-108.319-1.21-141.793
			C402.761,22.943,362.258,16.226,333.816,47.566z"/>
		<path style="opacity:0.9;fill:#FFFFFF;" d="M333.816,47.566c-5.357,5.902-9.193,13.704-10.941,23.251
			c-2.06,11.253-1.758,26.573,9.366,39.855c20.536,24.521,38.348,13.987,46.208,34.22c8.903,22.918,26.645,45.206,48.604,40.683
			c41.708-8.591,35.866-108.319-1.21-141.793C402.761,22.943,362.258,16.226,333.816,47.566z"/>
	</g>
	<g style="display:inline;">
		<path style="fill:#407BFF;" d="M71.125,163.801c5.571,2.73,12.234,3.914,19.752,3.158c8.86-0.891,20.252-4.426,27.781-15.615
			c13.901-20.656,2.175-31.7,15.608-41.949c15.215-11.61,28.05-29.693,19.923-45.137c-15.435-29.334-88.753-3.42-105.776,31.539
			C37.816,117.561,41.543,149.302,71.125,163.801z"/>
		<path style="opacity:0.9;fill:#FFFFFF;" d="M71.125,163.801c5.571,2.73,12.234,3.914,19.752,3.158
			c8.86-0.891,20.252-4.426,27.781-15.615c13.901-20.656,2.175-31.7,15.608-41.949c15.215-11.61,28.05-29.693,19.923-45.137
			c-15.435-29.334-88.753-3.42-105.776,31.539C37.816,117.561,41.543,149.302,71.125,163.801z"/>
	</g>
</g>
<g id="Shadow">
	<g>
		<g>
			<path style="fill:#F5F5F5;" d="M460.589,455.151c0,3.387-93.517,6.132-208.875,6.132s-208.875-2.745-208.875-6.132
				c0-3.387,93.516-6.132,208.875-6.132S460.589,451.764,460.589,455.151z"/>
		</g>
	</g>
</g>
<g id="Fire">
	<g>
		<g>
			<g>
				<path style="fill:#407BFF;" d="M380.165,200.452c-2.554-8.513-8.58-16.295-16.919-19.369c1.82,8.061,2.324,18.895-5.303,22.077
					c-7.623,3.18-15.253-5.181-17.445-13.144c-3.044-11.057-1.367-22.781-1.61-34.247c-0.243-11.466-3.143-24.034-12.455-30.728
					c-8.001-5.752-18.628-5.717-28.122-8.358c-19.223-5.349-33.208-21.468-45.993-36.787c0.828,7.256-0.863,14.775-4.718,20.977
					c-4.088-14.909-14.867-27.845-28.794-34.555c-13.927-6.71-30.762-7.078-44.968-0.984c6.724,10.78,13.563,21.837,16.252,34.253
					s0.456,26.675-8.832,35.342c-6.614,6.172-16.456,9.397-20.233,17.618c-3.995,8.696,0.503,19.815-4.367,28.053
					c-4.001,6.769-13.205,8.921-20.848,7.072c-7.643-1.848-14.098-6.807-20.3-11.641c-7.441,10.137-4.017,24.634,2.208,35.56
					c6.226,10.925,15.004,20.679,18.302,32.813c3.429,12.617,0.443,25.971,0.365,39.045c-0.078,13.074,4.281,28.023,16.293,33.186
					l208.256,0.374c-3.257-37.729,11.841-53.073,19.453-90.169C382.172,218.135,382.718,208.965,380.165,200.452z"/>
			</g>
			<g style="opacity:0.6;enable-background:new    ;">
				<path style="fill:#FFFFFF;" d="M380.165,200.452c-2.554-8.513-8.58-16.295-16.919-19.369c1.82,8.061,2.324,18.895-5.303,22.077
					c-7.623,3.18-15.253-5.181-17.445-13.144c-3.044-11.057-1.367-22.781-1.61-34.247c-0.243-11.466-3.143-24.034-12.455-30.728
					c-8.001-5.752-18.628-5.717-28.122-8.358c-19.223-5.349-33.208-21.468-45.993-36.787c0.828,7.256-0.863,14.775-4.718,20.977
					c-4.088-14.909-14.867-27.845-28.794-34.555c-13.927-6.71-30.762-7.078-44.968-0.984c6.724,10.78,13.563,21.837,16.252,34.253
					s0.456,26.675-8.832,35.342c-6.614,6.172-16.456,9.397-20.233,17.618c-3.995,8.696,0.503,19.815-4.367,28.053
					c-4.001,6.769-13.205,8.921-20.848,7.072c-7.643-1.848-14.098-6.807-20.3-11.641c-7.441,10.137-4.017,24.634,2.208,35.56
					c6.226,10.925,15.004,20.679,18.302,32.813c3.429,12.617,0.443,25.971,0.365,39.045c-0.078,13.074,4.281,28.023,16.293,33.186
					l208.256,0.374c-3.257-37.729,11.841-53.073,19.453-90.169C382.172,218.135,382.718,208.965,380.165,200.452z"/>
			</g>
			<g style="opacity:0.6;enable-background:new    ;">
				<path style="fill:#FFFFFF;" d="M158.134,299.744c-2.613-2.634-4.476-9.168-4.434-16.188c0.021-3.486,0.298-7.187,0.592-11.106
					c0.739-9.861,1.575-21.037-1.563-32.585c-2.983-10.971-8.89-19.82-14.103-27.627c-1.678-2.515-3.284-4.92-4.714-7.269
					c3.462,0.635,6.998,0.811,10.542,0.523c11.756-0.959,21.636-6.819,27.109-16.077c4.984-8.433,4.945-17.121,4.917-23.464
					c-0.009-2.038-0.021-5.086,0.28-6.153c0.758-1.034,3.915-3.107,6.02-4.49c3.199-2.103,6.827-4.484,10.29-7.717
					c12.895-12.032,18.238-31.83,13.941-51.666c-1.319-6.093-3.361-11.781-5.783-17.13c3.511,0.557,6.902,1.605,10.06,3.126
					c9.351,4.505,16.865,13.522,19.609,23.533l10.48,38.229l18.619-29.953c9.303,8.444,20.356,15.932,33.671,19.637
					c3.75,1.044,7.458,1.72,10.73,2.317c4.942,0.902,9.611,1.755,11.924,3.418c3.11,2.235,5.073,8.604,5.251,17.037
					c0.061,2.894-0.021,5.931-0.107,9.146c-0.24,8.896-0.513,18.98,2.336,29.329c3.804,13.82,16.609,27.796,32.85,26.471
					c2.551-0.208,5.059-0.794,7.465-1.742c-0.18,1.295-0.411,2.635-0.696,4.021c-2.676,13.039-8.694,25.971-15.065,39.663
					c-7.723,16.598-1.419,16.405-4.072,35.089L158.134,299.744z"/>
			</g>
		</g>
		<g>
			<g>
				<path style="fill:#407BFF;" d="M355.394,154.296c-1.711,0.359-3.513,1.854-3.045,3.538c0.221,0.797,0.892,1.374,1.51,1.924
					c4.515,4.028,7.865,9.348,9.547,15.16l0.729-0.32c1.976-4.142,3.108-8.959,1.708-13.33
					C364.441,156.898,359.885,153.353,355.394,154.296z"/>
			</g>
			<g style="opacity:0.6;enable-background:new    ;">
				<path style="fill:#FFFFFF;" d="M355.394,154.296c-1.711,0.359-3.513,1.854-3.045,3.538c0.221,0.797,0.892,1.374,1.51,1.924
					c4.515,4.028,7.865,9.348,9.547,15.16l0.729-0.32c1.976-4.142,3.108-8.959,1.708-13.33
					C364.441,156.898,359.885,153.353,355.394,154.296z"/>
			</g>
		</g>
		<g>
			<g>
				<path style="fill:#407BFF;" d="M153.139,129.205c-2.845-1.982-6.726-1.605-8.677,2.311c-1.184,3.184-0.628,6.473,0.454,9.694
					c1.082,3.221,4.542,5.823,7.82,4.927c3.219-0.88,4.87-4.607,4.825-7.943C157.514,134.725,155.984,131.188,153.139,129.205z"/>
			</g>
			<g style="opacity:0.6;enable-background:new    ;">
				<path style="fill:#FFFFFF;" d="M153.139,129.205c-2.845-1.982-6.726-1.605-8.677,2.311c-1.184,3.184-0.628,6.473,0.454,9.694
					c1.082,3.221,4.542,5.823,7.82,4.927c3.219-0.88,4.87-4.607,4.825-7.943C157.514,134.725,155.984,131.188,153.139,129.205z"/>
			</g>
		</g>
	</g>
</g>
<g id="Bolts">
	<g>
		<g>
			<polygon style="fill:#407BFF;" points="369.987,56.033 333.976,87.604 346.62,88.599 331.867,109.896 361.661,81.995 
				350.551,81.84 			"/>
		</g>
		<g>
			<polygon style="fill:#407BFF;" points="386.87,111.037 361.226,112.893 366.318,117.414 353.103,121.755 374.897,119.457 
				370.19,115.793 			"/>
		</g>
		<g>
			<polygon style="fill:#407BFF;" points="308.406,65.73 308.357,91.442 313.242,86.699 316.592,100.199 315.916,78.295 
				311.913,82.717 			"/>
		</g>
	</g>
	<g>
		<g>
			<polygon style="fill:#407BFF;" points="90.773,103.3 110.266,132.025 112.373,123.188 126.555,135.821 109.109,111.871 
				107.79,119.71 			"/>
		</g>
		<g>
			<polygon style="fill:#407BFF;" points="74.868,144.113 96.542,152.579 94.171,147.104 106.678,148.84 87.974,142.205 
				90.368,146.866 			"/>
		</g>
	</g>
</g>
<g id="Character">
	<g>
		<g>
			<path style="fill:#FDBBB5;" d="M342.829,403.853c0,0-23.454,22.133-30.722,18.829c0,0-0.661-0.33-1.982-3.964
				c-1.321-3.634-1.652,0.667-3.964-5.283c-2.312-5.949-2.312-8.592-3.303-14.207c-0.991-5.616-1.321-8.589,1.321-8.919
				c2.643-0.33-1.982-7.598,3.964-7.267c5.946,0.33,25.766,1.982,27.418,2.973C337.213,387.006,342.829,403.853,342.829,403.853z"/>
			<path style="fill:#407BFF;" d="M327.07,460.847c0-0.442-21.176-54.268-22.574-66.233c-2.196-18.788,13.172-71.889,10.979-78.515
				c-2.193-6.627-19.461-65.265-22.416-64.41c-7.091,2.051-43.41,2.149-69.076,4.34c-7.838,0.669-26.392-3.687-32.557-0.897
				c-1.966,0.889-8.522,69.6-8.522,69.6c-0.286,4.441,8.422,40.887,11.493,61.247c3.139,20.81-6.774,52.999-15.423,74.869H327.07z"
				/>
			<path style="fill:#FDBBB5;" d="M154.909,403.346c0,0,26.467,25.481,33.734,22.178c0,0,0.661-0.33,1.982-3.964
				c1.321-3.634,1.652,0.667,3.964-5.283c2.312-5.949,2.312-8.592,3.303-14.207c0.991-5.616,1.321-8.589-1.321-8.919
				c-2.643-0.33,1.982-7.598-3.964-7.267c-5.946,0.33-24.705,0.523-26.357,1.515C164.598,388.388,154.909,403.346,154.909,403.346z"
				/>
			<path style="fill:#407BFF;" d="M196.497,254.348c-3.282,0-7.065-0.046-14.642,3.972c-10.831,5.743-114.066,79.709-102.031,97.944
				c12.035,18.234,58.942,45.482,73.165,51.682l17.69-22.073c0,0-32.337-23.496-32.25-24.524c0.459-5.371,0.775-6.125-3.542-5.317
				c-2.483,0.465-2.483,0.465-2.483,0.465s0.265-3.342-1.956-4.476c-3.498-1.787,52.456-27.288,52.456-27.288L196.497,254.348z"/>
			<path style="fill:#407BFF;" d="M291.866,251.708c3.282,0,6.862-1.948,17.209,4.625c9.68,6.15,103.074,81.136,93.613,104.54
				c-8.188,20.256-46.199,38.792-60.422,44.992l-6.894-24.019c0,0,19.483-16.404,19.395-17.432c-0.459-5.371-0.865-4.783,0-4.659
				c2.5,0.361,2.483,0.465,2.483,0.465s-4.638-3.957,2.718-6.237c3.752-1.163-51.301-30.31-51.301-30.31L291.866,251.708z"/>
			<path style="opacity:0.3;enable-background:new    ;" d="M182.904,324.731c0,0-4.071-22.926-4.362-21.614
				c-0.29,1.313-3.157,25.082-3.157,25.082L182.904,324.731z"/>
			<path style="opacity:0.3;enable-background:new    ;" d="M314.791,327.006c0,0,1.056-12.482-4.884-24.659
				c0,0,13.721,14.239,9.385,27.018L314.791,327.006z"/>
		</g>
		<g>
			<g>
				<g>
					<path style="fill:#263238;" d="M329.866,201.982c-1.097-2.787-4.924-2.977-7.919-3.541
						c-6.925-1.303-12.294-6.971-15.168-13.278c-2.875-6.307-3.705-13.288-4.797-20.112c-1.091-6.824-2.556-13.805-6.465-19.553
						c-3.909-5.749-10.818-10.036-17.795-9.033l-26.009,96.974c5.512,5.273,14.751,6.304,21.333,2.382
						c7.289,1.406,15.301-2.524,18.518-9.083c7.565,0.324,15.216-2.592,20.567-7.84c1.662-1.63,3.112-4.356,1.519-6.051
						c5.083,0.419,10.315-1.409,13.98-4.883C329.284,206.397,330.694,204.084,329.866,201.982z"/>
				</g>
				<g style="opacity:0.3;">
					<path style="fill:#407BFF;" d="M327.631,207.964c1.653-1.567,3.063-3.88,2.236-5.982c-1.097-2.787-4.923-2.977-7.919-3.541
						c-2.275-0.428-4.379-1.334-6.285-2.573c0.628,1.419,0.809,3.01,0.185,4.412c-1.043,2.343-4.053,3.528-6.811,3.427
						c-2.757-0.102-5.332-1.219-7.819-2.316c3.693,2.196,4.916,7.015,3.285,10.765c-1.632,3.75-5.639,6.36-9.932,7.249
						c-4.293,0.889-8.824,0.235-12.973-1.112c2.025,3.688,0.891,8.601-2.59,11.22c-3.481,2.619-8.955,2.678-12.502,0.135
						c-1.505,2.771-5.079,4.178-8.454,4.211c-2.108,0.021-4.168-0.397-6.189-0.977l-0.149,0.556
						c5.512,5.273,14.751,6.304,21.333,2.382c7.289,1.406,15.301-2.524,18.518-9.083c7.564,0.324,15.216-2.592,20.567-7.84
						c1.662-1.63,3.112-4.356,1.519-6.051C318.733,213.265,323.965,211.438,327.631,207.964z"/>
				</g>
			</g>
			<g>
				<path style="fill:#FDBBB5;" d="M224.561,198.824c2.679,16.721,4.228,43.773-3.471,57.413c0,0,9.739,21.793,41.48,39.226
					c17.941-24.841,8.586-41.443,8.586-41.443c-12.575-4.155-10.555-12.871-9.482-25.018L224.561,198.824z"/>
				<path style="opacity:0.2;enable-background:new    ;" d="M261.673,232.88l-31.528-18.102c-0.568,3.541,0.154,7.169,2.036,10.223
					c5.613,9.981,17.461,17.002,28.597,21.288C260.891,241.677,261.181,237.683,261.673,232.88z"/>
				<path style="fill:#FDBBB5;" d="M214.329,174.281c2.456,26.946,2.888,38.407,16.702,51.84
					c20.749,20.226,52.672,11.321,58.149-15.851c4.968-24.445,0.133-64.402-26.1-74.211
					C236.846,126.25,211.745,147.356,214.329,174.281z"/>
				<path style="fill:#263238;" d="M247.106,182.38c-0.371,2.865,0.755,5.469,2.514,5.818c1.759,0.349,3.485-1.69,3.855-4.553
					c0.371-2.864-0.755-5.469-2.514-5.818C249.203,177.477,247.477,179.515,247.106,182.38z"/>
				<path style="fill:#263238;" d="M273.659,183.657c-0.354,2.776,0.782,5.31,2.535,5.657c1.754,0.348,3.462-1.62,3.816-4.397
					c0.353-2.776-0.782-5.309-2.536-5.657C275.72,178.911,274.012,180.88,273.659,183.657z"/>
				<path style="fill:#263238;" d="M248.581,171.908c0.224,0.269,0.548,0.439,0.915,0.446c5.724,0.097,8.194,4.355,8.223,4.404
					c0.365,0.632,1.152,0.837,1.762,0.431c0.609-0.406,0.807-1.256,0.443-1.902c-0.128-0.224-3.224-5.572-10.328-5.691
					c-0.708-0.012-1.305,0.596-1.333,1.358C248.249,171.32,248.37,171.656,248.581,171.908z"/>
				<path style="fill:#263238;" d="M283.481,172.742c0.193-0.216,0.291-0.507,0.248-0.826c-0.09-0.66-0.741-1.192-1.453-1.188
					c-7.149,0.034-9.849,4.632-9.96,4.83c-0.315,0.555-0.048,1.293,0.599,1.65c0.645,0.357,1.423,0.197,1.741-0.354
					c0.103-0.182,2.257-3.712,7.942-3.738C282.965,173.114,283.277,172.97,283.481,172.742z"/>
				<path style="fill:#FF807B;" d="M265.91,180.322c0,0,2.422,10.793,6.052,17.896c0.635,1.242-0.161,2.749-1.533,2.995
					c-3.532,0.634-7.216-1.157-7.216-1.157L265.91,180.322z"/>
				<path style="fill:#263238;" d="M250.538,177.764l6.42-0.365C256.958,177.399,252.775,181.398,250.538,177.764z"/>
				<path style="fill:#263238;" d="M276.864,179.211l6.42-0.365C283.284,178.846,279.102,182.845,276.864,179.211z"/>
				<path style="opacity:0.4;fill:#FF807B;" d="M239.171,162.665c0,0,23.5,3.489,24.894,7.147c1.394,3.658,6.12,1.59,6.586-0.678
					c0.467-2.268,14.5-4.445,13.754-5.483c-0.746-1.038-0.759-7.079-5.465-4.352c-4.707,2.727-4.18,6.367-13.867,5.159
					c-9.687-1.208-22.801-11.165-27.345-7.903C233.183,159.816,237.261,161.62,239.171,162.665z"/>
				<g>
					<path style="fill:#263238;" d="M266,125.055c-58.189-14.483-71.257,35.04-71.257,35.04c-2.023,9.656-4.089,19.441-8.426,28.209
						c-4.336,8.768-11.287,16.548-20.245,19.468c-3.77,1.229-8.128,1.785-10.617,5.014c-2.915,3.782-1.628,9.878,1.864,13.07
						s8.484,3.936,13.078,3.405c4.594-0.531,8.997-2.176,13.511-3.221c-3.16,2.334-3.491,7.586-1.243,10.893
						s6.387,4.747,10.236,4.47c3.849-0.277,7.463-2.028,10.811-4.05s6.546-4.352,10.088-5.964c-2.492,2.445-1.289,7.404,1.784,8.948
						c3.073,1.544,6.966,0.08,9.118-2.702c2.152-2.781,2.819-6.554,2.718-10.142l-7.118-28.669
						c13.564-0.596,49.133-56.46,49.133-56.46s0.87-6.411,0,1.766l11.446-2.473C287.471,128.941,266,125.055,266,125.055z"/>
				</g>
				<path style="fill:#FDBBB5;" d="M206.677,194.495c2.197,6.067,6.738,10.437,11.253,12.458c6.791,3.04,12.483-7.737,11.318-15.287
					c-1.05-6.796-7.283-12.274-14.446-12.1C207.744,179.737,204.165,187.557,206.677,194.495z"/>
				<path style="opacity:0.2;" d="M223.166,195.789c-0.009,0-0.019,0-0.027-0.001c-0.138-0.015-0.237-0.138-0.222-0.275
					c0.274-2.522-0.477-5.103-2.063-7.083c-1.585-1.979-3.94-3.276-6.46-3.558c-0.137-0.016-0.236-0.139-0.221-0.276
					c0.015-0.137,0.14-0.236,0.276-0.221c2.65,0.297,5.128,1.661,6.795,3.743c1.667,2.081,2.458,4.797,2.169,7.449
					C223.4,195.694,223.292,195.789,223.166,195.789z"/>
				<path style="fill:#263238;" d="M269.198,138.574c-0.291,10.37-4.081,20.337-10.755,28.279c0,0,18.957-9.986,25.335-22.571
					L269.198,138.574z"/>
				<g style="opacity:0.4;">
					<path style="fill:#FF807B;" d="M259.576,193.64c0.35-2.304-1.939-4.093-4.153-3.37c-4.532,1.481-9.898,1.114-14.205-0.751
						c-0.978-0.424-1.931-0.934-2.972-1.167c-1.04-0.233-2.219-0.145-3.042,0.532c-0.995,0.817-1.218,2.323-0.793,3.539
						c0.424,1.215,1.377,2.176,2.412,2.942c3.787,2.806,8.734,3.434,13.444,3.608c1.612,0.059,3.25,0.073,4.806-0.353
						c1.555-0.426,3.039-1.35,3.806-2.768C259.189,195.278,259.448,194.484,259.576,193.64z"/>
				</g>
				<g style="opacity:0.4;">
					<path style="fill:#FF807B;" d="M288.217,191.56c-0.284-0.905-1.006-1.715-1.986-2.102c-0.874-0.345-1.874-0.34-2.829-0.264
						c-3.378,0.27-8.433,1.038-9.215,3.553c-0.257,1.586,0.757,3.203,2.273,4.106c1.516,0.903,3.447,1.159,5.271,0.984
						c2.571-0.247,5.172-1.459,6.205-3.528C288.366,193.449,288.501,192.464,288.217,191.56z"/>
				</g>
				<g>
					<g>
						<path style="fill:#263238;" d="M192.788,168.674c-4.73,10.15-22.471,21.983-34.429,22.129
							c-1.55,0.019-3.136-0.064-4.612,0.371c-1.477,0.436-2.852,1.548-2.969,2.975c-0.142,1.724,1.504,3.098,3.1,4.001
							c7.019,3.976,16.19,4.499,23.69,1.352c-0.343,1.363-1.899,2.082-3.147,2.876c-1.248,0.794-2.395,2.323-1.562,3.491
							c0.434,0.608,1.255,0.856,2.021,1.032c7.658,1.76,16.106,0.35,22.617-3.776c0.419,1.381-0.96,2.606-2.101,3.58
							c-1.141,0.974-2.218,2.6-1.248,3.72c0.494,0.571,1.346,0.741,2.132,0.824c5.389,0.57,11.021-1.362,14.706-5.042
							L192.788,168.674z"/>
					</g>
					<g>
						<path style="fill:#263238;" d="M192.788,168.674c-4.73,10.15-22.471,21.983-34.429,22.129
							c-1.55,0.019-3.136-0.064-4.612,0.371c-1.477,0.436-2.852,1.548-2.969,2.975c-0.142,1.724,1.504,3.098,3.1,4.001
							c7.019,3.976,16.19,4.499,23.69,1.352c-0.343,1.363-1.899,2.082-3.147,2.876c-1.248,0.794-2.395,2.323-1.562,3.491
							c0.434,0.608,1.255,0.856,2.021,1.032c7.658,1.76,16.106,0.35,22.617-3.776c0.419,1.381-0.96,2.606-2.101,3.58
							c-1.141,0.974-2.218,2.6-1.248,3.72c0.494,0.571,1.346,0.741,2.132,0.824c5.389,0.57,11.021-1.362,14.706-5.042
							L192.788,168.674z"/>
					</g>
					<g style="opacity:0.3;">
						<path style="fill:#407BFF;" d="M195.395,206.705c-1.141,0.974-2.218,2.6-1.248,3.72c0.494,0.571,1.346,0.741,2.132,0.824
							c2.931,0.31,5.923-0.142,8.646-1.191c-0.778,0.042-1.54-0.041-2.227-0.347c-2.072-0.924-2.344-3.332-1.642-5.183
							c0.702-1.851,2.095-3.522,2.471-5.435c-5.017,1.543-10.182,2.76-15.43,3.635c-0.762,0.127-1.555,0.247-2.309,0.092
							c-0.754-0.154-1.458-0.662-1.486-1.299c-0.025-0.568,0.461-1.055,0.92-1.481c1.611-1.497,3.222-2.995,4.833-4.492
							c-9.512,1.65-19.504,1.385-28.86-0.765c-1.731-0.397-3.558-0.927-4.606-2.125c-0.45-0.515-0.641-1.184-0.597-1.823
							c-0.763,0.037-1.518,0.124-2.245,0.339c-1.477,0.436-2.852,1.548-2.969,2.975c-0.142,1.724,1.504,3.098,3.1,4.001
							c7.019,3.976,16.19,4.499,23.69,1.352c-0.343,1.363-1.899,2.082-3.147,2.876c-1.248,0.794-2.395,2.323-1.562,3.491
							c0.434,0.608,1.255,0.856,2.021,1.032c7.658,1.76,16.106,0.35,22.617-3.776C197.915,204.506,196.535,205.731,195.395,206.705z
							"/>
					</g>
				</g>
			</g>
			<g style="opacity:0.3;">
				<path style="fill:#407BFF;" d="M223.842,221.971c-0.345,3.273-3.779,5.68-6.624,4.642c-2.844-1.038-4.289-5.224-2.786-8.075
					c-4.696,6.324-11.798,10.415-19.2,11.063c-1.108,0.097-2.291,0.102-3.245-0.527c-1.755-1.156-1.943-4.044-0.943-6.006
					c1-1.962,2.824-3.214,4.572-4.382c-7.327,2.982-15.359,3.845-23.073,2.477c-3.26-0.578-6.578-1.612-9.094-3.964
					c-2.015-1.883-3.363-4.781-3.277-7.623c-1.827,0.692-3.496,1.629-4.715,3.21c-2.915,3.782-1.628,9.878,1.864,13.07
					s8.484,3.936,13.078,3.405c4.594-0.531,8.997-2.176,13.511-3.221c-3.16,2.334-3.491,7.586-1.243,10.893s6.387,4.747,10.236,4.47
					c3.849-0.277,7.463-2.028,10.811-4.05s6.546-4.352,10.088-5.964c-2.492,2.445-1.289,7.404,1.784,8.948
					c3.073,1.544,6.966,0.08,9.118-2.702c0.885-1.144,1.507-2.46,1.94-3.857C225.367,228.187,223.842,221.971,223.842,221.971z"/>
			</g>
			<g>
				<g>
					<g>
						<path style="fill:#FFFFFF;" d="M267.48,205.432c-1.59-0.94-4.614-1.785-6.507-1.612c-3.373-0.184-6.836,0.743-9.05,3.616
							c-0.721,0.936-1.388,2.997-1.576,4.202c-0.188,1.205,0.105,2.547,0.946,3.356c1.183,1.138,3.01,0.921,4.493,0.334
							c1.483-0.586,2.919-1.483,4.497-1.505c2.753-0.039,5.302,2.598,7.966,1.839c1.823-0.52,3.034-2.67,2.906-4.72
							C271.026,208.891,269.136,206.411,267.48,205.432z"/>
					</g>
					<g>
						<path style="fill:#263238;" d="M252.449,215.652c-0.644-2.194,1.012-4.833,1.012-4.833c-1.263-0.149-1.735-2.699-1.782-2.972
							c-0.621,1.035-1.166,2.727-1.333,3.792c-0.188,1.205,0.105,2.547,0.946,3.356
							C251.631,215.321,252.027,215.525,252.449,215.652z"/>
						<path style="fill:#263238;" d="M267.69,210.601c0,0,2.483,2.279,2.103,4.088c0.912-0.943,1.446-2.362,1.36-3.747
							c-0.077-1.246-0.501-2.379-1.432-3.508C269.715,207.452,269.271,209.644,267.69,210.601z"/>
					</g>
				</g>
				<path style="fill:#E0E0E0;" d="M253.919,210.699c4.433-1.354,9.136-1.442,13.615-0.245c0.28,0.075,0.4-0.359,0.12-0.434
					c-4.552-1.216-9.348-1.131-13.854,0.245C253.523,210.35,253.641,210.784,253.919,210.699L253.919,210.699z"/>
			</g>
			<path style="opacity:0.2;enable-background:new    ;" d="M260.009,180.87c-0.14,0-0.274-0.079-0.339-0.214
				c-0.089-0.187-0.01-0.411,0.178-0.5c1.592-0.758,2.788-2.304,3.123-4.035c0.04-0.203,0.233-0.337,0.439-0.297
				c0.203,0.04,0.336,0.236,0.297,0.439c-0.379,1.96-1.734,3.711-3.537,4.569C260.118,180.858,260.064,180.87,260.009,180.87z"/>
			<path style="opacity:0.2;enable-background:new    ;" d="M258.873,219.807c-0.149,0-0.29-0.09-0.349-0.237
				c-0.076-0.192,0.018-0.411,0.211-0.487c2.453-0.972,5.144-1.048,7.575-0.21c0.195,0.067,0.3,0.281,0.233,0.477
				c-0.067,0.195-0.283,0.3-0.477,0.232c-2.263-0.778-4.769-0.707-7.056,0.198C258.966,219.798,258.919,219.807,258.873,219.807z"/>
		</g>
	</g>
</g>
</svg>
