<?xml version="1.0" encoding="utf-8"?>
<!-- Generator: Adobe Illustrator 27.5.0, SVG Export Plug-In . SVG Version: 6.00 Build 0)  -->
<svg version="1.1" xmlns="http://www.w3.org/2000/svg" xmlns:xlink="http://www.w3.org/1999/xlink" x="0px" y="0px"
	 viewBox="0 0 500 500" style="enable-background:new 0 0 500 500;" xml:space="preserve">
<g id="BACKGROUND">
	<g>
		<g>
			<g>
				<rect y="-1" style="fill:#FFFFFF;" width="500" height="500"/>
			</g>
		</g>
	</g>
</g>
<g id="OBJECTS">
	<g>
		<path style="fill:#E4F6F8;" d="M266.431,89.872c0,0-34.778,7.377-42.155,45.317c-7.377,37.94,22.131,64.286,64.286,63.233
			c0,0,59.017,2.108,76.933,40.047c17.916,37.939,63.232,27.401,74.825-10.539c11.593-37.939-4.216-98.01-53.748-120.142
			C337.04,85.656,299.101,83.549,266.431,89.872z"/>
		<path style="fill:#E4F6F8;" d="M60.925,284.839c0,0,22.131-38.993,82.202-27.401c60.071,11.593,77.987,63.232,127.519,62.179
			c49.532-1.054,110.657-21.077,134.896,9.485c24.239,30.562,4.215,91.687-69.556,87.472c-73.771-4.216-74.825-32.67-115.926-22.131
			c-41.101,10.539-66.394,32.67-127.519,12.646C31.417,387.064,44.063,310.132,60.925,284.839z"/>
		<g>
			<path style="fill:#BFD9FF;" d="M57.073,427.421c0,2.517,24.297,4.557,54.269,4.557s54.269-2.04,54.269-4.557
				c0-2.517-24.297-4.557-54.269-4.557S57.073,424.904,57.073,427.421z"/>
			<path style="fill:#2B6398;" d="M112.477,188.442H92.882c-1.546,0-2.799-1.253-2.799-2.799l0,0c0-1.546,1.253-2.799,2.799-2.799
				h19.595V188.442z"/>
			<path style="fill:#2B4177;" d="M102.992,193.415H75.328c-2.183,0-3.952-1.769-3.952-3.952v0c0-2.183,1.769-3.952,3.952-3.952
				h27.664V193.415z"/>
			<path style="fill:#9BE0EF;" d="M127.934,193.415H100.27c-2.183,0-3.952-1.769-3.952-3.952v0c0-2.183,1.769-3.952,3.952-3.952
				h27.664V193.415z"/>
			<path style="fill:#4295EF;" d="M103.124,189.397c0,1.419-1.15,2.569-2.569,2.569c-1.419,0-2.569-1.15-2.569-2.569
				s1.15-2.569,2.569-2.569C101.974,186.828,103.124,187.978,103.124,189.397z"/>
			<g>
				<path style="fill:#FF8D68;" d="M77.612,198.245l1.23-4.215l-3.15-3.15c-0.638-0.638-0.802-1.61-0.408-2.422l2.153-4.44
					l9.134-0.351l2.283,2.283l-2.986,0.703l-1.229,5.094c0,0,0.702,1.581,0.702,2.108s-1.405,6.148-1.405,6.148L77.612,198.245z"/>
				<polygon style="fill:#FF7759;" points="75.153,189.639 83.232,191.571 86.57,190.517 87.799,193.327 85.34,193.854 
					79.895,194.205 				"/>
				<polyline style="fill:none;stroke:#E66657;stroke-width:0.7401;stroke-miterlimit:10;" points="88.853,185.95 86.57,183.667 
					83.759,185.247 				"/>
				<polyline style="fill:none;stroke:#E66657;stroke-width:0.7401;stroke-miterlimit:10;" points="86.57,183.667 80.949,184.018 
					80.071,184.72 				"/>
				<path style="fill:#FF8D68;" d="M83.232,191.571l3.337-1.054c0,0,1.932-2.108,3.162-1.756s1.405,1.23,1.405,1.23l-3.337,3.337
					l-4.391,1.405L83.232,191.571z"/>
				<polyline style="fill:none;stroke:#E66657;stroke-width:0.7401;stroke-miterlimit:10;" points="84.813,185.247 77.436,184.018 
					75.153,189.639 78.841,194.03 				"/>
				<path style="fill:none;stroke:#E66657;stroke-width:0.7401;stroke-miterlimit:10;" d="M91.136,189.99
					c0,0-1.317-1.581-2.503-1.186s-2.064,1.712-2.064,1.712l-2.283,0.395"/>
			</g>
			<path style="fill:#DEE0E8;" d="M75.328,201.582l2.108-4.918c0,0,4.04-0.176,7.377,1.932l-1.581,4.918L75.328,201.582z"/>
			<g>
				<path style="fill:#16142A;" d="M131.169,412.673c0,0-1.151-2.467-5.428-1.809c-4.276,0.658-4.77,1.48-5.263,3.618
					c-0.493,2.138-1.974,4.441-2.96,4.934c-0.987,0.493-4.605,2.961-7.566,3.454c-2.961,0.493-3.29,2.303-2.632,3.125
					c0.658,0.822,11.842,1.48,14.309,1.151c0,0,8.388-0.164,10.362-0.822S131.333,413.496,131.169,412.673z"/>
				<path style="fill:#16142A;" d="M109.74,412.673c0,0-1.151-2.467-5.428-1.809c-4.276,0.658-4.77,1.48-5.263,3.618
					c-0.493,2.138-1.974,4.441-2.961,4.934c-0.987,0.493-4.605,2.961-7.566,3.454c-2.96,0.493-3.289,2.303-2.632,3.125
					c0.658,0.822,11.842,1.48,14.309,1.151c0,0,8.388-0.164,10.362-0.822C112.536,425.667,109.905,413.496,109.74,412.673z"/>
				<path style="fill:#2B233B;" d="M135.128,351.434c0,0,1.251-6.811-5.942-9.098c-7.193-2.286-8.555,1.038-10.732,7.25
					c-2.178,6.212,1.84,64.879,1.84,64.879s8.765,0.2,10.89-1.054c0,0,5.859-38.929,5.42-48.41
					C136.165,355.52,135.128,351.434,135.128,351.434z"/>
			</g>
			<path style="fill:#FF8D68;" d="M109.554,176.887c0,0-4.866,1.245-7.623,8.717s-0.919,23.35,0.919,25.218
				c1.838,1.868,7.42,1.154,15.161-1.401c8.179-2.7,10.943-11.203,12.405-16.812C133.215,181.868,123.875,170.816,109.554,176.887z"
				/>
			<path style="fill:#FF8D68;" d="M127.007,218.13l-3.947-14.145c0,0-7.895-2.303-12.829,2.96l-1.645,2.303v9.21
				C108.586,218.459,116.81,220.104,127.007,218.13z"/>
			<path style="fill:#2B233B;" d="M138.027,294.281c0,0,2.96,17.27,0,37.007c-2.961,19.737-8.882,21.711-14.309,21.711
				c-5.428,0-6.908-15.789-7.895-22.697c-0.987-6.908-4.934-30.592,2.467-36.02C125.691,288.853,134.079,288.36,138.027,294.281z"/>
			<path style="fill:#2B233B;" d="M117.303,317.472c0,0,5.921-15.789-4.441-22.697s-18.257-5.921-20.724,5.428
				c-2.467,11.349-2.961,50.329,0.493,58.224C96.086,366.32,108.421,353.985,117.303,317.472z"/>
			<path style="fill:#DEE0E8;" d="M129.096,218.055c0,0-1.102-3.873-2.089-4.202c-0.987-0.329-13.158-1.645-19.737,2.303
				c-2.961,2.303-2.632,3.947-2.632,3.947S124.276,216.336,129.096,218.055z"/>
			<path style="fill:#2B233B;" d="M90.873,247.163c0,0-3.534,44.459-2.547,61.564c1.316,3.29,28.768,4.193,33.373,3.864
				c4.605-0.329,19.695-3.58,20.024-4.567c0.329-0.987-2.873-44.828-2.215-49.433c0.658-4.605,2.632-27.302,1.974-30.592
				s-3.618-9.54-9.868-10.855c0,0-20.395-1.316-34.868,4.934c0,0-10.877,1.9-17.727,4.271c0,0,3.689-18.706,5.533-24.239
				c0,0-5.006-3.688-10.012-2.371c0,0-9.21,20.952-11.056,39.396c-0.213,2.125,1.311,4.034,3.423,4.349
				C74.787,244.66,90.873,247.163,90.873,247.163z"/>
			<path style="fill:#2B233B;" d="M107.928,352.505c0,0,0.493-6.908-6.908-8.388c-7.401-1.48-8.388,1.974-9.868,8.388
				c-1.48,6.414,7.296,62.356,7.296,62.356s9.685,0.558,11.659-0.922c0,0,2.263-38.736,0.782-48.111
				C109.408,356.452,107.928,352.505,107.928,352.505z"/>
			<path style="fill:none;stroke:#2A2E59;stroke-width:0.7401;stroke-miterlimit:10;" d="M119.277,313.771
				c0,0-6.908,22.204-12.089,33.059"/>
			<path style="fill:none;stroke:#2A2E59;stroke-width:0.7401;stroke-miterlimit:10;" d="M105.214,351.271c0,0-4.194-2.467-8.388,0"
				/>
			<path style="fill:none;stroke:#2A2E59;stroke-width:0.7401;stroke-miterlimit:10;" d="M105.954,353.985
				c0,0-3.454-1.974-9.375,2.22"/>
			<path style="fill:none;stroke:#2A2E59;stroke-width:0.7401;stroke-miterlimit:10;" d="M131.859,348.311
				c0,0-2.714-2.467-8.882,0.247"/>
			<path style="fill:none;stroke:#2A2E59;stroke-width:0.7401;stroke-miterlimit:10;" d="M129.885,350.778
				c0,0-3.947-1.974-7.648,0.987"/>
			
				<line style="fill:none;stroke:#2A2E59;stroke-width:0.7401;stroke-miterlimit:10;" x1="120.757" y1="354.725" x2="122.237" y2="405.054"/>
			<path style="fill:none;stroke:#2A2E59;stroke-width:0.7401;stroke-miterlimit:10;" d="M100.362,312.538
				c0,0-5.592,3.29-7.895-1.974"/>
			<path style="fill:none;stroke:#2A2E59;stroke-width:0.7401;stroke-miterlimit:10;" d="M94.77,313.196
				c0,0-2.632,20.395-1.974,33.882"/>
			<path style="fill:none;stroke:#524B81;stroke-width:0.7401;stroke-miterlimit:10;" d="M97.073,223.969
				c0,0,10.362,5.428,3.454,18.01"/>
			<path style="fill:none;stroke:#E66657;stroke-width:0.7401;stroke-miterlimit:10;" d="M111.752,207.563
				c0,0-1.727,4.441-7.525,3.701"/>
			<path style="fill:#7E3636;" d="M104.31,180.154c0,0-2.81,3.864-2.986,6.148c-0.176,2.283,3.513,4.567,4.04,5.972
				c0.527,1.405-0.351,4.391,0.176,5.269c0.527,0.878,0.703,1.932,0.703,1.932l0.176,2.986l1.932,0.351c0,0,1.932-5.445,3.337-5.796
				c1.405-0.351,2.81,2.108,3.337,3.337c0.527,1.229,2.108,4.567,2.108,4.567s6.148,1.581,7.377,1.23
				c1.23-0.351,6.85-11.417,7.026-17.038c0.176-5.621-3.689-11.241-7.728-12.998C119.767,174.357,111.863,172.777,104.31,180.154z"
				/>
			<path style="fill:#FF7759;" d="M107.063,198.811c0,0,0.7-3.036,3.269-1.635c2.568,1.401-0.467,8.64-2.569,8.173
				C105.662,204.882,106.596,199.978,107.063,198.811z"/>
			<path style="fill:#713336;" d="M105.188,179.275c0,0-0.176-4.742,5.445-8.255c5.621-3.513,14.754,1.757,15.984,4.567
				c1.229,2.81,5.094,6.499,5.796,10.188c0.703,3.689-1.756,12.822-4.391,15.281c-0.878,0.703-0.878-1.229-0.878-1.229
				s-1.756,1.932-2.81,2.459s-2.81-3.162-2.81-3.162s-0.878,1.405-2.108,2.108c-1.229,0.703-1.756-4.215-1.756-4.215
				s-1.054-5.269-3.162-7.728C112.389,186.828,106.242,181.734,105.188,179.275z"/>
			<path style="fill:none;stroke:#524B81;stroke-width:0.7401;stroke-miterlimit:10;" d="M132.764,228.983
				c0,1.581-6.323,33.197-5.269,37.413c1.054,4.216,5.796,34.251,5.796,34.251"/>
			<path style="fill:none;stroke:#524B81;stroke-width:0.7401;stroke-miterlimit:10;" d="M74.274,235.306
				c4.215-3.425,4.215-7.114,4.215-7.114s1.581,2.898,0.79,5.533"/>
		</g>
		<path style="fill:none;stroke:#58292F;stroke-width:0.7401;stroke-miterlimit:10;" d="M114.497,181.032
			c0,0,7.201,6.323,9.836,9.485"/>
		<path style="fill:none;stroke:#58292F;stroke-width:0.7401;stroke-miterlimit:10;" d="M121.874,187.706
			c0,0,1.405-4.742,7.904-5.621"/>
		<path style="fill:none;stroke:#58292F;stroke-width:0.7401;stroke-miterlimit:10;" d="M118.713,184.896
			c0,0-2.459,0.176-3.162,3.688"/>
		<g>
			<g>
				<g>
					<g>
						<path style="fill:#BFD9FF;" d="M309.64,251.115H180.013c-5.82,0-10.539-4.718-10.539-10.539v-64.286
							c0-5.82,4.718-10.539,10.539-10.539H309.64c5.82,0,10.539,4.718,10.539,10.539v64.286
							C320.178,246.396,315.46,251.115,309.64,251.115z"/>
						<path style="fill:#9BE0EF;" d="M318.704,257.084H170.948c-6.634,0-12.013-5.378-12.013-12.013v-73.277
							c0-6.635,5.378-12.013,12.013-12.013h147.756c6.634,0,12.013,5.378,12.013,12.013v73.277
							C330.717,251.706,325.339,257.084,318.704,257.084z"/>
						<g>
							
								<ellipse transform="matrix(0.0551 -0.9985 0.9985 0.0551 65.7111 486.568)" style="fill:#FFFFFF;" cx="289.943" cy="208.564" rx="27.601" ry="27.601"/>
							<g>
								<defs>
									
										<ellipse id="SVGID_1_" transform="matrix(0.0551 -0.9985 0.9985 0.0551 65.7111 486.568)" cx="289.943" cy="208.564" rx="27.601" ry="27.601"/>
								</defs>
								<clipPath id="SVGID_00000181785837851953494240000016660183439744269480_">
									<use xlink:href="#SVGID_1_"  style="overflow:visible;"/>
								</clipPath>
								<g style="clip-path:url(#SVGID_00000181785837851953494240000016660183439744269480_);">
									<g>
										<circle style="fill:#7E2D2C;" cx="290.161" cy="206.592" r="13.154"/>
										<path style="fill:#40BFE0;" d="M312.198,240.176c-0.591-11.779-10.328-21.149-22.255-21.149
											c-11.926,0-21.664,9.369-22.255,21.149H312.198z"/>
										<path style="fill:#FF7657;" d="M297.164,222.329c0,3.988-3.233,7.222-7.221,7.222c-3.988,0-7.221-3.233-7.221-7.222
											c0-3.988,3.233-7.221,7.221-7.221C293.931,215.108,297.164,218.341,297.164,222.329z"/>
										<g>
											<g>
												<path style="fill:#FF7657;" d="M304.897,209.728c0,1.628-1.32,2.948-2.948,2.948c-1.628,0-2.948-1.32-2.948-2.948
													s1.32-2.948,2.948-2.948C303.578,206.78,304.897,208.1,304.897,209.728z"/>
											</g>
											<g>
												<path style="fill:#FF7657;" d="M280.332,209.728c0,1.628-1.32,2.948-2.948,2.948c-1.628,0-2.948-1.32-2.948-2.948
													s1.32-2.948,2.948-2.948C279.012,206.78,280.332,208.1,280.332,209.728z"/>
											</g>
											<path style="fill:#FF9677;" d="M301.525,209.728c0,6.431-5.213,11.644-11.644,11.644
												c-6.431,0-11.644-5.213-11.644-11.644c0-6.431,5.213-11.644,11.644-11.644
												C296.312,198.084,301.525,203.297,301.525,209.728z"/>
										</g>
										<path style="fill:#7E2D2C;" d="M302.195,205.752c-1.301,3.826-6.64,5.47-11.923,3.673
											c-5.284-1.797-8.512-6.356-7.21-10.182c1.301-3.826,6.64-5.471,11.923-3.673
											C300.269,197.367,303.497,201.926,302.195,205.752z"/>
									</g>
								</g>
							</g>
						</g>
						<path style="fill:#FFFFFF;" d="M244.124,247.602H183.35c-5.335,0-9.66-4.325-9.66-9.66l0,0c0-5.335,4.325-9.661,9.66-9.661
							h60.773c5.335,0,9.66,4.325,9.66,9.661l0,0C253.784,243.276,249.459,247.602,244.124,247.602z"/>
						<g>
							<g>
								<path style="fill:#FFA402;" d="M188.017,240.464l-2.304,1.211c-0.217,0.114-0.47-0.07-0.429-0.312l0.44-2.565
									c0.016-0.096-0.015-0.194-0.085-0.262l-1.864-1.817c-0.175-0.171-0.078-0.469,0.164-0.504l2.576-0.374
									c0.096-0.014,0.18-0.074,0.223-0.162l1.152-2.334c0.108-0.22,0.422-0.22,0.53,0l1.152,2.334
									c0.043,0.087,0.126,0.148,0.223,0.162l2.576,0.374c0.242,0.035,0.339,0.333,0.164,0.504l-1.864,1.817
									c-0.07,0.068-0.102,0.166-0.085,0.262l0.44,2.565c0.041,0.242-0.212,0.426-0.429,0.312l-2.304-1.211
									C188.206,240.418,188.103,240.418,188.017,240.464z"/>
							</g>
							<g>
								<path style="fill:#FFA402;" d="M200.848,240.464l-2.304,1.211c-0.217,0.114-0.47-0.07-0.429-0.312l0.44-2.565
									c0.016-0.096-0.016-0.194-0.085-0.262l-1.864-1.817c-0.175-0.171-0.079-0.469,0.164-0.504l2.576-0.374
									c0.096-0.014,0.179-0.074,0.222-0.162l1.152-2.334c0.108-0.22,0.422-0.22,0.53,0l1.152,2.334
									c0.043,0.087,0.126,0.148,0.223,0.162l2.576,0.374c0.243,0.035,0.339,0.333,0.164,0.504l-1.864,1.817
									c-0.07,0.068-0.102,0.166-0.085,0.262l0.44,2.565c0.041,0.242-0.212,0.426-0.429,0.312l-2.304-1.211
									C201.037,240.418,200.934,240.418,200.848,240.464z"/>
							</g>
							<g>
								<path style="fill:#FFA402;" d="M213.679,240.464l-2.304,1.211c-0.217,0.114-0.47-0.07-0.429-0.312l0.44-2.565
									c0.016-0.096-0.015-0.194-0.085-0.262l-1.864-1.817c-0.175-0.171-0.079-0.469,0.164-0.504l2.576-0.374
									c0.096-0.014,0.179-0.074,0.222-0.162l1.152-2.334c0.108-0.22,0.422-0.22,0.53,0l1.152,2.334
									c0.043,0.087,0.126,0.148,0.223,0.162l2.576,0.374c0.243,0.035,0.339,0.333,0.164,0.504l-1.864,1.817
									c-0.07,0.068-0.101,0.166-0.085,0.262l0.44,2.565c0.042,0.242-0.212,0.426-0.429,0.312l-2.304-1.211
									C213.868,240.418,213.765,240.418,213.679,240.464z"/>
							</g>
							<g>
								<path style="fill:#FFA402;" d="M226.51,240.464l-2.304,1.211c-0.217,0.114-0.47-0.07-0.429-0.312l0.44-2.565
									c0.016-0.096-0.015-0.194-0.085-0.262l-1.864-1.817c-0.175-0.171-0.079-0.469,0.164-0.504l2.576-0.374
									c0.096-0.014,0.18-0.074,0.223-0.162l1.152-2.334c0.108-0.22,0.422-0.22,0.53,0l1.152,2.334
									c0.043,0.087,0.126,0.148,0.223,0.162l2.576,0.374c0.242,0.035,0.339,0.333,0.164,0.504l-1.864,1.817
									c-0.07,0.068-0.102,0.166-0.085,0.262l0.44,2.565c0.041,0.242-0.212,0.426-0.429,0.312l-2.304-1.211
									C226.7,240.418,226.597,240.418,226.51,240.464z"/>
							</g>
							<g>
								<path style="fill:#C2D4D9;" d="M239.342,240.464l-2.304,1.211c-0.217,0.114-0.47-0.07-0.429-0.312l0.44-2.565
									c0.016-0.096-0.015-0.194-0.085-0.262l-1.864-1.817c-0.176-0.171-0.079-0.469,0.164-0.504l2.576-0.374
									c0.096-0.014,0.18-0.074,0.223-0.162l1.152-2.334c0.108-0.22,0.422-0.22,0.53,0l1.152,2.334
									c0.043,0.087,0.126,0.148,0.223,0.162l2.576,0.374c0.242,0.035,0.339,0.333,0.164,0.504l-1.864,1.817
									c-0.069,0.068-0.101,0.166-0.085,0.262l0.44,2.565c0.041,0.242-0.212,0.426-0.429,0.312l-2.304-1.211
									C239.531,240.418,239.428,240.418,239.342,240.464z"/>
							</g>
						</g>
						
							<line style="fill:none;stroke:#FFFFFF;stroke-width:4.2155;stroke-linecap:round;stroke-linejoin:round;stroke-miterlimit:10;" x1="179.662" y1="189.639" x2="223.924" y2="189.639"/>
						
							<line style="fill:none;stroke:#FFFFFF;stroke-width:4.2155;stroke-linecap:round;stroke-linejoin:round;stroke-miterlimit:10;" x1="179.662" y1="215.283" x2="236.22" y2="215.283"/>
						
							<line style="fill:none;stroke:#FFFFFF;stroke-width:4.2155;stroke-linecap:round;stroke-linejoin:round;stroke-miterlimit:10;" x1="179.662" y1="201.934" x2="198.983" y2="201.934"/>
						
							<line style="fill:none;stroke:#FFFFFF;stroke-width:4.2155;stroke-linecap:round;stroke-linejoin:round;stroke-miterlimit:10;" x1="209.522" y1="201.934" x2="248.866" y2="201.934"/>
						
							<line style="fill:none;stroke:#24ADB2;stroke-width:4.2155;stroke-linecap:round;stroke-linejoin:round;stroke-miterlimit:10;" x1="283.029" y1="172.864" x2="310.167" y2="172.864"/>
					</g>
					
						<line style="fill:none;stroke:#24ADB2;stroke-width:1.0539;stroke-linecap:round;stroke-linejoin:round;stroke-miterlimit:10;" x1="189.498" y1="159.691" x2="237.976" y2="159.691"/>
					
						<line style="fill:none;stroke:#24ADB2;stroke-width:1.0539;stroke-linecap:round;stroke-linejoin:round;stroke-miterlimit:10;" x1="255.102" y1="159.691" x2="272.754" y2="159.691"/>
					
						<line style="fill:none;stroke:#24ADB2;stroke-width:1.0539;stroke-linecap:round;stroke-linejoin:round;stroke-miterlimit:10;" x1="249.569" y1="256.911" x2="304.37" y2="256.911"/>
					
						<line style="fill:none;stroke:#24ADB2;stroke-width:1.0539;stroke-linecap:round;stroke-linejoin:round;stroke-miterlimit:10;" x1="330.366" y1="191.044" x2="330.366" y2="202.636"/>
					
						<line style="fill:none;stroke:#24ADB2;stroke-width:1.0539;stroke-linecap:round;stroke-linejoin:round;stroke-miterlimit:10;" x1="158.936" y1="205.095" x2="158.936" y2="239.171"/>
				</g>
				<g>
					<g>
						<path style="fill:#BFD9FF;" d="M300.627,344.946H189.026c-5.011,0-9.073-4.062-9.073-9.073v-55.347
							c0-5.011,4.062-9.073,9.073-9.073h111.601c5.011,0,9.073,4.062,9.073,9.073v55.347
							C309.7,340.884,305.638,344.946,300.627,344.946z"/>
						<path style="fill:#C9EBF7;" d="M308.431,350.085H181.222c-5.712,0-10.342-4.63-10.342-10.342v-63.087
							c0-5.712,4.63-10.342,10.342-10.342h127.209c5.712,0,10.342,4.63,10.342,10.342v63.087
							C318.773,345.455,314.143,350.085,308.431,350.085z"/>
						<path style="fill:#C9EBF7;" d="M180.013,358.961v24.31c0,5.006,4.058,9.065,9.065,9.065h111.497
							c5.006,0,9.065-4.058,9.065-9.065v-24.31H180.013z"/>
						<path style="fill:#C9EBF7;" d="M315.963,152.053v-24.31c0-5.006-4.058-9.065-9.065-9.065H184.16
							c-5.006,0-9.065,4.058-9.065,9.065v24.31H315.963z"/>
						<g>
							<circle style="fill:#FFFFFF;" cx="283.669" cy="308.313" r="23.763"/>
							<g>
								<defs>
									<circle id="SVGID_00000147935239772134948680000004625327864488576940_" cx="283.669" cy="308.313" r="23.763"/>
								</defs>
								<clipPath id="SVGID_00000069376790502398957320000002704224271630614660_">
									<use xlink:href="#SVGID_00000147935239772134948680000004625327864488576940_"  style="overflow:visible;"/>
								</clipPath>
								<g style="clip-path:url(#SVGID_00000069376790502398957320000002704224271630614660_);">
									<g>
										
											<ellipse transform="matrix(0.7071 -0.7071 0.7071 0.7071 -133.6695 290.5226)" style="fill:#40BFE0;" cx="283.857" cy="306.615" rx="11.325" ry="11.325"/>
										<path style="fill:#40BFE0;" d="M302.829,335.529c-0.509-10.141-8.892-18.208-19.16-18.208
											c-10.268,0-18.651,8.066-19.16,18.208H302.829z"/>
										<path style="fill:#9BE0EF;" d="M289.886,320.164c0,3.434-2.783,6.217-6.217,6.217c-3.434,0-6.217-2.784-6.217-6.217
											c0-3.434,2.783-6.217,6.217-6.217C287.103,313.946,289.886,316.73,289.886,320.164z"/>
										<g>
											<g>
												<path style="fill:#C9EBF7;" d="M296.544,309.315c0,1.402-1.136,2.538-2.538,2.538c-1.401,0-2.538-1.136-2.538-2.538
													c0-1.402,1.136-2.538,2.538-2.538C295.408,306.777,296.544,307.913,296.544,309.315z"/>
											</g>
											<g>
												<g>
													<path style="fill:#C9EBF7;" d="M275.395,309.315c0,1.402-1.136,2.538-2.538,2.538c-1.402,0-2.538-1.136-2.538-2.538
														c0-1.402,1.136-2.538,2.538-2.538C274.258,306.777,275.395,307.913,275.395,309.315z"/>
												</g>
											</g>
											
												<ellipse transform="matrix(0.973 -0.2307 0.2307 0.973 -63.7184 73.7889)" style="fill:#C9EBF7;" cx="283.616" cy="309.315" rx="10.025" ry="10.025"/>
										</g>
										<path style="fill:#40BFE0;" d="M294.217,305.892c-1.12,3.294-5.716,4.71-10.265,3.162
											c-4.549-1.547-7.328-5.472-6.207-8.766c1.12-3.294,5.716-4.71,10.265-3.163
											C292.559,298.673,295.338,302.597,294.217,305.892z"/>
									</g>
								</g>
							</g>
						</g>
						<path style="fill:#9BE0EF;" d="M244.221,341.922h-52.322c-4.593,0-8.317-3.724-8.317-8.317l0,0
							c0-4.593,3.724-8.317,8.317-8.317h52.322c4.593,0,8.317,3.724,8.317,8.317l0,0
							C252.539,338.198,248.815,341.922,244.221,341.922z"/>
						<g>
							<g>
								<path style="fill:#FFFFFF;" d="M195.917,335.776l-1.984,1.043c-0.187,0.098-0.405-0.06-0.369-0.268l0.379-2.209
									c0.014-0.083-0.013-0.167-0.073-0.225l-1.605-1.564c-0.151-0.147-0.068-0.404,0.141-0.434l2.218-0.322
									c0.083-0.012,0.154-0.064,0.192-0.139l0.992-2.009c0.093-0.189,0.363-0.189,0.456,0l0.992,2.009
									c0.037,0.075,0.109,0.127,0.192,0.139l2.218,0.322c0.209,0.03,0.292,0.287,0.141,0.434l-1.605,1.564
									c-0.06,0.059-0.087,0.143-0.073,0.225l0.379,2.209c0.036,0.208-0.183,0.367-0.369,0.268l-1.983-1.043
									C196.08,335.737,195.991,335.737,195.917,335.776z"/>
							</g>
							<g>
								<path style="fill:#FFFFFF;" d="M206.964,335.776l-1.983,1.043c-0.187,0.098-0.405-0.06-0.369-0.268l0.379-2.209
									c0.014-0.083-0.013-0.167-0.073-0.225l-1.605-1.564c-0.151-0.147-0.068-0.404,0.141-0.434l2.218-0.322
									c0.083-0.012,0.154-0.064,0.192-0.139l0.992-2.009c0.093-0.189,0.363-0.189,0.456,0l0.992,2.009
									c0.037,0.075,0.109,0.127,0.192,0.139l2.218,0.322c0.209,0.03,0.292,0.287,0.141,0.434l-1.605,1.564
									c-0.06,0.059-0.087,0.143-0.073,0.225l0.379,2.209c0.036,0.208-0.183,0.367-0.369,0.268l-1.984-1.043
									C207.126,335.737,207.038,335.737,206.964,335.776z"/>
							</g>
							<g>
								<path style="fill:#FFFFFF;" d="M218.011,335.776l-1.984,1.043c-0.187,0.098-0.405-0.06-0.369-0.268l0.379-2.209
									c0.014-0.083-0.013-0.167-0.073-0.225l-1.605-1.564c-0.151-0.147-0.068-0.404,0.141-0.434l2.218-0.322
									c0.083-0.012,0.155-0.064,0.191-0.139l0.992-2.009c0.093-0.189,0.363-0.189,0.456,0l0.992,2.009
									c0.037,0.075,0.109,0.127,0.192,0.139l2.218,0.322c0.209,0.03,0.292,0.287,0.141,0.434l-1.605,1.564
									c-0.06,0.059-0.087,0.143-0.073,0.225l0.379,2.209c0.036,0.208-0.183,0.367-0.369,0.268l-1.984-1.043
									C218.173,335.737,218.085,335.737,218.011,335.776z"/>
							</g>
							<g>
								<path style="fill:#FFFFFF;" d="M229.057,335.776l-1.983,1.043c-0.187,0.098-0.405-0.06-0.369-0.268l0.379-2.209
									c0.014-0.083-0.013-0.167-0.073-0.225l-1.605-1.564c-0.151-0.147-0.068-0.404,0.141-0.434l2.217-0.322
									c0.083-0.012,0.155-0.064,0.192-0.139l0.992-2.009c0.093-0.189,0.363-0.189,0.456,0l0.992,2.009
									c0.037,0.075,0.109,0.127,0.192,0.139l2.218,0.322c0.209,0.03,0.292,0.287,0.141,0.434l-1.605,1.564
									c-0.06,0.059-0.087,0.143-0.073,0.225l0.379,2.209c0.036,0.208-0.183,0.367-0.369,0.268l-1.984-1.043
									C229.22,335.737,229.132,335.737,229.057,335.776z"/>
							</g>
							<g>
								<path style="fill:#FFFFFF;" d="M240.104,335.776l-1.983,1.043c-0.187,0.098-0.405-0.06-0.369-0.268l0.379-2.209
									c0.014-0.083-0.013-0.167-0.073-0.225l-1.605-1.564c-0.151-0.147-0.068-0.404,0.141-0.434l2.218-0.322
									c0.083-0.012,0.154-0.064,0.192-0.139l0.992-2.009c0.093-0.189,0.363-0.189,0.456,0l0.992,2.009
									c0.037,0.075,0.109,0.127,0.192,0.139l2.218,0.322c0.209,0.03,0.292,0.287,0.141,0.434l-1.605,1.564
									c-0.06,0.059-0.087,0.143-0.073,0.225l0.379,2.209c0.036,0.208-0.183,0.367-0.369,0.268l-1.984-1.043
									C240.267,335.737,240.179,335.737,240.104,335.776z"/>
							</g>
						</g>
						
							<line style="fill:none;stroke:#FFFFFF;stroke-width:3.6293;stroke-linecap:round;stroke-linejoin:round;stroke-miterlimit:10;" x1="188.724" y1="292.019" x2="226.831" y2="292.019"/>
						
							<line style="fill:none;stroke:#FFFFFF;stroke-width:3.6293;stroke-linecap:round;stroke-linejoin:round;stroke-miterlimit:10;" x1="188.724" y1="314.097" x2="237.417" y2="314.097"/>
						
							<line style="fill:none;stroke:#FFFFFF;stroke-width:3.6293;stroke-linecap:round;stroke-linejoin:round;stroke-miterlimit:10;" x1="188.724" y1="302.604" x2="205.358" y2="302.604"/>
						
							<line style="fill:none;stroke:#FFFFFF;stroke-width:3.6293;stroke-linecap:round;stroke-linejoin:round;stroke-miterlimit:10;" x1="214.431" y1="302.604" x2="248.304" y2="302.604"/>
						
							<line style="fill:none;stroke:#9BE0EF;stroke-width:3.6293;stroke-linecap:round;stroke-linejoin:round;stroke-miterlimit:10;" x1="277.717" y1="277.577" x2="301.08" y2="277.577"/>
					</g>
				</g>
			</g>
			
				<line style="fill:none;stroke:#24ADB2;stroke-width:1.0539;stroke-linecap:round;stroke-linejoin:round;stroke-miterlimit:10;" x1="146.289" y1="205.798" x2="146.289" y2="196.313"/>
			
				<line style="fill:none;stroke:#24ADB2;stroke-width:1.0539;stroke-linecap:round;stroke-linejoin:round;stroke-miterlimit:10;" x1="146.289" y1="189.99" x2="146.289" y2="164.17"/>
			
				<path style="fill:none;stroke:#24ADB2;stroke-width:1.0539;stroke-linecap:round;stroke-linejoin:round;stroke-miterlimit:10;" d="
				M149.451,157.495c0,1.649-1.337,2.986-2.986,2.986c-1.649,0-2.986-1.337-2.986-2.986s1.337-2.986,2.986-2.986
				C148.114,154.509,149.451,155.846,149.451,157.495z"/>
			
				<rect x="312.45" y="325.237" style="fill:none;stroke:#24ADB2;stroke-width:1.0539;stroke-linecap:round;stroke-linejoin:round;stroke-miterlimit:10;" width="11.241" height="11.241"/>
			
				<rect x="321.584" y="349.125" style="fill:none;stroke:#24ADB2;stroke-width:1.0539;stroke-linecap:round;stroke-linejoin:round;stroke-miterlimit:10;" width="7.026" height="7.026"/>
			
				<line style="fill:none;stroke:#24ADB2;stroke-width:1.0539;stroke-linecap:round;stroke-linejoin:round;stroke-miterlimit:10;" x1="180.013" y1="358.961" x2="271.7" y2="358.961"/>
		</g>
		<g>
			<path style="fill:#FF7759;" d="M404.137,208.784c0,0,5.094,2.81,10.363-4.215c-0.176-1.757-7.904-4.742-7.904-4.742
				L404.137,208.784z"/>
			<g>
				<polygon style="fill:#2B4177;" points="408.416,190.859 414.176,206.814 408.222,210.565 402.171,193.72 				"/>
				<g>
					<polygon style="fill:#F55B51;" points="426.597,178.452 421.674,183.674 416.297,175.139 423.132,172.952 					"/>
					<g>
						<polygon style="fill:#F55B51;" points="419.406,179.185 418.214,177.06 418.004,177.192 412.101,168.799 393.88,191.785 
							390.629,193.833 390.902,194.266 393.497,198.385 393.77,198.818 397.021,196.77 425.62,190.258 420.599,181.31 
							420.808,181.178 						"/>
						<path style="fill:#2B4177;" d="M428.257,192.862L428.257,192.862c-1.082,0.682-2.513,0.357-3.194-0.725l-15.056-23.898
							c-0.682-1.082-0.357-2.513,0.725-3.195l0,0c1.083-0.682,2.513-0.357,3.195,0.725l15.056,23.898
							C429.664,190.749,429.34,192.18,428.257,192.862z"/>
					</g>
				</g>
			</g>
			<path style="fill:#FF8D68;" d="M399.235,205.391c0,0-0.926,2.02-1.04,3.067c-0.114,1.048-2.768,25.494-2.768,25.494
				l-17.021-10.766l-4.965,14.738c0,0,22.754,8.478,29.041,9.161c3.454,0.729,4.418-1.64,4.805-1.952
				c0.387-0.311-1.568-37.626-1.568-37.626S404.503,202.429,399.235,205.391z"/>
			<path style="fill:#4AA890;" d="M372.521,218.093l22.834,15.105l-4.918,17.916l-20.024-15.105
				C370.413,236.009,366.9,226.524,372.521,218.093z"/>
			<ellipse style="fill:#BFD9FF;" cx="380.131" cy="428.057" rx="54.92" ry="4.612"/>
			<g>
				<path style="fill:#2B4177;" d="M354.278,422.048c0,0,6.149,6.428,8.664,7.826c-0.559,1.118-9.503,1.118-12.857-0.559
					c-3.354-1.677-5.869-5.59-5.869-5.59l0.279,4.192h-1.677c0,0-1.677-5.869-1.677-7.267c0-1.397,1.677-3.354,1.677-3.354
					L354.278,422.048z"/>
				<path style="fill:#FF8D68;" d="M356.793,339.319l-6.149,75.462l-7.267-0.559c0,0-8.385-55.339-5.031-74.344
					C341.701,320.873,356.793,339.319,356.793,339.319z"/>
				<path style="fill:#FF8D68;" d="M350.645,414.781c0,0,2.236,5.869,5.31,8.664c3.074,2.795-4.751,2.795-8.105,0
					c-3.354-2.795-3.633-4.472-4.751-5.031c-1.118-0.559,0.279-4.192,0.279-4.192L350.645,414.781z"/>
			</g>
			<g>
				<path style="fill:#2B4177;" d="M404.745,420.781c0,0,7.144,5.3,9.859,6.253c-0.362,1.196-9.178,2.704-12.767,1.616
					c-3.589-1.088-6.727-4.521-6.727-4.521l0.982,4.085l-1.653,0.283c0,0-2.642-5.503-2.878-6.88
					c-0.236-1.377,1.088-3.589,1.088-3.589L404.745,420.781z"/>
				<path style="fill:#FF8D68;" d="M393.28,338.812l6.659,75.419l-7.257,0.674c0,0-17.593-53.134-17.49-72.433
					C375.294,323.173,393.28,338.812,393.28,338.812z"/>
				<path style="fill:#FF8D68;" d="M399.939,414.231c0,0,3.193,5.408,6.695,7.645s-4.212,3.556-7.989,1.366
					c-3.777-2.19-4.335-3.795-5.531-4.158c-1.196-0.362-0.431-4.18-0.431-4.18L399.939,414.231z"/>
			</g>
			<path style="fill:#2B4177;" d="M385.162,274.408l0.357,8.674c0,0,5.621,11.944,7.377,24.942
				c1.756,12.998,2.459,38.993,2.459,38.993l3.864,47.073c0,0-7.728,2.81-14.052,1.054c0,0-7.728-26.347-9.836-35.48
				c-2.108-9.134-1.757-26.698-1.757-26.698l-6.323-24.59c0,0-9.134,35.832-9.485,40.75c-0.351,4.918-4.567,46.722-4.567,46.722
				s-5.972,1.757-13.349-0.351c0,0-4.215-37.94-3.864-59.017c0.703-15.808,1.757-23.888,1.757-23.888s-3.162-8.08,1.054-23.537
				c3.864-8.782,6.323-10.89,6.323-10.89l2.31-4.805L385.162,274.408z"/>
			<path style="fill:#4AA890;" d="M356.01,214.229c0,0-12.772,7.355-15.707,11.967c-2.935,4.612-11.738,29.556-11.738,29.556
				s9.852,3.563,18.446,3.563c0,0-0.839,7.965-1.677,10.481c-0.839,2.516,2.096,3.564,2.096,3.564s20.543,5.66,35.845,2.306
				c0,0,1.887-0.419,1.887-1.258c0-0.838-0.21-2.935-0.21-2.935s1.467-14.254,1.887-16.769c0.419-2.515,5.031-9.363,4.612-12.088
				c-0.419-2.725-7.546-15.372-7.546-15.372s-4.821-5.66-6.917-7.127c-2.096-1.467-7.979-3.429-7.979-3.429L356.01,214.229z"/>
			<path style="fill:#FF8D68;" d="M370.547,209.638c-0.008,0.328-1.204,7.443,2.736,12.478c3.941,5.145-11.603,4.926-15.215-0.328
				c-3.284-4.707-2.955-5.473-2.955-5.473s2.627-8.538,1.861-14.12C357.193,197.16,370.766,200.225,370.547,209.638z"/>
			
				<line style="fill:none;stroke:#318A7C;stroke-width:0.7904;stroke-miterlimit:10;" x1="355.116" y1="235.349" x2="348.688" y2="258.267"/>
			<path style="fill:none;stroke:#318A7C;stroke-width:0.7904;stroke-miterlimit:10;" d="M359.099,236.676
				c0,0-1.467,4.402-6.289,7.337"/>
			<path style="fill:none;stroke:#318A7C;stroke-width:0.7904;stroke-miterlimit:10;" d="M351.763,231.226
				c0,0-0.838-5.869-7.546-6.288"/>
			<path style="fill:none;stroke:#318A7C;stroke-width:0.7904;stroke-miterlimit:10;" d="M384.673,228.711
				c0,0,6.848,11.249,6.778,13.905c-0.07,2.655-4.472,10.201-4.472,10.201l-5.45,14.254"/>
			
				<line style="fill:none;stroke:#318A7C;stroke-width:0.7904;stroke-miterlimit:10;" x1="360.986" y1="275.456" x2="353.649" y2="267.071"/>
			<g>
				<g>
					<path style="fill:#FF8D68;" d="M359.029,294.042c0,0,3.494,3.843,4.542,4.682c1.048,0.838,8.175,1.467,8.175,1.467
						s3.144,5.24,3.983,5.031c0.839-0.21,0.629-0.838,0.629-0.838s0.21-9.433-0.419-10.481c-0.629-1.048-10.9-3.983-10.9-3.983
						l-1.258-1.467L359.029,294.042"/>
					<path style="fill:#FF8D68;" d="M331.639,256.73c-0.28,0.838-2.516,7.406-3.633,10.76c-1.118,3.354,24.036,20.962,27.949,24.036
						l3.074,2.515l4.751-5.59l-22.08-22.08l3.214-7.267L331.639,256.73z"/>
				</g>
				<g>
					
						<line style="fill:none;stroke:#E66657;stroke-width:0.749;stroke-miterlimit:10;" x1="375.729" y1="305.221" x2="374.401" y2="299.352"/>
					
						<line style="fill:none;stroke:#E66657;stroke-width:0.749;stroke-miterlimit:10;" x1="376.497" y1="299.911" x2="374.96" y2="296.557"/>
					<polyline style="fill:none;stroke:#E66657;stroke-width:0.749;stroke-miterlimit:10;" points="375.939,293.902 
						376.497,305.221 374.681,305.221 371.746,300.19 					"/>
				</g>
			</g>
			<g>
				<path style="fill:#D56F02;" d="M348.865,184.553c0,0,0.615-5.298-4.413-5.428c-5.028-0.13-8.751,8.61-4.932,11.825
					c3.032,2.827,4.704,1.263,4.704,1.263s-1.327,4.359-0.281,6.129c0.647,0.593,0.702-3.884,2.622-6.031
					C348.487,190.163,348.865,184.553,348.865,184.553z"/>
				<path style="fill:#FF8D68;" d="M365.1,179.328c0,0,4.668,0.305,8.473,6.671c3.805,6.366,4.847,21.215,3.485,23.24
					c-1.362,2.025-6.594,2.329-14.118,1.319c-7.95-1.068-11.938-8.377-14.238-13.26C344.297,187.947,350.95,176.228,365.1,179.328z"
					/>
				<g>
					<path style="fill:none;stroke:#E66657;stroke-width:0.749;stroke-miterlimit:10;" d="M370.028,211.033
						c0,0-5.425-0.121-9.099-4.55"/>
					<path style="fill:#FA6157;" d="M363.32,202.551c0.263,1.403,1.614,2.328,3.017,2.065c1.403-0.263,2.328-1.614,2.065-3.017
						s-1.614-2.328-3.017-2.065S363.057,201.148,363.32,202.551z"/>
					<path style="fill:#024470;" d="M367.621,198.19c0.064,0.341,0.393,0.566,0.734,0.502c0.341-0.064,0.566-0.393,0.502-0.734
						c-0.064-0.341-0.393-0.566-0.734-0.502C367.782,197.52,367.557,197.849,367.621,198.19z"/>
					<path style="fill:#024470;" d="M374.283,196.942c0.064,0.341,0.393,0.566,0.734,0.502c0.341-0.064,0.566-0.393,0.502-0.734
						c-0.064-0.341-0.393-0.566-0.734-0.502C374.444,196.272,374.219,196.6,374.283,196.942z"/>
				</g>
				<path style="fill:#D56F02;" d="M352.814,179.881c0,0,14.092-5.858,23.522,3.454c5.491,7.37-1.608,10.488-3.13,10.951
					c-1.521,0.464,0.097-2.341,0.097-2.341s-4.003,3.431-9.182,4.402c-5.352,1.003-0.529-1.867-0.529-1.867s-3.777,1.78-4.812,1.974
					c-1.036,0.194,1.683,6.118,1.424,7.596c-0.432,1.51-4.445-5.6-4.445-5.6l-0.227,4.51l0.701,4.694c0,0-6.948-3.701-9.376-8.072
					C344.429,195.213,343.103,185.275,352.814,179.881z"/>
				<path style="fill:#FF7759;" d="M357.076,199.405c0,0-2.163-2.415-3.627-1.101c-1.464,1.313,2.395,6.972,4.675,6.693
					C360.404,204.718,358.423,200.785,357.076,199.405z"/>
			</g>
			<path style="fill:#2B4177;" d="M356.186,212.999c0,0,4.918,9.485,14.403,9.485c1.581-1.757,0.176-5.621,0.176-5.621
				s5.445,3.689,5.445,8.255c0,0,4.742,4.567,6.674,7.904c-0.351,1.23-4.215,1.581-4.215,1.581s3.337,8.08,2.81,15.105
				c0,0-2.283,1.405-7.377,0.878c0,0,1.697-24.629-3.162-23.01c-0.527,0.176-6.148,0-12.295-3.162
				c-6.148-3.162-5.796-8.782-5.796-8.782s0.878-5.269,3.689-5.269L356.186,212.999z"/>
			<path style="fill:#FA6157;" d="M372.477,199.606c0,0,2.635,1.712,2.371,3.03c-0.263,1.317-1.844,0.659-1.844,0.659
				S372.082,200.265,372.477,199.606z"/>
			<path style="fill:#FFFFFF;" d="M375.639,204.217c0,0-3.03,1.186-4.742,1.186c-1.317,0.264,1.054,2.371,3.162,1.581
				C376.165,206.193,375.639,204.217,375.639,204.217z"/>
			<path style="fill:#FF8D68;" d="M410.021,194.732c0,0,4.743-0.79,5.796-0.263c1.054,0.527-0.263,9.748-0.263,9.748l-4.215,1.844
				L410.021,194.732z"/>
			<g>
				<g>
					<path style="fill:#FF8D68;" d="M398.451,207.764c0,0,0.14-0.978,2.073-4.898c2.143-4.346,2.627-6.13,2.627-6.13
						s6.786-2.627,7.881-3.941s1.751-1.532,1.751-1.532s1.314,2.408-0.657,4.159c-1.97,1.751-3.722,3.065-3.722,3.065
						s0.219,5.035-0.438,7.443c-0.657,2.408-2.631,3.576-2.631,3.576L398.451,207.764z"/>
				</g>
				<g>
					<polyline style="fill:none;stroke:#E66657;stroke-width:0.749;stroke-miterlimit:10;" points="411.029,196.444 
						408.405,198.487 406.417,197.981 					"/>
				</g>
			</g>
			<polyline style="fill:none;stroke:#E66657;stroke-width:0.749;stroke-miterlimit:10;" points="410.153,197.103 411.339,206.061 
				415.554,204.217 			"/>
			
				<line style="fill:none;stroke:#E66657;stroke-width:0.749;stroke-miterlimit:10;" x1="410.943" y1="204.349" x2="414.764" y2="201.714"/>
			
				<line style="fill:none;stroke:#E66657;stroke-width:0.749;stroke-miterlimit:10;" x1="410.548" y1="201.451" x2="414.632" y2="198.948"/>
			
				<line style="fill:none;stroke:#E66657;stroke-width:0.749;stroke-miterlimit:10;" x1="410.548" y1="198.289" x2="413.973" y2="196.181"/>
			<path style="fill:none;stroke:#2B3257;stroke-width:0.7904;stroke-miterlimit:10;" d="M362.685,283.082
				c0,0,8.431,2.459,18.618,0.703"/>
			<path style="fill:none;stroke:#B05702;stroke-width:0.7904;stroke-miterlimit:10;" d="M345.998,188.672
				c0,0,1.317-8.958,12.646-10.539"/>
			<path style="fill:none;stroke:#B05702;stroke-width:0.7904;stroke-miterlimit:10;" d="M349.95,191.571
				c0,0,1.054-4.479,7.114-8.958"/>
			<path style="fill:none;stroke:#B05702;stroke-width:0.7904;stroke-miterlimit:10;" d="M346.525,185.774c0,0,0-2.108-3.689-3.162"
				/>
			<path style="fill:none;stroke:#B05702;stroke-width:0.7904;stroke-miterlimit:10;" d="M345.735,192.361
				c0,0-1.054,6.06,3.162,9.748"/>
		</g>
		<path style="fill:#9BE0EF;" d="M347.228,141.863c0,1.94-1.573,3.513-3.513,3.513c-1.94,0-3.513-1.573-3.513-3.513
			c0-1.94,1.573-3.513,3.513-3.513C345.655,138.35,347.228,139.923,347.228,141.863z"/>
		<path style="fill:#9BE0EF;" d="M413.973,278.164c0,1.94-1.573,3.513-3.513,3.513c-1.94,0-3.513-1.573-3.513-3.513
			c0-1.94,1.573-3.513,3.513-3.513C412.4,274.651,413.973,276.224,413.973,278.164z"/>
		<path style="fill:#9BE0EF;" d="M167.542,372.661c0,1.94-1.573,3.513-3.513,3.513c-1.94,0-3.513-1.573-3.513-3.513
			c0-1.94,1.573-3.513,3.513-3.513C165.969,369.148,167.542,370.721,167.542,372.661z"/>
		<circle style="fill:#9BE0EF;" cx="125.914" cy="157.32" r="3.513"/>
		<path style="fill:#40BFE0;" d="M172.285,386.362c0,0.679-0.551,1.23-1.23,1.23c-0.679,0-1.229-0.551-1.229-1.23
			c0-0.679,0.55-1.229,1.229-1.229C171.734,385.132,172.285,385.683,172.285,386.362z"/>
		<path style="fill:#40BFE0;" d="M340.026,167.331c-3.298,0-5.972-2.674-5.972-5.972c0-3.298,2.674-5.972,5.972-5.972
			c3.298,0,5.972,2.674,5.972,5.972C345.998,164.658,343.325,167.331,340.026,167.331z"/>
		<g>
			<g>
				
					<line style="fill:none;stroke:#24ADB2;stroke-width:3.1616;stroke-linecap:round;stroke-linejoin:round;" x1="228.491" y1="106.734" x2="228.491" y2="106.734"/>
				
					<line style="fill:none;stroke:#24ADB2;stroke-width:3.1616;stroke-linecap:round;stroke-linejoin:round;stroke-dasharray:0,6.5867;" x1="235.078" y1="106.734" x2="264.718" y2="106.734"/>
				
					<line style="fill:none;stroke:#24ADB2;stroke-width:3.1616;stroke-linecap:round;stroke-linejoin:round;" x1="268.012" y1="106.734" x2="268.012" y2="106.734"/>
			</g>
		</g>
		
			<line style="fill:none;stroke:#24ADB2;stroke-width:3.1616;stroke-linecap:round;stroke-linejoin:round;stroke-miterlimit:10;stroke-dasharray:0,6.3232;" x1="290.67" y1="377.052" x2="321.232" y2="377.052"/>
		<g>
			
				<ellipse transform="matrix(0.7071 -0.7071 0.7071 0.7071 -26.7886 177.2486)" style="fill:#40BFE0;" cx="200.564" cy="120.961" rx="16.335" ry="16.335"/>
			
				<polyline style="fill:none;stroke:#FFFFFF;stroke-width:4.2155;stroke-linecap:round;stroke-linejoin:round;stroke-miterlimit:10;" points="
				194.24,122.015 198.983,126.757 208.204,117.536 			"/>
		</g>
	</g>
</g>
</svg>
