<svg version="1.1" id="Layer_1" xmlns="http://www.w3.org/2000/svg" xmlns:xlink="http://www.w3.org/1999/xlink" x="0px" y="0px"
	 width="100%" viewBox="0 0 3375 3375" enable-background="new 0 0 3375 3375" xml:space="preserve">
<path fill="#FFFFFF" opacity="1.000000" stroke="none" 
	d="
M1888.000000,3378.000000 
	C1258.666870,3378.000000 630.333679,3378.000000 2.000422,3378.000000 
	C2.000281,2252.667236 2.000281,1127.334351 2.000140,2.001176 
	C1127.332397,2.000784 2252.664795,2.000784 3377.998047,2.000392 
	C3377.998535,1127.332153 3377.998535,2252.664307 3377.999268,3377.998047 
	C2881.666748,3378.000000 2385.333252,3378.000000 1888.000000,3378.000000 
M1701.641602,1855.000000 
	C1701.721680,1892.183350 1701.065430,1929.361816 1703.954468,1966.514160 
	C1705.113647,1981.419434 1704.257080,1996.491577 1704.098145,2011.485352 
	C1704.018799,2018.966064 1703.444092,2026.441650 1703.044678,2034.959717 
	C1705.569336,2035.101807 1708.746582,2035.429565 1711.924316,2035.435669 
	C1734.917480,2035.480103 1757.910522,2035.459717 1780.903687,2035.459595 
	C1783.902832,2035.459595 1786.905762,2035.556030 1789.900269,2035.436890 
	C1797.380127,2035.139160 1798.999878,2033.452393 1799.294800,2025.759399 
	C1799.384155,2023.430054 1799.312012,2021.094604 1799.312134,2018.761963 
	C1799.312256,1957.113770 1799.380615,1895.465332 1799.239502,1833.817383 
	C1799.218140,1824.450806 1800.212036,1815.605347 1803.779541,1806.729248 
	C1807.079102,1798.519287 1811.113647,1790.900146 1818.279175,1786.122437 
	C1834.294312,1775.444092 1851.434692,1768.642700 1871.616089,1771.389404 
	C1880.321167,1772.574219 1887.215942,1776.031250 1894.000854,1780.800903 
	C1907.188965,1790.071533 1909.528931,1804.432251 1909.634521,1818.528320 
	C1910.146118,1886.837402 1909.865356,1955.152466 1909.865479,2023.465332 
	C1909.865479,2027.046753 1909.865601,2030.628174 1909.865601,2034.833862 
	C1913.761230,2035.084717 1916.669678,2035.413208 1919.580200,2035.433716 
	C1929.243652,2035.502197 1938.907593,2035.459961 1948.571411,2035.459595 
	C1963.233643,2035.458984 1977.896973,2035.556274 1992.557861,2035.417969 
	C2000.470825,2035.343262 2001.779419,2033.878540 2002.111938,2026.083374 
	C2002.140381,2025.417969 2002.153564,2024.748413 2002.113281,2024.084473 
	C2001.232422,2009.577393 2002.422485,1995.128662 2000.243896,1980.467529 
	C1998.336548,1967.631104 2001.735352,1954.079102 2002.016724,1940.826782 
	C2002.420044,1921.841064 2002.570190,1902.827148 2002.015991,1883.849121 
	C2001.144531,1854.012207 2004.231812,1824.138306 1999.977417,1794.286743 
	C1998.448242,1783.557251 1996.913940,1772.962524 1994.317383,1762.433594 
	C1989.856567,1744.346558 1980.711548,1728.924194 1968.270508,1715.424316 
	C1955.468994,1701.533081 1939.192505,1693.068604 1921.502808,1687.035522 
	C1911.446899,1683.605835 1901.269897,1680.995117 1890.538574,1681.992920 
	C1883.679443,1682.630615 1876.743774,1683.090088 1870.028442,1684.509644 
	C1850.028564,1688.737671 1832.334351,1697.915894 1816.461182,1710.697632 
	C1811.159302,1714.966919 1805.890137,1719.276855 1800.633789,1723.545654 
	C1796.311523,1718.446045 1796.197388,1715.578491 1796.674072,1709.671265 
	C1797.759521,1696.214478 1799.710327,1682.560303 1798.459106,1669.254395 
	C1797.089355,1654.690430 1795.701416,1640.162476 1796.612671,1625.645508 
	C1797.196045,1616.351196 1797.439819,1606.068848 1806.485352,1599.748413 
	C1810.819458,1596.719971 1815.708252,1593.129517 1821.078491,1595.979126 
	C1825.687378,1598.424561 1825.355103,1603.774048 1825.339355,1608.527710 
	C1825.277588,1627.188599 1825.286865,1645.849854 1825.343994,1664.510742 
	C1825.352539,1667.326172 1825.754517,1670.140259 1825.991699,1673.174805 
	C1845.038574,1662.404297 1863.676880,1653.483276 1885.231323,1653.075806 
	C1887.168335,1653.039185 1889.251099,1652.680298 1890.993896,1651.879028 
	C1896.461792,1649.364746 1901.812378,1649.572754 1907.304321,1651.693604 
	C1909.113647,1652.392334 1911.077759,1652.982910 1912.994995,1653.064453 
	C1933.026733,1653.916992 1950.444336,1662.228882 1967.212402,1672.186035 
	C1973.856323,1676.131348 1980.049194,1680.835938 1986.371826,1685.143311 
	C2001.477905,1673.676880 2006.712524,1657.848511 2012.708374,1642.475708 
	C2015.536621,1635.224243 2015.592407,1627.684082 2015.565674,1620.046143 
	C2015.453857,1588.056030 2015.514648,1556.065430 2015.526978,1524.074951 
	C2015.528076,1521.411377 2015.344849,1518.700684 2015.756714,1516.092407 
	C2017.286377,1506.404419 2019.177246,1496.772461 2020.645264,1487.075928 
	C2021.823975,1479.290894 2022.446289,1471.422241 2023.579590,1463.629150 
	C2024.474487,1457.474731 2025.871826,1451.395020 2026.866577,1445.253052 
	C2028.439331,1435.541016 2029.895508,1425.809692 2031.319336,1416.074585 
	C2031.606812,1414.109131 2031.262817,1412.034424 2031.667236,1410.105957 
	C2034.147217,1398.281372 2036.615723,1386.450806 2039.379517,1374.690796 
	C2041.100464,1367.367676 2042.443359,1359.763306 2045.500732,1352.981689 
	C2055.729980,1330.293335 2069.837402,1310.074463 2085.771729,1290.949097 
	C2095.022217,1279.845947 2103.596680,1267.734863 2106.924805,1253.388306 
	C2109.349854,1242.935303 2108.693359,1232.651001 2099.667969,1224.038330 
	C2085.750244,1210.756348 2069.027344,1209.548096 2052.483887,1214.039917 
	C2031.915283,1219.624634 2015.463257,1233.580566 1998.734985,1246.362793 
	C1994.566040,1249.548584 1989.990234,1252.542114 1986.762329,1256.557251 
	C1975.641479,1270.390137 1964.494019,1284.260864 1954.377563,1298.826294 
	C1943.402344,1314.628296 1937.260620,1332.934204 1930.984497,1350.933960 
	C1925.390869,1366.976196 1921.262207,1383.524780 1916.295898,1399.791504 
	C1911.075684,1416.890137 1903.005005,1432.698242 1893.648804,1447.850220 
	C1887.062378,1458.516479 1880.723999,1469.442505 1870.287964,1477.042847 
	C1869.923584,1477.308350 1869.197021,1477.076538 1868.251831,1477.076538 
	C1868.455078,1475.185181 1868.649780,1473.372681 1868.962769,1470.459473 
	C1861.189941,1471.996338 1853.892578,1473.308105 1846.657471,1474.902100 
	C1837.080933,1477.011963 1827.656738,1480.138672 1817.980713,1481.398071 
	C1802.307129,1483.438110 1787.186157,1487.052734 1772.093018,1491.796753 
	C1744.593262,1500.439941 1726.412964,1519.830688 1713.170776,1543.536377 
	C1704.574341,1558.925415 1701.531616,1577.195190 1701.843384,1595.009521 
	C1702.639526,1640.505493 1699.833374,1685.991089 1703.701050,1731.538086 
	C1705.964111,1758.189941 1704.520752,1785.200928 1701.874390,1812.035156 
	C1700.539917,1825.566162 1701.641357,1839.337402 1701.641602,1855.000000 
M1419.310669,1387.532959 
	C1406.838867,1367.385742 1395.361328,1346.644775 1380.910767,1327.709106 
	C1372.285156,1316.406616 1364.006226,1304.850830 1353.281982,1295.503906 
	C1348.719971,1291.527710 1342.904785,1288.866455 1337.403931,1286.118774 
	C1328.618530,1281.730469 1318.856201,1282.950562 1309.953247,1284.229492 
	C1293.049194,1286.658203 1283.776001,1301.408813 1284.901123,1316.044800 
	C1285.271606,1320.865234 1286.977051,1325.614746 1288.333984,1330.321289 
	C1291.667725,1341.886353 1298.259766,1351.688110 1305.404907,1361.161133 
	C1308.977051,1365.896973 1313.146973,1370.277100 1316.099243,1375.367432 
	C1324.517944,1389.883179 1333.173950,1404.334351 1340.411255,1419.445801 
	C1352.359009,1444.393188 1367.944824,1466.798340 1386.704956,1486.810059 
	C1399.724243,1500.697632 1413.218018,1514.226562 1428.109131,1526.338745 
	C1440.926147,1536.763794 1452.618896,1548.578613 1464.709961,1559.884644 
	C1469.331543,1564.206299 1473.725220,1568.775879 1478.139893,1573.313354 
	C1485.122437,1580.490234 1490.895630,1588.335327 1493.545410,1598.305542 
	C1495.120972,1604.234009 1497.735107,1609.886230 1499.934448,1615.803223 
	C1501.508179,1615.803223 1502.957520,1616.177368 1504.104858,1615.746948 
	C1520.913452,1609.438721 1538.721191,1607.744629 1556.256714,1606.050537 
	C1568.552124,1604.862671 1581.219727,1607.481812 1593.713867,1608.490234 
	C1594.615845,1608.562988 1595.424194,1609.454712 1596.334351,1609.820801 
	C1614.617432,1617.175415 1632.963135,1624.378174 1651.163940,1631.930420 
	C1656.251221,1634.041260 1661.093750,1635.238403 1666.445679,1633.476685 
	C1666.794434,1632.346436 1667.295410,1631.421021 1667.340332,1630.474121 
	C1668.184204,1612.626587 1665.868774,1594.662964 1669.833862,1576.913574 
	C1671.470703,1569.586304 1671.045654,1561.698730 1673.317505,1554.631470 
	C1681.153076,1530.256226 1691.745605,1507.467896 1710.542480,1488.997314 
	C1723.372803,1476.390015 1737.978638,1466.506958 1754.539185,1460.950195 
	C1777.428833,1453.269653 1801.266479,1448.456665 1824.534058,1441.838989 
	C1833.403198,1439.316406 1843.165771,1438.879639 1852.077148,1431.818604 
	C1850.432861,1430.831909 1849.325928,1430.068848 1848.136597,1429.468994 
	C1829.918823,1420.278076 1818.245483,1404.968506 1809.083496,1387.417480 
	C1802.366943,1374.550903 1797.963745,1361.011108 1795.867310,1346.486572 
	C1793.252686,1328.373413 1789.332153,1310.447021 1785.904663,1292.453491 
	C1784.122437,1283.096924 1782.259155,1273.754272 1780.304321,1264.432251 
	C1777.887817,1252.906860 1775.355713,1241.405640 1772.840210,1229.901245 
	C1771.238159,1222.573608 1769.344849,1215.300903 1768.006348,1207.926514 
	C1766.717407,1200.824097 1765.707642,1193.646973 1765.049438,1186.459229 
	C1763.878784,1173.673828 1763.067993,1160.855713 1762.098511,1148.051758 
	C1762.048462,1147.389771 1761.915527,1146.734009 1761.829102,1146.074341 
	C1760.252319,1134.024658 1757.640869,1121.999634 1757.353149,1109.919189 
	C1756.958984,1093.380371 1754.485474,1077.237915 1751.907959,1060.995239 
	C1749.634399,1046.668335 1743.774658,1034.676147 1732.253540,1025.777588 
	C1725.043579,1020.208862 1716.779907,1016.002563 1707.589233,1017.661316 
	C1694.301025,1020.059631 1684.472900,1027.898926 1677.312866,1039.569824 
	C1668.011719,1054.730591 1666.540527,1071.769287 1664.583252,1088.670532 
	C1663.634888,1096.858887 1665.297974,1104.987549 1666.822632,1113.192627 
	C1668.914673,1124.451782 1669.006470,1136.082397 1669.957886,1147.553711 
	C1670.012817,1148.216553 1670.051270,1148.884399 1670.163696,1149.538574 
	C1672.709229,1164.358765 1676.222656,1179.090454 1677.580444,1194.018066 
	C1679.379028,1213.793335 1679.635376,1233.717285 1680.273438,1253.586182 
	C1680.604858,1263.908203 1680.304321,1274.249756 1680.350952,1284.582153 
	C1680.362915,1287.235107 1680.434692,1289.909668 1680.776611,1292.535400 
	C1682.382446,1304.865112 1684.042358,1317.188354 1685.783325,1329.499512 
	C1686.839233,1336.965942 1687.537231,1344.541382 1689.353271,1351.829224 
	C1692.603271,1364.872314 1696.622803,1377.672363 1696.886475,1391.333496 
	C1697.086548,1401.704102 1691.195923,1409.012695 1680.955200,1410.263184 
	C1666.476807,1412.031494 1655.687622,1406.819092 1648.767700,1393.923950 
	C1640.071167,1377.718628 1631.471313,1361.461670 1622.771851,1345.257935 
	C1616.880493,1334.284546 1611.449219,1323.012207 1604.824219,1312.495728 
	C1591.852661,1291.904297 1577.505737,1272.129028 1569.561646,1248.772217 
	C1563.550415,1231.098389 1556.650513,1213.668457 1551.730347,1195.696289 
	C1545.115234,1171.533203 1535.936279,1148.642822 1523.071045,1127.201782 
	C1519.189819,1120.733154 1515.763550,1113.841064 1510.986084,1108.092651 
	C1501.503418,1096.682251 1490.891235,1086.614624 1474.120605,1088.443237 
	C1471.485474,1088.730469 1468.757324,1088.761841 1466.131714,1088.434326 
	C1456.006836,1087.171265 1450.248779,1093.899048 1445.350586,1100.703369 
	C1439.886108,1108.294312 1436.804932,1117.305054 1437.988647,1126.870605 
	C1439.396362,1138.246460 1440.290283,1149.934570 1443.700439,1160.765259 
	C1452.487061,1188.670532 1462.856812,1216.048096 1476.237671,1242.169922 
	C1477.589355,1244.809082 1479.020020,1247.465454 1479.911133,1250.273438 
	C1485.658325,1268.382324 1491.079224,1286.596191 1496.973511,1304.656250 
	C1502.357056,1321.151001 1508.828369,1337.312012 1513.690186,1353.950439 
	C1519.993408,1375.521606 1531.886230,1393.994141 1544.024536,1412.385376 
	C1551.816528,1424.191528 1560.470093,1435.385620 1566.371216,1448.418457 
	C1570.900635,1458.422119 1573.163940,1467.702148 1566.375610,1477.847778 
	C1561.631836,1484.937500 1556.309326,1489.542358 1547.408081,1489.344360 
	C1540.292114,1489.185913 1533.776001,1487.509033 1527.981934,1483.327515 
	C1521.308350,1478.511230 1514.663086,1473.655884 1508.002808,1468.821289 
	C1495.519653,1459.759888 1482.546631,1451.291138 1470.683960,1441.479736 
	C1458.186523,1431.143188 1446.399048,1419.870605 1434.995972,1408.321411 
	C1429.294312,1402.546631 1425.139404,1395.244507 1419.310669,1387.532959 
M714.433533,1964.456787 
	C718.881836,1969.757202 723.241943,1975.135376 727.816895,1980.324219 
	C730.005615,1982.806641 732.504578,1985.044556 735.037476,1987.186890 
	C738.038757,1989.725342 741.301086,1991.953735 744.320557,1994.472168 
	C750.148804,1999.333252 755.564209,2004.754150 761.717102,2009.150269 
	C787.917603,2027.870605 817.671021,2038.692627 849.116150,2042.824585 
	C872.611511,2045.912109 896.707886,2044.186157 919.819580,2037.291260 
	C942.022522,2030.667480 963.034912,2021.179810 982.565430,2008.649048 
	C988.647949,2004.746582 994.375549,2000.260376 1000.072815,1995.795288 
	C1009.113159,1988.710571 1017.983887,1982.740723 1014.104309,1967.645264 
	C1010.983643,1955.502441 1013.741089,1942.110107 1011.091858,1929.269165 
	C1009.279541,1920.484253 1009.425903,1919.207886 1000.089172,1919.162720 
	C983.430847,1919.082153 966.771240,1919.214233 950.113403,1919.089966 
	C945.886597,1919.058472 942.645996,1920.192871 939.425842,1923.211792 
	C919.443054,1941.946777 894.551147,1948.493286 868.194580,1950.554077 
	C862.123718,1951.028687 855.868225,1949.039917 849.689209,1948.251587 
	C828.710693,1945.575317 813.712097,1933.573486 800.592590,1917.733032 
	C802.502991,1915.707397 803.644226,1913.977661 805.229065,1912.900513 
	C816.378113,1905.322388 827.564941,1897.796753 838.840515,1890.408447 
	C865.809021,1872.737793 892.889343,1855.237305 919.820251,1837.509766 
	C953.336304,1815.447510 986.729553,1793.198608 1020.214294,1771.088623 
	C1031.096924,1763.902832 1034.212402,1754.648315 1030.114258,1744.146118 
	C1021.901306,1723.099243 1007.741272,1706.145996 993.156372,1689.517334 
	C989.321533,1685.144897 983.903931,1682.197388 979.440125,1678.333252 
	C965.851746,1666.570557 950.596069,1657.768188 933.869995,1651.198242 
	C914.489807,1643.585815 894.112915,1640.403198 873.786804,1637.180664 
	C859.588989,1634.929688 845.468506,1638.559448 831.681702,1641.237549 
	C818.923462,1643.716187 806.316956,1648.081421 794.361877,1653.270508 
	C782.930359,1658.232178 771.518005,1664.159546 761.732361,1671.766235 
	C748.446838,1682.093384 736.211365,1693.932983 724.493286,1706.059204 
	C716.317261,1714.520142 708.632568,1723.885132 702.694885,1734.000610 
	C683.353638,1766.950317 673.183716,1802.694702 673.124756,1841.098511 
	C673.117065,1846.096069 673.064941,1851.094727 673.146240,1856.090942 
	C673.194885,1859.075195 673.099731,1862.132202 673.706909,1865.022583 
	C675.045959,1871.396851 677.253235,1877.611694 678.282104,1884.023804 
	C681.713196,1905.406372 689.020081,1925.216431 700.954285,1943.328613 
	C705.291809,1949.911499 709.319031,1956.698853 714.433533,1964.456787 
M1072.408936,1996.488525 
	C1077.373047,2001.384033 1081.951660,2006.762573 1087.370972,2011.087646 
	C1106.297974,2026.192993 1127.574341,2036.151978 1151.536865,2040.850220 
	C1165.103882,2043.510376 1178.784302,2044.786255 1192.148804,2042.977417 
	C1213.148193,2040.135498 1233.463379,2034.006714 1252.066528,2023.239014 
	C1253.661011,2022.316162 1255.716797,2022.190063 1257.989868,2021.577271 
	C1259.050415,2025.805420 1259.982178,2029.520508 1260.751831,2032.589233 
	C1287.193848,2037.273438 1313.152222,2035.495239 1340.275635,2032.354004 
	C1340.275635,2027.017212 1340.275757,2022.069336 1340.275757,2017.121460 
	C1340.275757,1937.142700 1340.251587,1857.164062 1340.296387,1777.185303 
	C1340.305298,1761.253662 1339.314575,1745.365967 1335.136108,1730.005493 
	C1328.238647,1704.649902 1316.767090,1682.688354 1293.917725,1666.867798 
	C1270.510864,1650.661377 1245.148560,1643.561279 1217.417358,1642.243530 
	C1201.171875,1641.471680 1185.223389,1643.301636 1169.425903,1647.000000 
	C1153.582397,1650.708984 1139.068604,1657.557617 1124.778687,1665.125488 
	C1112.520020,1671.617432 1100.261719,1678.266602 1085.703369,1678.276245 
	C1081.551270,1678.278931 1077.400024,1679.528931 1072.861938,1680.270142 
	C1073.020630,1682.864258 1073.047852,1684.809204 1073.273804,1686.730713 
	C1074.005615,1692.949097 1075.067627,1699.140137 1075.524780,1705.376709 
	C1076.153931,1713.957031 1075.986694,1722.604614 1076.823242,1731.158569 
	C1077.734863,1740.479248 1081.522827,1742.567383 1090.230225,1738.718140 
	C1102.667725,1733.219849 1115.335083,1728.810425 1128.800415,1726.346558 
	C1137.494385,1724.755493 1145.814575,1724.301392 1154.395264,1726.494873 
	C1166.388672,1729.560669 1178.460938,1734.082886 1190.798340,1728.069824 
	C1201.210205,1722.995117 1212.088867,1723.758301 1222.878540,1725.457520 
	C1238.824097,1727.968628 1248.186523,1737.551147 1250.341309,1753.815186 
	C1252.100464,1767.093384 1252.880615,1780.501221 1254.201782,1795.027954 
	C1251.034790,1794.551270 1248.355591,1794.700928 1246.173706,1793.731323 
	C1229.790527,1786.450439 1212.735474,1782.868652 1194.873169,1780.675537 
	C1181.005005,1778.973022 1167.409424,1779.584473 1154.205078,1781.586914 
	C1124.653076,1786.068359 1098.193970,1798.353394 1076.594727,1819.634521 
	C1072.436768,1823.731201 1069.391602,1828.932251 1065.535767,1833.365112 
	C1048.781372,1852.627441 1042.330078,1875.547729 1041.468994,1900.472046 
	C1041.273804,1906.121948 1041.026123,1911.803467 1041.393921,1917.431763 
	C1041.929688,1925.631104 1041.786621,1934.155640 1044.083008,1941.904175 
	C1049.845337,1961.347412 1058.745605,1979.440796 1072.408936,1996.488525 
M2579.939697,2030.385498 
	C2585.777100,2027.639526 2591.614502,2024.893555 2597.813477,2021.977539 
	C2600.282959,2026.496094 2602.447266,2030.455933 2604.212891,2033.686523 
	C2614.680664,2033.686523 2623.995605,2033.691895 2633.310547,2033.685181 
	C2642.308105,2033.678711 2651.310791,2033.839966 2660.302002,2033.595947 
	C2669.450195,2033.347412 2678.730469,2034.966431 2688.325195,2032.519287 
	C2688.325195,1902.782715 2688.325195,1773.644165 2688.325195,1643.878906 
	C2659.488281,1643.878906 2630.970947,1643.878906 2601.010986,1643.878906 
	C2600.443359,1647.826660 2599.336426,1651.920898 2599.350586,1656.011230 
	C2599.438477,1681.330078 2600.040283,1706.648804 2599.978027,1731.966431 
	C2599.865723,1777.615112 2599.397705,1823.262939 2599.098145,1868.911133 
	C2599.022217,1880.473755 2599.330078,1891.872070 2597.021484,1903.509033 
	C2594.311279,1917.171997 2590.357178,1929.641113 2580.905029,1940.016724 
	C2574.569824,1946.971191 2566.793945,1953.140137 2557.948486,1954.614746 
	C2536.688965,1958.158325 2516.051514,1956.733887 2498.393066,1941.359375 
	C2486.683838,1931.164795 2480.247803,1919.265259 2480.942139,1903.652344 
	C2481.134521,1899.328979 2481.063721,1894.989746 2480.993896,1890.659668 
	C2480.537109,1862.389038 2479.683350,1834.119019 2479.683838,1805.848755 
	C2479.684326,1782.923340 2481.046143,1760.000000 2481.174316,1737.072144 
	C2481.325195,1710.083862 2480.792725,1683.091797 2480.567627,1656.101318 
	C2480.534912,1652.161011 2480.563477,1648.220093 2480.563477,1644.214355 
	C2469.377441,1644.214355 2459.060303,1644.214355 2448.743408,1644.214355 
	C2429.640137,1644.214355 2410.536621,1644.214355 2390.665527,1644.214355 
	C2390.665527,1688.005005 2390.602051,1730.966553 2390.684082,1773.927979 
	C2390.758545,1812.901001 2390.923584,1851.874390 2391.202148,1890.846436 
	C2391.270996,1900.458252 2391.714111,1910.081787 2392.399414,1919.670166 
	C2392.914551,1926.875488 2392.866699,1934.467285 2395.221680,1941.125732 
	C2400.818359,1956.949463 2406.266846,1973.026611 2416.315918,1986.801270 
	C2420.760498,1992.893921 2425.748047,1998.640259 2430.930176,2004.127075 
	C2434.278076,2007.671875 2438.448242,2010.434570 2442.205811,2013.600098 
	C2443.962891,2015.080200 2445.412354,2017.026855 2447.348877,2018.175781 
	C2458.681641,2024.898804 2469.953369,2031.833008 2482.941406,2035.030151 
	C2492.533203,2037.391113 2502.088623,2040.264893 2511.838867,2041.499634 
	C2519.662109,2042.490479 2527.775146,2040.900269 2535.720947,2041.275269 
	C2551.050781,2041.998657 2565.019775,2037.658936 2579.939697,2030.385498 
M2145.053467,2043.349243 
	C2158.503418,2042.354370 2171.995361,2041.740967 2185.393799,2040.274902 
	C2205.298340,2038.096680 2223.979736,2031.760864 2242.189697,2023.392822 
	C2257.304688,2016.446777 2270.698242,2007.215210 2283.909668,1997.316895 
	C2296.430176,1987.936157 2306.604004,1976.251099 2315.055176,1963.671875 
	C2327.538330,1945.091919 2339.388672,1925.932129 2347.409180,1904.694336 
	C2353.626709,1888.231201 2357.554688,1871.363892 2357.946045,1853.893188 
	C2358.418701,1832.782837 2358.073486,1811.826050 2353.474609,1790.806030 
	C2350.091553,1775.343994 2346.339600,1760.386353 2340.111084,1745.803833 
	C2331.584961,1725.840942 2318.794434,1708.713623 2305.803467,1691.767334 
	C2297.728271,1681.233398 2286.362793,1673.970947 2275.653076,1666.130493 
	C2254.043457,1650.311035 2229.804443,1639.748779 2204.788330,1631.229004 
	C2191.740723,1626.785400 2177.665527,1625.099731 2163.927490,1623.000610 
	C2141.808105,1619.620605 2119.825684,1621.695435 2098.087646,1626.492554 
	C2088.786133,1628.545288 2080.196045,1632.935791 2071.268066,1635.828369 
	C2059.204834,1639.736572 2050.262939,1647.723145 2038.720093,1653.501953 
	C2054.625977,1679.528320 2069.842041,1704.425659 2085.052490,1729.313965 
	C2095.567871,1725.488159 2105.129639,1720.971313 2115.194580,1718.536377 
	C2149.425293,1710.255127 2181.734131,1715.430054 2211.984131,1733.775269 
	C2233.275391,1746.687500 2248.482666,1765.013062 2259.142334,1787.010620 
	C2263.522705,1796.049927 2266.769287,1806.165894 2267.963135,1816.100708 
	C2269.856445,1831.855469 2267.815674,1847.704956 2262.931885,1862.936157 
	C2251.782471,1897.708496 2229.529785,1923.039429 2196.836182,1939.053955 
	C2186.513184,1944.110474 2175.527100,1947.120728 2164.020752,1949.094238 
	C2150.036865,1951.492554 2136.280518,1950.773804 2122.418213,1949.672729 
	C2117.571045,1949.287720 2112.643555,1948.462646 2108.024414,1946.987915 
	C2100.618652,1944.623047 2093.438965,1941.549316 2085.447998,1938.502441 
	C2070.916016,1963.778442 2056.362061,1989.093018 2041.693481,2014.606445 
	C2047.423706,2019.840576 2054.317139,2021.067505 2060.416992,2023.986572 
	C2071.174316,2029.134521 2082.149414,2033.143311 2093.540039,2036.306885 
	C2109.759277,2040.811890 2126.199951,2043.854492 2145.053467,2043.349243 
M2897.819336,1955.336060 
	C2894.716797,1954.275513 2891.672363,1952.980835 2888.501709,1952.194214 
	C2873.810547,1948.549072 2864.650391,1938.770874 2862.060303,1924.550415 
	C2859.711182,1911.654419 2859.839355,1898.270142 2859.343262,1885.083496 
	C2858.767578,1869.783203 2858.749023,1854.462524 2858.394287,1839.152954 
	C2858.225342,1831.859009 2857.469727,1824.561768 2857.633057,1817.280762 
	C2857.901123,1805.318481 2858.839844,1793.372437 2859.226562,1781.410889 
	C2859.484863,1773.423950 2859.181152,1765.420410 2859.301758,1757.427002 
	C2859.439209,1748.324341 2861.255859,1746.264526 2870.274658,1745.562500 
	C2875.242920,1745.175781 2880.263184,1745.444702 2885.260010,1745.442139 
	C2899.822998,1745.434814 2914.385986,1745.439697 2930.312256,1745.439697 
	C2930.617432,1713.629761 2930.928955,1681.164185 2931.244141,1648.288818 
	C2927.328369,1648.054688 2924.714844,1647.769165 2922.100586,1647.763062 
	C2903.782227,1647.720703 2885.463623,1647.817749 2867.145996,1647.696411 
	C2858.661621,1647.640137 2857.376953,1646.328979 2857.161621,1637.813110 
	C2856.959473,1629.822632 2856.908203,1621.819458 2857.105225,1613.829590 
	C2857.539307,1596.222290 2858.279785,1578.621826 2858.628662,1561.013306 
	C2858.695801,1557.635620 2857.542480,1554.233887 2857.175049,1552.123169 
	C2827.556152,1552.123169 2799.452637,1552.123169 2770.828613,1552.123169 
	C2770.828613,1569.087402 2770.862061,1584.721558 2770.816650,1600.355591 
	C2770.787354,1610.501465 2771.239746,1620.451416 2768.395264,1630.656250 
	C2764.300293,1645.346069 2752.811523,1656.473511 2737.549561,1656.989380 
	C2730.013428,1657.244141 2722.461670,1657.033569 2714.055664,1657.033569 
	C2713.544189,1686.433350 2713.026367,1716.190552 2712.509033,1745.937866 
	C2731.690186,1745.937866 2749.433105,1745.937866 2767.820557,1745.937866 
	C2768.352539,1750.869507 2769.127441,1755.097534 2769.204346,1759.338257 
	C2769.403320,1770.328247 2769.178467,1781.325439 2769.329102,1792.316895 
	C2769.903564,1834.266235 2771.052490,1876.216553 2770.875244,1918.161865 
	C2770.823975,1930.262451 2773.608398,1941.747803 2774.942627,1953.482666 
	C2776.288574,1965.321411 2781.679688,1976.307373 2787.895020,1986.847168 
	C2796.548828,2001.522339 2808.998047,2012.365845 2822.728027,2021.218384 
	C2833.142334,2027.933105 2844.444824,2034.238037 2857.294922,2036.188232 
	C2863.773193,2037.171631 2870.224121,2038.382812 2876.640137,2039.717163 
	C2887.083252,2041.888794 2897.468262,2043.186768 2907.913574,2039.687744 
	C2909.755859,2039.070557 2911.835693,2038.752686 2913.765625,2038.884399 
	C2919.354492,2039.265381 2924.058350,2037.357788 2928.145752,2034.595825 
	C2927.236328,2029.493896 2925.775879,2024.988281 2925.752686,2020.475342 
	C2925.683838,2007.162476 2926.251953,1993.847900 2926.437744,1980.531982 
	C2926.562744,1971.585205 2926.461670,1962.635010 2926.461670,1952.386108 
	C2920.559814,1952.882202 2915.395752,1953.230957 2910.252930,1953.778198 
	C2906.651611,1954.161255 2903.079346,1954.815308 2897.819336,1955.336060 
M1611.901855,1727.836548 
	C1611.901855,1702.536499 1611.901855,1677.236328 1611.901855,1651.374512 
	C1608.644165,1650.085815 1605.715088,1648.650024 1602.629395,1647.754272 
	C1589.266113,1643.875977 1575.695068,1641.702026 1561.679443,1642.184570 
	C1549.695190,1642.597412 1537.369263,1640.606201 1525.763794,1642.754272 
	C1508.118774,1646.020264 1490.551514,1650.919067 1474.598633,1659.627075 
	C1465.682251,1664.494507 1457.210938,1670.313354 1449.042969,1676.381836 
	C1438.238281,1684.409180 1426.996704,1692.192383 1417.659180,1701.756348 
	C1407.837036,1711.816650 1399.136963,1723.283325 1391.614502,1735.189453 
	C1384.280518,1746.796753 1378.343140,1759.445312 1373.133179,1772.185059 
	C1369.076294,1782.105713 1366.453979,1792.743774 1364.350708,1803.293579 
	C1362.489624,1812.628174 1361.921509,1822.261963 1361.323730,1831.797607 
	C1360.347412,1847.371704 1363.123657,1862.486816 1365.952637,1877.828125 
	C1368.975708,1894.222046 1374.522705,1909.399658 1381.019409,1924.443237 
	C1388.181030,1941.026611 1400.508911,1954.156860 1411.658447,1967.866455 
	C1425.515503,1984.905884 1443.094238,1998.091919 1462.057861,2009.145020 
	C1488.501221,2024.558228 1517.211792,2034.455200 1547.460571,2037.449585 
	C1567.636475,2039.446655 1588.441284,2039.986572 1609.425171,2034.035522 
	C1609.298706,2005.655151 1609.958130,1977.232910 1609.017578,1948.540039 
	C1604.540649,1948.540039 1601.221313,1948.278687 1597.959839,1948.601074 
	C1593.086060,1949.082642 1588.265259,1950.467163 1583.399780,1950.590088 
	C1573.504028,1950.840088 1563.706177,1950.722412 1553.829468,1948.395630 
	C1537.514282,1944.552246 1521.156860,1941.445801 1506.959106,1931.619385 
	C1497.769775,1925.259521 1489.491699,1918.440918 1481.954224,1909.826172 
	C1463.884277,1889.173706 1456.731934,1864.922485 1453.799561,1838.666748 
	C1453.615967,1837.022827 1453.555786,1835.289551 1453.862793,1833.678833 
	C1455.511475,1825.030029 1457.063232,1816.352661 1459.076416,1807.785767 
	C1464.459717,1784.879517 1475.306519,1765.689453 1495.563843,1752.304321 
	C1515.355103,1739.227051 1536.413574,1731.335327 1560.455078,1731.996582 
	C1576.506104,1732.437988 1592.715210,1730.694092 1607.908081,1737.809692 
	C1609.532227,1734.336548 1610.648926,1731.948242 1611.901855,1727.836548 
M574.992676,1745.650146 
	C579.204224,1743.091309 583.115906,1739.547729 587.683167,1738.156860 
	C601.891541,1733.830078 615.888428,1728.068848 631.511475,1731.847656 
	C637.441956,1733.282104 643.956970,1731.485107 649.977966,1734.480957 
	C651.839294,1735.407104 654.822937,1734.077393 657.579529,1733.746094 
	C657.579529,1723.119019 657.306641,1713.454102 657.638672,1703.810059 
	C658.253357,1685.955078 659.424011,1668.118530 659.959473,1650.262085 
	C660.235229,1641.064331 658.803711,1639.741699 649.629028,1639.871582 
	C636.087952,1640.063354 622.602966,1639.283447 609.029907,1641.986816 
	C595.147522,1644.751709 581.339539,1647.249023 568.577698,1653.577515 
	C563.832825,1655.930420 559.461426,1659.028198 554.766357,1661.494263 
	C552.909790,1662.469604 550.635925,1662.650391 548.851257,1663.114990 
	C547.950500,1661.798096 547.293335,1661.273926 547.252380,1660.705322 
	C547.013428,1657.389771 546.985657,1654.059082 546.761597,1650.742065 
	C546.330872,1644.363281 544.634338,1642.375610 538.250000,1642.336792 
	C513.919128,1642.189209 489.586151,1642.185181 465.255371,1642.344849 
	C459.007965,1642.385864 457.299652,1644.491455 456.855072,1650.920410 
	C456.763275,1652.247681 456.827576,1653.586060 456.827576,1654.919312 
	C456.826569,1778.245117 456.822235,1901.570801 456.848999,2024.896606 
	C456.849701,2028.114380 457.190765,2031.332153 457.363281,2034.376709 
	C459.231659,2034.870972 460.170105,2035.334229 461.109741,2035.336548 
	C487.440613,2035.404297 513.771973,2035.512329 540.102356,2035.399902 
	C547.762024,2035.367188 549.719055,2033.294434 549.435791,2024.729370 
	C547.997803,1981.248413 552.841248,1937.640015 546.800842,1894.256226 
	C548.281311,1861.450195 544.249146,1828.569946 549.241455,1795.755249 
	C552.194580,1776.344482 559.336365,1759.755737 574.992676,1745.650146 
z"/>
<path fill="#2176FE" opacity="1.000000" stroke="none" 
	d="
M1701.641357,1854.000000 
	C1701.641357,1839.337402 1700.539917,1825.566162 1701.874390,1812.035156 
	C1704.520752,1785.200928 1705.964111,1758.189941 1703.701050,1731.538086 
	C1699.833374,1685.991089 1702.639526,1640.505493 1701.843384,1595.009521 
	C1701.531616,1577.195190 1704.574341,1558.925415 1713.170776,1543.536377 
	C1726.412964,1519.830688 1744.593262,1500.439941 1772.093018,1491.796753 
	C1787.186157,1487.052734 1802.307129,1483.438110 1817.980713,1481.398071 
	C1827.656738,1480.138672 1837.080933,1477.011963 1846.657471,1474.902100 
	C1853.892578,1473.308105 1861.189941,1471.996338 1868.962769,1470.459473 
	C1868.649780,1473.372681 1868.455078,1475.185181 1868.251831,1477.076538 
	C1869.197021,1477.076538 1869.923584,1477.308350 1870.287964,1477.042847 
	C1880.723999,1469.442505 1887.062378,1458.516479 1893.648804,1447.850220 
	C1903.005005,1432.698242 1911.075684,1416.890137 1916.295898,1399.791504 
	C1921.262207,1383.524780 1925.390869,1366.976196 1930.984497,1350.933960 
	C1937.260620,1332.934204 1943.402344,1314.628296 1954.377563,1298.826294 
	C1964.494019,1284.260864 1975.641479,1270.390137 1986.762329,1256.557251 
	C1989.990234,1252.542114 1994.566040,1249.548584 1998.734985,1246.362793 
	C2015.463257,1233.580566 2031.915283,1219.624634 2052.483887,1214.039917 
	C2069.027344,1209.548096 2085.750244,1210.756348 2099.667969,1224.038330 
	C2108.693359,1232.651001 2109.349854,1242.935303 2106.924805,1253.388306 
	C2103.596680,1267.734863 2095.022217,1279.845947 2085.771729,1290.949097 
	C2069.837402,1310.074463 2055.729980,1330.293335 2045.500732,1352.981689 
	C2042.443359,1359.763306 2041.100464,1367.367676 2039.379517,1374.690796 
	C2036.615723,1386.450806 2034.147217,1398.281372 2031.667236,1410.105957 
	C2031.262817,1412.034424 2031.606812,1414.109131 2031.319336,1416.074585 
	C2029.895508,1425.809692 2028.439331,1435.541016 2026.866577,1445.253052 
	C2025.871826,1451.395020 2024.474487,1457.474731 2023.579590,1463.629150 
	C2022.446289,1471.422241 2021.823975,1479.290894 2020.645264,1487.075928 
	C2019.177246,1496.772461 2017.286377,1506.404419 2015.756714,1516.092407 
	C2015.344849,1518.700684 2015.528076,1521.411377 2015.526978,1524.074951 
	C2015.514648,1556.065430 2015.453857,1588.056030 2015.565674,1620.046143 
	C2015.592407,1627.684082 2015.536621,1635.224243 2012.708374,1642.475708 
	C2006.712524,1657.848511 2001.477905,1673.676880 1986.371826,1685.143311 
	C1980.049194,1680.835938 1973.856323,1676.131348 1967.212402,1672.186035 
	C1950.444336,1662.228882 1933.026733,1653.916992 1912.994995,1653.064453 
	C1911.077759,1652.982910 1909.113647,1652.392334 1907.304321,1651.693604 
	C1901.812378,1649.572754 1896.461792,1649.364746 1890.993896,1651.879028 
	C1889.251099,1652.680298 1887.168335,1653.039185 1885.231323,1653.075806 
	C1863.676880,1653.483276 1845.038574,1662.404297 1825.991699,1673.174805 
	C1825.754517,1670.140259 1825.352539,1667.326172 1825.343994,1664.510742 
	C1825.286865,1645.849854 1825.277588,1627.188599 1825.339355,1608.527710 
	C1825.355103,1603.774048 1825.687378,1598.424561 1821.078491,1595.979126 
	C1815.708252,1593.129517 1810.819458,1596.719971 1806.485352,1599.748413 
	C1797.439819,1606.068848 1797.196045,1616.351196 1796.612671,1625.645508 
	C1795.701416,1640.162476 1797.089355,1654.690430 1798.459106,1669.254395 
	C1799.710327,1682.560303 1797.759521,1696.214478 1796.674072,1709.671265 
	C1796.197388,1715.578491 1796.311523,1718.446045 1800.633789,1723.545654 
	C1805.890137,1719.276855 1811.159302,1714.966919 1816.461182,1710.697632 
	C1832.334351,1697.915894 1850.028564,1688.737671 1870.028442,1684.509644 
	C1876.743774,1683.090088 1883.679443,1682.630615 1890.538574,1681.992920 
	C1901.269897,1680.995117 1911.446899,1683.605835 1921.502808,1687.035522 
	C1939.192505,1693.068604 1955.468994,1701.533081 1968.270508,1715.424316 
	C1980.711548,1728.924194 1989.856567,1744.346558 1994.317383,1762.433594 
	C1996.913940,1772.962524 1998.448242,1783.557251 1999.977417,1794.286743 
	C2004.231812,1824.138306 2001.144531,1854.012207 2002.015991,1883.849121 
	C2002.570190,1902.827148 2002.420044,1921.841064 2002.016724,1940.826782 
	C2001.735352,1954.079102 1998.336548,1967.631104 2000.243896,1980.467529 
	C2002.422485,1995.128662 2001.232422,2009.577393 2002.113281,2024.084473 
	C2002.153564,2024.748413 2002.140381,2025.417969 2002.111938,2026.083374 
	C2001.779419,2033.878540 2000.470825,2035.343262 1992.557861,2035.417969 
	C1977.896973,2035.556274 1963.233643,2035.458984 1948.571411,2035.459595 
	C1938.907593,2035.459961 1929.243652,2035.502197 1919.580200,2035.433716 
	C1916.669678,2035.413208 1913.761230,2035.084717 1909.865601,2034.833862 
	C1909.865601,2030.628174 1909.865479,2027.046753 1909.865479,2023.465332 
	C1909.865356,1955.152466 1910.146118,1886.837402 1909.634521,1818.528320 
	C1909.528931,1804.432251 1907.188965,1790.071533 1894.000854,1780.800903 
	C1887.215942,1776.031250 1880.321167,1772.574219 1871.616089,1771.389404 
	C1851.434692,1768.642700 1834.294312,1775.444092 1818.279175,1786.122437 
	C1811.113647,1790.900146 1807.079102,1798.519287 1803.779541,1806.729248 
	C1800.212036,1815.605347 1799.218140,1824.450806 1799.239502,1833.817383 
	C1799.380615,1895.465332 1799.312256,1957.113770 1799.312134,2018.761963 
	C1799.312012,2021.094604 1799.384155,2023.430054 1799.294800,2025.759399 
	C1798.999878,2033.452393 1797.380127,2035.139160 1789.900269,2035.436890 
	C1786.905762,2035.556030 1783.902832,2035.459595 1780.903687,2035.459595 
	C1757.910522,2035.459717 1734.917480,2035.480103 1711.924316,2035.435669 
	C1708.746582,2035.429565 1705.569336,2035.101807 1703.044678,2034.959717 
	C1703.444092,2026.441650 1704.018799,2018.966064 1704.098145,2011.485352 
	C1704.257080,1996.491577 1705.113647,1981.419434 1703.954468,1966.514160 
	C1701.065430,1929.361816 1701.721680,1892.183350 1701.641357,1854.000000 
z"/>
<path fill="#2176FE" opacity="1.000000" stroke="none" 
	d="
M1419.797729,1388.083130 
	C1425.139404,1395.244507 1429.294312,1402.546631 1434.995972,1408.321411 
	C1446.399048,1419.870605 1458.186523,1431.143188 1470.683960,1441.479736 
	C1482.546631,1451.291138 1495.519653,1459.759888 1508.002808,1468.821289 
	C1514.663086,1473.655884 1521.308350,1478.511230 1527.981934,1483.327515 
	C1533.776001,1487.509033 1540.292114,1489.185913 1547.408081,1489.344360 
	C1556.309326,1489.542358 1561.631836,1484.937500 1566.375610,1477.847778 
	C1573.163940,1467.702148 1570.900635,1458.422119 1566.371216,1448.418457 
	C1560.470093,1435.385620 1551.816528,1424.191528 1544.024536,1412.385376 
	C1531.886230,1393.994141 1519.993408,1375.521606 1513.690186,1353.950439 
	C1508.828369,1337.312012 1502.357056,1321.151001 1496.973511,1304.656250 
	C1491.079224,1286.596191 1485.658325,1268.382324 1479.911133,1250.273438 
	C1479.020020,1247.465454 1477.589355,1244.809082 1476.237671,1242.169922 
	C1462.856812,1216.048096 1452.487061,1188.670532 1443.700439,1160.765259 
	C1440.290283,1149.934570 1439.396362,1138.246460 1437.988647,1126.870605 
	C1436.804932,1117.305054 1439.886108,1108.294312 1445.350586,1100.703369 
	C1450.248779,1093.899048 1456.006836,1087.171265 1466.131714,1088.434326 
	C1468.757324,1088.761841 1471.485474,1088.730469 1474.120605,1088.443237 
	C1490.891235,1086.614624 1501.503418,1096.682251 1510.986084,1108.092651 
	C1515.763550,1113.841064 1519.189819,1120.733154 1523.071045,1127.201782 
	C1535.936279,1148.642822 1545.115234,1171.533203 1551.730347,1195.696289 
	C1556.650513,1213.668457 1563.550415,1231.098389 1569.561646,1248.772217 
	C1577.505737,1272.129028 1591.852661,1291.904297 1604.824219,1312.495728 
	C1611.449219,1323.012207 1616.880493,1334.284546 1622.771851,1345.257935 
	C1631.471313,1361.461670 1640.071167,1377.718628 1648.767700,1393.923950 
	C1655.687622,1406.819092 1666.476807,1412.031494 1680.955200,1410.263184 
	C1691.195923,1409.012695 1697.086548,1401.704102 1696.886475,1391.333496 
	C1696.622803,1377.672363 1692.603271,1364.872314 1689.353271,1351.829224 
	C1687.537231,1344.541382 1686.839233,1336.965942 1685.783325,1329.499512 
	C1684.042358,1317.188354 1682.382446,1304.865112 1680.776611,1292.535400 
	C1680.434692,1289.909668 1680.362915,1287.235107 1680.350952,1284.582153 
	C1680.304321,1274.249756 1680.604858,1263.908203 1680.273438,1253.586182 
	C1679.635376,1233.717285 1679.379028,1213.793335 1677.580444,1194.018066 
	C1676.222656,1179.090454 1672.709229,1164.358765 1670.163696,1149.538574 
	C1670.051270,1148.884399 1670.012817,1148.216553 1669.957886,1147.553711 
	C1669.006470,1136.082397 1668.914673,1124.451782 1666.822632,1113.192627 
	C1665.297974,1104.987549 1663.634888,1096.858887 1664.583252,1088.670532 
	C1666.540527,1071.769287 1668.011719,1054.730591 1677.312866,1039.569824 
	C1684.472900,1027.898926 1694.301025,1020.059631 1707.589233,1017.661316 
	C1716.779907,1016.002563 1725.043579,1020.208862 1732.253540,1025.777588 
	C1743.774658,1034.676147 1749.634399,1046.668335 1751.907959,1060.995239 
	C1754.485474,1077.237915 1756.958984,1093.380371 1757.353149,1109.919189 
	C1757.640869,1121.999634 1760.252319,1134.024658 1761.829102,1146.074341 
	C1761.915527,1146.734009 1762.048462,1147.389771 1762.098511,1148.051758 
	C1763.067993,1160.855713 1763.878784,1173.673828 1765.049438,1186.459229 
	C1765.707642,1193.646973 1766.717407,1200.824097 1768.006348,1207.926514 
	C1769.344849,1215.300903 1771.238159,1222.573608 1772.840210,1229.901245 
	C1775.355713,1241.405640 1777.887817,1252.906860 1780.304321,1264.432251 
	C1782.259155,1273.754272 1784.122437,1283.096924 1785.904663,1292.453491 
	C1789.332153,1310.447021 1793.252686,1328.373413 1795.867310,1346.486572 
	C1797.963745,1361.011108 1802.366943,1374.550903 1809.083496,1387.417480 
	C1818.245483,1404.968506 1829.918823,1420.278076 1848.136597,1429.468994 
	C1849.325928,1430.068848 1850.432861,1430.831909 1852.077148,1431.818604 
	C1843.165771,1438.879639 1833.403198,1439.316406 1824.534058,1441.838989 
	C1801.266479,1448.456665 1777.428833,1453.269653 1754.539185,1460.950195 
	C1737.978638,1466.506958 1723.372803,1476.390015 1710.542480,1488.997314 
	C1691.745605,1507.467896 1681.153076,1530.256226 1673.317505,1554.631470 
	C1671.045654,1561.698730 1671.470703,1569.586304 1669.833862,1576.913574 
	C1665.868774,1594.662964 1668.184204,1612.626587 1667.340332,1630.474121 
	C1667.295410,1631.421021 1666.794434,1632.346436 1666.445679,1633.476685 
	C1661.093750,1635.238403 1656.251221,1634.041260 1651.163940,1631.930420 
	C1632.963135,1624.378174 1614.617432,1617.175415 1596.334351,1609.820801 
	C1595.424194,1609.454712 1594.615845,1608.562988 1593.713867,1608.490234 
	C1581.219727,1607.481812 1568.552124,1604.862671 1556.256714,1606.050537 
	C1538.721191,1607.744629 1520.913452,1609.438721 1504.104858,1615.746948 
	C1502.957520,1616.177368 1501.508179,1615.803223 1499.934448,1615.803223 
	C1497.735107,1609.886230 1495.120972,1604.234009 1493.545410,1598.305542 
	C1490.895630,1588.335327 1485.122437,1580.490234 1478.139893,1573.313354 
	C1473.725220,1568.775879 1469.331543,1564.206299 1464.709961,1559.884644 
	C1452.618896,1548.578613 1440.926147,1536.763794 1428.109131,1526.338745 
	C1413.218018,1514.226562 1399.724243,1500.697632 1386.704956,1486.810059 
	C1367.944824,1466.798340 1352.359009,1444.393188 1340.411255,1419.445801 
	C1333.173950,1404.334351 1324.517944,1389.883179 1316.099243,1375.367432 
	C1313.146973,1370.277100 1308.977051,1365.896973 1305.404907,1361.161133 
	C1298.259766,1351.688110 1291.667725,1341.886353 1288.333984,1330.321289 
	C1286.977051,1325.614746 1285.271606,1320.865234 1284.901123,1316.044800 
	C1283.776001,1301.408813 1293.049194,1286.658203 1309.953247,1284.229492 
	C1318.856201,1282.950562 1328.618530,1281.730469 1337.403931,1286.118774 
	C1342.904785,1288.866455 1348.719971,1291.527710 1353.281982,1295.503906 
	C1364.006226,1304.850830 1372.285156,1316.406616 1380.910767,1327.709106 
	C1395.361328,1346.644775 1406.838867,1367.385742 1419.797729,1388.083130 
z"/>
<path fill="#2176FE" opacity="1.000000" stroke="none" 
	d="
M713.960693,1963.924805 
	C709.319031,1956.698853 705.291809,1949.911499 700.954285,1943.328613 
	C689.020081,1925.216431 681.713196,1905.406372 678.282104,1884.023804 
	C677.253235,1877.611694 675.045959,1871.396851 673.706909,1865.022583 
	C673.099731,1862.132202 673.194885,1859.075195 673.146240,1856.090942 
	C673.064941,1851.094727 673.117065,1846.096069 673.124756,1841.098511 
	C673.183716,1802.694702 683.353638,1766.950317 702.694885,1734.000610 
	C708.632568,1723.885132 716.317261,1714.520142 724.493286,1706.059204 
	C736.211365,1693.932983 748.446838,1682.093384 761.732361,1671.766235 
	C771.518005,1664.159546 782.930359,1658.232178 794.361877,1653.270508 
	C806.316956,1648.081421 818.923462,1643.716187 831.681702,1641.237549 
	C845.468506,1638.559448 859.588989,1634.929688 873.786804,1637.180664 
	C894.112915,1640.403198 914.489807,1643.585815 933.869995,1651.198242 
	C950.596069,1657.768188 965.851746,1666.570557 979.440125,1678.333252 
	C983.903931,1682.197388 989.321533,1685.144897 993.156372,1689.517334 
	C1007.741272,1706.145996 1021.901306,1723.099243 1030.114258,1744.146118 
	C1034.212402,1754.648315 1031.096924,1763.902832 1020.214294,1771.088623 
	C986.729553,1793.198608 953.336304,1815.447510 919.820251,1837.509766 
	C892.889343,1855.237305 865.809021,1872.737793 838.840515,1890.408447 
	C827.564941,1897.796753 816.378113,1905.322388 805.229065,1912.900513 
	C803.644226,1913.977661 802.502991,1915.707397 800.592590,1917.733032 
	C813.712097,1933.573486 828.710693,1945.575317 849.689209,1948.251587 
	C855.868225,1949.039917 862.123718,1951.028687 868.194580,1950.554077 
	C894.551147,1948.493286 919.443054,1941.946777 939.425842,1923.211792 
	C942.645996,1920.192871 945.886597,1919.058472 950.113403,1919.089966 
	C966.771240,1919.214233 983.430847,1919.082153 1000.089172,1919.162720 
	C1009.425903,1919.207886 1009.279541,1920.484253 1011.091858,1929.269165 
	C1013.741089,1942.110107 1010.983643,1955.502441 1014.104309,1967.645264 
	C1017.983887,1982.740723 1009.113159,1988.710571 1000.072815,1995.795288 
	C994.375549,2000.260376 988.647949,2004.746582 982.565430,2008.649048 
	C963.034912,2021.179810 942.022522,2030.667480 919.819580,2037.291260 
	C896.707886,2044.186157 872.611511,2045.912109 849.116150,2042.824585 
	C817.671021,2038.692627 787.917603,2027.870605 761.717102,2009.150269 
	C755.564209,2004.754150 750.148804,1999.333252 744.320557,1994.472168 
	C741.301086,1991.953735 738.038757,1989.725342 735.037476,1987.186890 
	C732.504578,1985.044556 730.005615,1982.806641 727.816895,1980.324219 
	C723.241943,1975.135376 718.881836,1969.757202 713.960693,1963.924805 
M803.868408,1760.846558 
	C775.957581,1786.395386 770.749329,1818.942139 774.335144,1855.682251 
	C776.596252,1853.864136 777.752075,1852.761597 779.067261,1851.903320 
	C796.392761,1840.598389 813.901184,1829.565063 831.038452,1817.982544 
	C848.708008,1806.040161 865.970032,1793.496338 883.511047,1781.361328 
	C893.772461,1774.262451 904.292175,1767.536987 914.552429,1760.436401 
	C916.813293,1758.871704 918.467896,1756.430908 920.814697,1753.958374 
	C917.009338,1751.251465 914.254639,1748.932861 911.181641,1747.168701 
	C898.548401,1739.916382 885.864624,1733.181152 870.392456,1734.258057 
	C862.508728,1734.806763 854.814758,1735.129517 847.041077,1737.218750 
	C831.114563,1741.499146 816.885620,1748.487183 803.868408,1760.846558 
z"/>
<path fill="#2276FD" opacity="1.000000" stroke="none" 
	d="
M1071.883301,1996.005127 
	C1058.745605,1979.440796 1049.845337,1961.347412 1044.083008,1941.904175 
	C1041.786621,1934.155640 1041.929688,1925.631104 1041.393921,1917.431763 
	C1041.026123,1911.803467 1041.273804,1906.121948 1041.468994,1900.472046 
	C1042.330078,1875.547729 1048.781372,1852.627441 1065.535767,1833.365112 
	C1069.391602,1828.932251 1072.436768,1823.731201 1076.594727,1819.634521 
	C1098.193970,1798.353394 1124.653076,1786.068359 1154.205078,1781.586914 
	C1167.409424,1779.584473 1181.005005,1778.973022 1194.873169,1780.675537 
	C1212.735474,1782.868652 1229.790527,1786.450439 1246.173706,1793.731323 
	C1248.355591,1794.700928 1251.034790,1794.551270 1254.201782,1795.027954 
	C1252.880615,1780.501221 1252.100464,1767.093384 1250.341309,1753.815186 
	C1248.186523,1737.551147 1238.824097,1727.968628 1222.878540,1725.457520 
	C1212.088867,1723.758301 1201.210205,1722.995117 1190.798340,1728.069824 
	C1178.460938,1734.082886 1166.388672,1729.560669 1154.395264,1726.494873 
	C1145.814575,1724.301392 1137.494385,1724.755493 1128.800415,1726.346558 
	C1115.335083,1728.810425 1102.667725,1733.219849 1090.230225,1738.718140 
	C1081.522827,1742.567383 1077.734863,1740.479248 1076.823242,1731.158569 
	C1075.986694,1722.604614 1076.153931,1713.957031 1075.524780,1705.376709 
	C1075.067627,1699.140137 1074.005615,1692.949097 1073.273804,1686.730713 
	C1073.047852,1684.809204 1073.020630,1682.864258 1072.861938,1680.270142 
	C1077.400024,1679.528931 1081.551270,1678.278931 1085.703369,1678.276245 
	C1100.261719,1678.266602 1112.520020,1671.617432 1124.778687,1665.125488 
	C1139.068604,1657.557617 1153.582397,1650.708984 1169.425903,1647.000000 
	C1185.223389,1643.301636 1201.171875,1641.471680 1217.417358,1642.243530 
	C1245.148560,1643.561279 1270.510864,1650.661377 1293.917725,1666.867798 
	C1316.767090,1682.688354 1328.238647,1704.649902 1335.136108,1730.005493 
	C1339.314575,1745.365967 1340.305298,1761.253662 1340.296387,1777.185303 
	C1340.251587,1857.164062 1340.275757,1937.142700 1340.275757,2017.121460 
	C1340.275757,2022.069336 1340.275635,2027.017212 1340.275635,2032.354004 
	C1313.152222,2035.495239 1287.193848,2037.273438 1260.751831,2032.589233 
	C1259.982178,2029.520508 1259.050415,2025.805420 1257.989868,2021.577271 
	C1255.716797,2022.190063 1253.661011,2022.316162 1252.066528,2023.239014 
	C1233.463379,2034.006714 1213.148193,2040.135498 1192.148804,2042.977417 
	C1178.784302,2044.786255 1165.103882,2043.510376 1151.536865,2040.850220 
	C1127.574341,2036.151978 1106.297974,2026.192993 1087.370972,2011.087646 
	C1081.951660,2006.762573 1077.373047,2001.384033 1071.883301,1996.005127 
M1165.123779,1857.830811 
	C1128.278931,1868.518921 1121.634644,1904.433105 1134.852661,1928.901367 
	C1145.582031,1948.762817 1164.762085,1956.402954 1186.110107,1958.041626 
	C1205.374512,1959.520508 1223.379517,1953.616211 1240.542480,1945.188599 
	C1245.400757,1942.803101 1247.999268,1939.162842 1247.932617,1933.331665 
	C1247.745972,1917.018311 1247.835571,1900.697998 1248.120850,1884.385742 
	C1248.199951,1879.868286 1246.377808,1876.748169 1243.161011,1874.099365 
	C1234.631836,1867.076172 1224.939697,1861.935913 1214.485474,1858.786499 
	C1198.784790,1854.056641 1182.758667,1851.937744 1165.123779,1857.830811 
z"/>
<path fill="#2276FD" opacity="1.000000" stroke="none" 
	d="
M2579.230957,2030.721924 
	C2565.019775,2037.658936 2551.050781,2041.998657 2535.720947,2041.275269 
	C2527.775146,2040.900269 2519.662109,2042.490479 2511.838867,2041.499634 
	C2502.088623,2040.264893 2492.533203,2037.391113 2482.941406,2035.030151 
	C2469.953369,2031.833008 2458.681641,2024.898804 2447.348877,2018.175781 
	C2445.412354,2017.026855 2443.962891,2015.080200 2442.205811,2013.600098 
	C2438.448242,2010.434570 2434.278076,2007.671875 2430.930176,2004.127075 
	C2425.748047,1998.640259 2420.760498,1992.893921 2416.315918,1986.801270 
	C2406.266846,1973.026611 2400.818359,1956.949463 2395.221680,1941.125732 
	C2392.866699,1934.467285 2392.914551,1926.875488 2392.399414,1919.670166 
	C2391.714111,1910.081787 2391.270996,1900.458252 2391.202148,1890.846436 
	C2390.923584,1851.874390 2390.758545,1812.901001 2390.684082,1773.927979 
	C2390.602051,1730.966553 2390.665527,1688.005005 2390.665527,1644.214355 
	C2410.536621,1644.214355 2429.640137,1644.214355 2448.743408,1644.214355 
	C2459.060303,1644.214355 2469.377441,1644.214355 2480.563477,1644.214355 
	C2480.563477,1648.220093 2480.534912,1652.161011 2480.567627,1656.101318 
	C2480.792725,1683.091797 2481.325195,1710.083862 2481.174316,1737.072144 
	C2481.046143,1760.000000 2479.684326,1782.923340 2479.683838,1805.848755 
	C2479.683350,1834.119019 2480.537109,1862.389038 2480.993896,1890.659668 
	C2481.063721,1894.989746 2481.134521,1899.328979 2480.942139,1903.652344 
	C2480.247803,1919.265259 2486.683838,1931.164795 2498.393066,1941.359375 
	C2516.051514,1956.733887 2536.688965,1958.158325 2557.948486,1954.614746 
	C2566.793945,1953.140137 2574.569824,1946.971191 2580.905029,1940.016724 
	C2590.357178,1929.641113 2594.311279,1917.171997 2597.021484,1903.509033 
	C2599.330078,1891.872070 2599.022217,1880.473755 2599.098145,1868.911133 
	C2599.397705,1823.262939 2599.865723,1777.615112 2599.978027,1731.966431 
	C2600.040283,1706.648804 2599.438477,1681.330078 2599.350586,1656.011230 
	C2599.336426,1651.920898 2600.443359,1647.826660 2601.010986,1643.878906 
	C2630.970947,1643.878906 2659.488281,1643.878906 2688.325195,1643.878906 
	C2688.325195,1773.644165 2688.325195,1902.782715 2688.325195,2032.519287 
	C2678.730469,2034.966431 2669.450195,2033.347412 2660.302002,2033.595947 
	C2651.310791,2033.839966 2642.308105,2033.678711 2633.310547,2033.685181 
	C2623.995605,2033.691895 2614.680664,2033.686523 2604.212891,2033.686523 
	C2602.447266,2030.455933 2600.282959,2026.496094 2597.813477,2021.977539 
	C2591.614502,2024.893555 2585.777100,2027.639526 2579.230957,2030.721924 
z"/>
<path fill="#2176FE" opacity="1.000000" stroke="none" 
	d="
M2144.085449,2043.508301 
	C2126.199951,2043.854492 2109.759277,2040.811890 2093.540039,2036.306885 
	C2082.149414,2033.143311 2071.174316,2029.134521 2060.416992,2023.986572 
	C2054.317139,2021.067505 2047.423706,2019.840576 2041.693481,2014.606445 
	C2056.362061,1989.093018 2070.916016,1963.778442 2085.447998,1938.502441 
	C2093.438965,1941.549316 2100.618652,1944.623047 2108.024414,1946.987915 
	C2112.643555,1948.462646 2117.571045,1949.287720 2122.418213,1949.672729 
	C2136.280518,1950.773804 2150.036865,1951.492554 2164.020752,1949.094238 
	C2175.527100,1947.120728 2186.513184,1944.110474 2196.836182,1939.053955 
	C2229.529785,1923.039429 2251.782471,1897.708496 2262.931885,1862.936157 
	C2267.815674,1847.704956 2269.856445,1831.855469 2267.963135,1816.100708 
	C2266.769287,1806.165894 2263.522705,1796.049927 2259.142334,1787.010620 
	C2248.482666,1765.013062 2233.275391,1746.687500 2211.984131,1733.775269 
	C2181.734131,1715.430054 2149.425293,1710.255127 2115.194580,1718.536377 
	C2105.129639,1720.971313 2095.567871,1725.488159 2085.052490,1729.313965 
	C2069.842041,1704.425659 2054.625977,1679.528320 2038.720093,1653.501953 
	C2050.262939,1647.723145 2059.204834,1639.736572 2071.268066,1635.828369 
	C2080.196045,1632.935791 2088.786133,1628.545288 2098.087646,1626.492554 
	C2119.825684,1621.695435 2141.808105,1619.620605 2163.927490,1623.000610 
	C2177.665527,1625.099731 2191.740723,1626.785400 2204.788330,1631.229004 
	C2229.804443,1639.748779 2254.043457,1650.311035 2275.653076,1666.130493 
	C2286.362793,1673.970947 2297.728271,1681.233398 2305.803467,1691.767334 
	C2318.794434,1708.713623 2331.584961,1725.840942 2340.111084,1745.803833 
	C2346.339600,1760.386353 2350.091553,1775.343994 2353.474609,1790.806030 
	C2358.073486,1811.826050 2358.418701,1832.782837 2357.946045,1853.893188 
	C2357.554688,1871.363892 2353.626709,1888.231201 2347.409180,1904.694336 
	C2339.388672,1925.932129 2327.538330,1945.091919 2315.055176,1963.671875 
	C2306.604004,1976.251099 2296.430176,1987.936157 2283.909668,1997.316895 
	C2270.698242,2007.215210 2257.304688,2016.446777 2242.189697,2023.392822 
	C2223.979736,2031.760864 2205.298340,2038.096680 2185.393799,2040.274902 
	C2171.995361,2041.740967 2158.503418,2042.354370 2144.085449,2043.508301 
z"/>
<path fill="#2277FD" opacity="1.000000" stroke="none" 
	d="
M2898.656738,1955.342285 
	C2903.079346,1954.815308 2906.651611,1954.161255 2910.252930,1953.778198 
	C2915.395752,1953.230957 2920.559814,1952.882202 2926.461670,1952.386108 
	C2926.461670,1962.635010 2926.562744,1971.585205 2926.437744,1980.531982 
	C2926.251953,1993.847900 2925.683838,2007.162476 2925.752686,2020.475342 
	C2925.775879,2024.988281 2927.236328,2029.493896 2928.145752,2034.595825 
	C2924.058350,2037.357788 2919.354492,2039.265381 2913.765625,2038.884399 
	C2911.835693,2038.752686 2909.755859,2039.070557 2907.913574,2039.687744 
	C2897.468262,2043.186768 2887.083252,2041.888794 2876.640137,2039.717163 
	C2870.224121,2038.382812 2863.773193,2037.171631 2857.294922,2036.188232 
	C2844.444824,2034.238037 2833.142334,2027.933105 2822.728027,2021.218384 
	C2808.998047,2012.365845 2796.548828,2001.522339 2787.895020,1986.847168 
	C2781.679688,1976.307373 2776.288574,1965.321411 2774.942627,1953.482666 
	C2773.608398,1941.747803 2770.823975,1930.262451 2770.875244,1918.161865 
	C2771.052490,1876.216553 2769.903564,1834.266235 2769.329102,1792.316895 
	C2769.178467,1781.325439 2769.403320,1770.328247 2769.204346,1759.338257 
	C2769.127441,1755.097534 2768.352539,1750.869507 2767.820557,1745.937866 
	C2749.433105,1745.937866 2731.690186,1745.937866 2712.509033,1745.937866 
	C2713.026367,1716.190552 2713.544189,1686.433350 2714.055664,1657.033569 
	C2722.461670,1657.033569 2730.013428,1657.244141 2737.549561,1656.989380 
	C2752.811523,1656.473511 2764.300293,1645.346069 2768.395264,1630.656250 
	C2771.239746,1620.451416 2770.787354,1610.501465 2770.816650,1600.355591 
	C2770.862061,1584.721558 2770.828613,1569.087402 2770.828613,1552.123169 
	C2799.452637,1552.123169 2827.556152,1552.123169 2857.175049,1552.123169 
	C2857.542480,1554.233887 2858.695801,1557.635620 2858.628662,1561.013306 
	C2858.279785,1578.621826 2857.539307,1596.222290 2857.105225,1613.829590 
	C2856.908203,1621.819458 2856.959473,1629.822632 2857.161621,1637.813110 
	C2857.376953,1646.328979 2858.661621,1647.640137 2867.145996,1647.696411 
	C2885.463623,1647.817749 2903.782227,1647.720703 2922.100586,1647.763062 
	C2924.714844,1647.769165 2927.328369,1648.054688 2931.244141,1648.288818 
	C2930.928955,1681.164185 2930.617432,1713.629761 2930.312256,1745.439697 
	C2914.385986,1745.439697 2899.822998,1745.434814 2885.260010,1745.442139 
	C2880.263184,1745.444702 2875.242920,1745.175781 2870.274658,1745.562500 
	C2861.255859,1746.264526 2859.439209,1748.324341 2859.301758,1757.427002 
	C2859.181152,1765.420410 2859.484863,1773.423950 2859.226562,1781.410889 
	C2858.839844,1793.372437 2857.901123,1805.318481 2857.633057,1817.280762 
	C2857.469727,1824.561768 2858.225342,1831.859009 2858.394287,1839.152954 
	C2858.749023,1854.462524 2858.767578,1869.783203 2859.343262,1885.083496 
	C2859.839355,1898.270142 2859.711182,1911.654419 2862.060303,1924.550415 
	C2864.650391,1938.770874 2873.810547,1948.549072 2888.501709,1952.194214 
	C2891.672363,1952.980835 2894.716797,1954.275513 2898.656738,1955.342285 
z"/>
<path fill="#2277FE" opacity="1.000000" stroke="none" 
	d="
M1611.833740,1728.698242 
	C1610.648926,1731.948242 1609.532227,1734.336548 1607.908081,1737.809692 
	C1592.715210,1730.694092 1576.506104,1732.437988 1560.455078,1731.996582 
	C1536.413574,1731.335327 1515.355103,1739.227051 1495.563843,1752.304321 
	C1475.306519,1765.689453 1464.459717,1784.879517 1459.076416,1807.785767 
	C1457.063232,1816.352661 1455.511475,1825.030029 1453.862793,1833.678833 
	C1453.555786,1835.289551 1453.615967,1837.022827 1453.799561,1838.666748 
	C1456.731934,1864.922485 1463.884277,1889.173706 1481.954224,1909.826172 
	C1489.491699,1918.440918 1497.769775,1925.259521 1506.959106,1931.619385 
	C1521.156860,1941.445801 1537.514282,1944.552246 1553.829468,1948.395630 
	C1563.706177,1950.722412 1573.504028,1950.840088 1583.399780,1950.590088 
	C1588.265259,1950.467163 1593.086060,1949.082642 1597.959839,1948.601074 
	C1601.221313,1948.278687 1604.540649,1948.540039 1609.017578,1948.540039 
	C1609.958130,1977.232910 1609.298706,2005.655151 1609.425171,2034.035522 
	C1588.441284,2039.986572 1567.636475,2039.446655 1547.460571,2037.449585 
	C1517.211792,2034.455200 1488.501221,2024.558228 1462.057861,2009.145020 
	C1443.094238,1998.091919 1425.515503,1984.905884 1411.658447,1967.866455 
	C1400.508911,1954.156860 1388.181030,1941.026611 1381.019409,1924.443237 
	C1374.522705,1909.399658 1368.975708,1894.222046 1365.952637,1877.828125 
	C1363.123657,1862.486816 1360.347412,1847.371704 1361.323730,1831.797607 
	C1361.921509,1822.261963 1362.489624,1812.628174 1364.350708,1803.293579 
	C1366.453979,1792.743774 1369.076294,1782.105713 1373.133179,1772.185059 
	C1378.343140,1759.445312 1384.280518,1746.796753 1391.614502,1735.189453 
	C1399.136963,1723.283325 1407.837036,1711.816650 1417.659180,1701.756348 
	C1426.996704,1692.192383 1438.238281,1684.409180 1449.042969,1676.381836 
	C1457.210938,1670.313354 1465.682251,1664.494507 1474.598633,1659.627075 
	C1490.551514,1650.919067 1508.118774,1646.020264 1525.763794,1642.754272 
	C1537.369263,1640.606201 1549.695190,1642.597412 1561.679443,1642.184570 
	C1575.695068,1641.702026 1589.266113,1643.875977 1602.629395,1647.754272 
	C1605.715088,1648.650024 1608.644165,1650.085815 1611.901855,1651.374512 
	C1611.901855,1677.236328 1611.901855,1702.536499 1611.833740,1728.698242 
z"/>
<path fill="#2176FE" opacity="1.000000" stroke="none" 
	d="
M574.353882,1746.011475 
	C559.336365,1759.755737 552.194580,1776.344482 549.241455,1795.755249 
	C544.249146,1828.569946 548.281311,1861.450195 546.800842,1894.256226 
	C552.841248,1937.640015 547.997803,1981.248413 549.435791,2024.729370 
	C549.719055,2033.294434 547.762024,2035.367188 540.102356,2035.399902 
	C513.771973,2035.512329 487.440613,2035.404297 461.109741,2035.336548 
	C460.170105,2035.334229 459.231659,2034.870972 457.363281,2034.376709 
	C457.190765,2031.332153 456.849701,2028.114380 456.848999,2024.896606 
	C456.822235,1901.570801 456.826569,1778.245117 456.827576,1654.919312 
	C456.827576,1653.586060 456.763275,1652.247681 456.855072,1650.920410 
	C457.299652,1644.491455 459.007965,1642.385864 465.255371,1642.344849 
	C489.586151,1642.185181 513.919128,1642.189209 538.250000,1642.336792 
	C544.634338,1642.375610 546.330872,1644.363281 546.761597,1650.742065 
	C546.985657,1654.059082 547.013428,1657.389771 547.252380,1660.705322 
	C547.293335,1661.273926 547.950500,1661.798096 548.851257,1663.114990 
	C550.635925,1662.650391 552.909790,1662.469604 554.766357,1661.494263 
	C559.461426,1659.028198 563.832825,1655.930420 568.577698,1653.577515 
	C581.339539,1647.249023 595.147522,1644.751709 609.029907,1641.986816 
	C622.602966,1639.283447 636.087952,1640.063354 649.629028,1639.871582 
	C658.803711,1639.741699 660.235229,1641.064331 659.959473,1650.262085 
	C659.424011,1668.118530 658.253357,1685.955078 657.638672,1703.810059 
	C657.306641,1713.454102 657.579529,1723.119019 657.579529,1733.746094 
	C654.822937,1734.077393 651.839294,1735.407104 649.977966,1734.480957 
	C643.956970,1731.485107 637.441956,1733.282104 631.511475,1731.847656 
	C615.888428,1728.068848 601.891541,1733.830078 587.683167,1738.156860 
	C583.115906,1739.547729 579.204224,1743.091309 574.353882,1746.011475 
z"/>
<path fill="#FAFCFF" opacity="1.000000" stroke="none" 
	d="
M804.370483,1760.343994 
	C816.885620,1748.487183 831.114563,1741.499146 847.041077,1737.218750 
	C854.814758,1735.129517 862.508728,1734.806763 870.392456,1734.258057 
	C885.864624,1733.181152 898.548401,1739.916382 911.181641,1747.168701 
	C914.254639,1748.932861 917.009338,1751.251465 920.814697,1753.958374 
	C918.467896,1756.430908 916.813293,1758.871704 914.552429,1760.436401 
	C904.292175,1767.536987 893.772461,1774.262451 883.511047,1781.361328 
	C865.970032,1793.496338 848.708008,1806.040161 831.038452,1817.982544 
	C813.901184,1829.565063 796.392761,1840.598389 779.067261,1851.903320 
	C777.752075,1852.761597 776.596252,1853.864136 774.335144,1855.682251 
	C770.749329,1818.942139 775.957581,1786.395386 804.370483,1760.343994 
z"/>
<path fill="#FBFCFE" opacity="1.000000" stroke="none" 
	d="
M1165.866211,1857.497925 
	C1182.758667,1851.937744 1198.784790,1854.056641 1214.485474,1858.786499 
	C1224.939697,1861.935913 1234.631836,1867.076172 1243.161011,1874.099365 
	C1246.377808,1876.748169 1248.199951,1879.868286 1248.120850,1884.385742 
	C1247.835571,1900.697998 1247.745972,1917.018311 1247.932617,1933.331665 
	C1247.999268,1939.162842 1245.400757,1942.803101 1240.542480,1945.188599 
	C1223.379517,1953.616211 1205.374512,1959.520508 1186.110107,1958.041626 
	C1164.762085,1956.402954 1145.582031,1948.762817 1134.852661,1928.901367 
	C1121.634644,1904.433105 1128.278931,1868.518921 1165.866211,1857.497925 
z"/>
</svg>