<svg version="1.1" id="Layer_1" xmlns="http://www.w3.org/2000/svg" xmlns:xlink="http://www.w3.org/1999/xlink" x="0px" y="0px"
	 width="100%" viewBox="0 0 3375 3375" enable-background="new 0 0 3375 3375" xml:space="preserve">
<path fill="#1F75FE" opacity="1.000000" stroke="none" 
	d="
M1890.000000,3378.000000 
	C1260.000244,3378.000000 631.000366,3378.000000 2.000422,3378.000000 
	C2.000281,2252.667236 2.000281,1127.334351 2.000141,2.001177 
	C1127.332397,2.000784 2252.664795,2.000784 3377.998047,2.000392 
	C3377.998535,1127.332153 3377.998535,2252.664307 3377.999268,3377.998047 
	C2882.333252,3378.000000 2386.666748,3378.000000 1890.000000,3378.000000 
M1799.676514,1947.000122 
	C1799.676514,1908.003540 1799.880371,1869.005249 1799.552368,1830.011475 
	C1799.453979,1818.315063 1803.841064,1808.417358 1808.968140,1798.484863 
	C1812.089844,1792.437134 1816.966797,1788.605591 1822.365356,1784.521729 
	C1829.317749,1779.262085 1837.198608,1777.923340 1844.797241,1775.000488 
	C1859.719727,1769.260620 1873.905640,1769.932617 1887.783936,1777.523682 
	C1896.132935,1782.090332 1902.851440,1788.773804 1905.668213,1797.786011 
	C1907.889160,1804.891846 1908.627808,1812.709106 1908.651611,1820.214722 
	C1908.866089,1887.875854 1908.760132,1955.537720 1908.819214,2023.199463 
	C1908.822876,2027.335205 1909.428223,2031.470581 1909.802490,2036.228027 
	C1913.888550,2036.228027 1916.850952,2036.227905 1919.813477,2036.227905 
	C1943.145142,2036.227905 1966.476685,2036.229004 1989.808350,2036.226318 
	C1991.808105,2036.226074 1993.807739,2036.202759 1995.807495,2036.187622 
	C1999.881714,2036.156738 2002.172852,2033.853271 2002.199341,2030.037842 
	C2002.301636,2015.378662 2002.309937,2000.713867 2002.001709,1986.058594 
	C2001.842529,1978.490723 2000.396729,1970.930298 2000.507324,1963.380859 
	C2000.676880,1951.808228 2002.101807,1940.253296 2002.254517,1928.681030 
	C2002.553589,1906.020020 2002.512573,1883.350708 2002.299927,1860.687622 
	C2002.026733,1831.589111 2003.437622,1802.506348 1997.978149,1773.518677 
	C1993.822876,1751.455322 1984.432861,1732.461670 1969.972900,1715.986572 
	C1958.984375,1703.466919 1944.577515,1695.851074 1929.159180,1689.076904 
	C1904.248657,1678.132202 1879.290771,1679.087036 1855.095947,1687.454590 
	C1839.258179,1692.931885 1823.782349,1701.325928 1811.184814,1713.470581 
	C1807.789185,1716.744263 1803.985229,1719.594482 1798.472046,1724.236084 
	C1798.194824,1718.128540 1797.212891,1714.177979 1797.991455,1710.611816 
	C1801.521484,1694.441040 1799.277222,1678.138794 1799.467163,1661.920044 
	C1799.609985,1649.701294 1797.327759,1637.408081 1798.027100,1625.257568 
	C1798.507446,1616.912231 1797.174683,1607.046509 1806.160522,1601.052246 
	C1810.560059,1598.117432 1814.953613,1593.639038 1820.348267,1596.233765 
	C1824.941528,1598.443115 1824.341553,1604.074951 1824.334839,1608.743774 
	C1824.307007,1628.075684 1824.292236,1647.407715 1824.367920,1666.739380 
	C1824.377441,1669.146729 1824.954712,1671.551880 1825.332886,1674.449219 
	C1845.656494,1663.067505 1865.452637,1653.633301 1888.290527,1653.468384 
	C1899.443481,1648.443726 1910.530273,1655.015015 1921.662354,1653.659058 
	C1940.470581,1660.306152 1959.728149,1665.942261 1975.585083,1678.959717 
	C1979.015015,1681.775635 1983.069336,1683.831055 1986.309937,1685.900635 
	C1998.701294,1678.551392 2002.729858,1666.654419 2008.212891,1655.893677 
	C2014.128296,1644.284424 2016.766113,1632.039917 2016.524902,1618.758667 
	C2015.956055,1587.437866 2016.321777,1556.099854 2016.372925,1524.768799 
	C2016.378296,1521.468506 2016.373901,1518.067749 2017.119507,1514.888306 
	C2019.281128,1505.671143 2018.244141,1496.126221 2021.353638,1486.853271 
	C2024.122437,1478.596313 2024.187622,1469.443604 2025.557495,1460.703613 
	C2026.866455,1452.351929 2028.381714,1444.032349 2029.693115,1435.680908 
	C2031.269287,1425.643555 2032.616699,1415.569336 2034.277832,1405.546509 
	C2035.175415,1400.130737 2036.591064,1394.802734 2037.647705,1389.410645 
	C2039.410400,1380.415039 2040.034912,1371.044678 2042.972046,1362.459351 
	C2051.799805,1336.656372 2067.544678,1314.788574 2084.348877,1293.684570 
	C2093.548096,1282.131226 2103.024414,1270.726929 2106.578857,1255.957397 
	C2111.362549,1236.080933 2108.594971,1227.515991 2091.872559,1217.459351 
	C2076.539307,1208.238037 2059.755859,1208.852539 2043.709106,1216.210693 
	C2035.396362,1220.022217 2027.547974,1225.072266 2020.025513,1230.329224 
	C2008.480957,1238.396729 1996.740967,1246.398682 1986.337036,1255.813232 
	C1978.650024,1262.769409 1972.983765,1271.951660 1966.374756,1280.107788 
	C1953.184570,1296.385986 1943.390381,1314.563354 1936.281738,1334.204712 
	C1933.408569,1342.142944 1930.982056,1350.241943 1928.265625,1358.238403 
	C1924.376587,1369.686523 1919.240601,1380.864868 1916.799805,1392.607910 
	C1914.341919,1404.432739 1909.797363,1415.231567 1904.650635,1425.805420 
	C1900.089600,1435.176025 1893.364990,1443.504761 1888.931030,1452.922363 
	C1885.125977,1461.003906 1880.250122,1467.636108 1874.833252,1471.572388 
	C1868.686890,1471.305420 1864.208374,1470.343384 1860.027222,1471.076294 
	C1848.482178,1473.100708 1837.086060,1475.959229 1825.580322,1478.230957 
	C1820.106812,1479.311646 1814.452393,1479.496216 1808.996948,1480.643311 
	C1801.408447,1482.238892 1793.755615,1483.851440 1786.444214,1486.368530 
	C1775.037476,1490.295288 1762.994629,1493.504395 1752.830566,1499.670410 
	C1733.026978,1511.684326 1718.325439,1528.938232 1709.254761,1550.546875 
	C1703.615845,1563.980469 1701.234253,1578.583130 1700.787720,1592.612427 
	C1699.484253,1633.567871 1700.279663,1674.591797 1700.412476,1715.588379 
	C1700.422607,1718.741089 1701.758545,1721.876343 1702.343140,1725.044678 
	C1702.876465,1727.935059 1703.578979,1730.856812 1703.598633,1733.768921 
	C1703.715942,1751.100220 1703.689453,1768.432861 1703.621460,1785.764648 
	C1703.611206,1788.388184 1703.319214,1791.045776 1702.824341,1793.623657 
	C1702.160889,1797.079102 1700.447021,1800.469604 1700.434204,1803.892578 
	C1700.268311,1848.222046 1700.300049,1892.552368 1700.379761,1936.882324 
	C1700.385010,1939.790161 1701.083008,1942.716309 1701.642456,1945.598267 
	C1702.191528,1948.427002 1703.646606,1951.233154 1703.551514,1954.009766 
	C1702.625854,1980.995605 1706.142578,2008.107788 1701.203247,2035.686523 
	C1704.197998,2035.870117 1707.112671,2036.199097 1710.027954,2036.203735 
	C1736.026001,2036.244141 1762.024170,2036.257202 1788.022217,2036.213257 
	C1799.045898,2036.194702 1799.646484,2035.553833 1799.664185,2023.994751 
	C1799.702515,1998.996582 1799.676392,1973.998413 1799.676514,1947.000122 
M1806.396362,1447.514282 
	C1815.549683,1445.085327 1824.734619,1442.768188 1833.845215,1440.188354 
	C1840.047241,1438.432251 1846.145386,1436.308594 1854.617554,1433.607178 
	C1850.600342,1430.787964 1848.660156,1429.338989 1846.632935,1428.024170 
	C1843.600708,1426.057129 1840.164429,1424.572021 1837.494751,1422.209717 
	C1817.430420,1404.455811 1804.375244,1382.444702 1798.362793,1356.334351 
	C1797.552612,1352.815308 1798.423828,1348.707153 1796.988770,1345.570679 
	C1792.246582,1335.206177 1792.030151,1323.830566 1790.293091,1313.043091 
	C1788.842285,1304.032837 1786.464722,1295.221313 1785.010254,1286.228027 
	C1783.461060,1276.648438 1780.406494,1267.322998 1778.449097,1257.796143 
	C1775.040039,1241.205200 1771.870117,1224.562988 1768.802612,1207.905029 
	C1767.498779,1200.824829 1766.341309,1193.679932 1765.761108,1186.512451 
	C1764.773315,1174.313232 1764.297607,1162.072510 1763.596191,1149.849854 
	C1763.539185,1148.855225 1763.681641,1147.720703 1763.256958,1146.895142 
	C1757.255005,1135.229980 1760.176514,1122.222656 1758.347900,1109.955200 
	C1755.803101,1092.884644 1757.091064,1075.186646 1752.270752,1058.257812 
	C1750.308472,1051.366699 1749.174194,1043.655762 1745.216187,1038.043701 
	C1737.933838,1027.717896 1727.948975,1019.830139 1715.212402,1016.704224 
	C1712.114868,1015.943970 1708.363892,1015.863037 1705.395752,1016.879272 
	C1685.829712,1023.578003 1673.994751,1036.831299 1669.148682,1057.404785 
	C1667.640747,1063.806274 1667.788574,1070.504883 1665.553345,1076.495117 
	C1662.002197,1086.011475 1663.467651,1095.595459 1664.215210,1105.001465 
	C1665.007446,1114.968750 1668.035645,1124.737549 1669.548584,1134.674927 
	C1670.687378,1142.155396 1670.810669,1149.784790 1671.702515,1157.310425 
	C1672.277222,1162.160767 1673.901978,1166.911377 1674.224976,1171.761963 
	C1675.171265,1185.966675 1675.696167,1200.199341 1676.402954,1214.420166 
	C1676.468750,1215.745605 1676.282227,1217.254150 1676.843628,1218.356567 
	C1680.839722,1226.203247 1679.567993,1234.617798 1679.629150,1242.865479 
	C1679.732788,1256.864136 1679.652466,1270.864258 1679.663086,1284.863770 
	C1679.664795,1287.196045 1679.016479,1289.850830 1679.893677,1291.807495 
	C1684.972046,1303.134155 1681.356445,1315.346069 1683.825195,1327.093628 
	C1685.686157,1335.949341 1688.087280,1344.793213 1689.404175,1353.789062 
	C1691.295898,1366.710693 1696.690918,1378.969360 1696.244507,1392.353149 
	C1695.945923,1401.302734 1690.557983,1408.002563 1681.616089,1409.453979 
	C1667.987183,1411.666016 1657.317017,1406.602417 1650.247559,1395.191650 
	C1644.041016,1385.173706 1638.380981,1374.710205 1633.576782,1363.953369 
	C1624.610107,1343.877319 1613.701172,1324.939331 1602.078613,1306.349854 
	C1594.415649,1294.093140 1585.901855,1282.234619 1579.571533,1269.314819 
	C1572.714844,1255.320923 1567.726074,1240.383789 1562.353027,1225.700562 
	C1558.650635,1215.583374 1555.117798,1205.338867 1552.510254,1194.901001 
	C1548.291504,1178.013062 1541.700928,1162.031128 1534.690918,1146.250977 
	C1528.976440,1133.387207 1521.541748,1121.486450 1513.015381,1110.075806 
	C1502.228760,1095.640381 1490.109619,1085.532227 1470.939941,1087.583496 
	C1468.962646,1087.795044 1466.919678,1087.811401 1464.947266,1087.578857 
	C1455.247559,1086.435669 1449.443359,1093.349854 1444.761108,1099.421143 
	C1439.651001,1106.047241 1437.513306,1114.678955 1437.553223,1123.630005 
	C1437.619995,1138.611084 1440.417480,1153.298096 1444.854858,1167.245850 
	C1451.479004,1188.068115 1459.821533,1208.410889 1468.552124,1228.470581 
	C1473.654419,1240.193848 1479.653564,1251.492188 1483.532349,1263.769165 
	C1487.255615,1275.553833 1491.851074,1287.064819 1495.512451,1298.866821 
	C1499.765869,1312.577148 1503.293091,1326.511108 1507.393188,1340.271240 
	C1509.166016,1346.221069 1511.768799,1351.918823 1513.676025,1357.833862 
	C1520.188110,1378.028687 1531.467041,1395.741821 1543.357056,1412.930420 
	C1551.561890,1424.791748 1560.153076,1436.403320 1565.779175,1449.653931 
	C1568.906494,1457.019531 1571.671631,1464.671875 1567.631226,1473.585327 
	C1560.680176,1488.920288 1550.336914,1489.993530 1537.970093,1487.045776 
	C1528.015625,1484.672852 1520.960938,1477.453735 1512.905029,1472.019043 
	C1503.403320,1465.609375 1494.462158,1458.360474 1485.359375,1451.369751 
	C1475.206055,1443.572266 1464.573975,1436.276123 1455.178833,1427.642456 
	C1441.831665,1415.377075 1428.973999,1402.451782 1419.524780,1386.726074 
	C1410.564941,1371.814453 1401.807617,1356.823120 1392.188721,1342.273560 
	C1380.871826,1325.155518 1368.734619,1308.889038 1353.863892,1294.866699 
	C1347.223389,1288.605103 1339.342163,1283.431885 1329.382812,1283.521973 
	C1323.383545,1283.576172 1317.330566,1283.027588 1311.395996,1283.649170 
	C1302.244873,1284.607544 1294.921021,1288.487549 1289.350464,1296.637329 
	C1281.326660,1308.376587 1284.170532,1320.040771 1287.964966,1331.676025 
	C1291.841553,1343.562744 1298.216797,1354.221558 1306.517456,1363.729248 
	C1309.950439,1367.661621 1312.961304,1372.062378 1315.578735,1376.588623 
	C1324.283813,1391.642700 1333.674438,1406.402954 1341.058472,1422.096313 
	C1354.737549,1451.168335 1374.445190,1475.561401 1396.620483,1498.276123 
	C1400.911377,1502.671021 1405.466919,1506.811401 1409.969482,1510.994629 
	C1418.658081,1519.066650 1427.336914,1527.150635 1436.131836,1535.105713 
	C1442.981201,1541.301025 1450.380615,1546.932983 1456.854858,1553.487793 
	C1466.613037,1563.367432 1475.730225,1573.877441 1485.209473,1584.035889 
	C1492.477417,1591.824463 1493.988281,1602.145752 1497.510864,1611.567139 
	C1499.723022,1617.484253 1500.465088,1618.121094 1505.710449,1616.320679 
	C1517.252319,1612.358887 1529.010498,1609.583252 1541.310425,1609.486206 
	C1543.923706,1609.465698 1546.540527,1608.852173 1549.140747,1608.421997 
	C1553.322510,1607.730225 1557.532227,1607.138794 1561.658081,1606.191284 
	C1570.203857,1604.228882 1577.738159,1609.005981 1585.907471,1609.631348 
	C1591.456421,1610.056030 1597.280396,1610.460938 1602.387939,1612.421021 
	C1618.855103,1618.740479 1635.210571,1625.418823 1651.256348,1632.732544 
	C1656.775146,1635.247925 1661.613403,1636.347046 1667.577515,1634.398438 
	C1667.851318,1631.855347 1668.276245,1629.598511 1668.309570,1627.335938 
	C1668.635742,1605.251343 1667.401611,1583.170288 1673.364136,1561.363770 
	C1676.224854,1550.901367 1679.043213,1540.633545 1683.339233,1530.618774 
	C1693.276733,1507.451904 1708.709229,1488.816040 1729.383301,1474.916870 
	C1738.835571,1468.562012 1749.603516,1463.723999 1760.375122,1459.880249 
	C1774.779785,1454.740479 1789.417847,1449.888550 1806.396362,1447.514282 
M822.439453,1936.713867 
	C814.176208,1931.784668 807.503662,1925.263306 801.893860,1917.441650 
	C803.632202,1915.596436 804.584778,1914.117920 805.928345,1913.233276 
	C816.054749,1906.566772 826.324890,1900.117676 836.421875,1893.407471 
	C852.250305,1882.888672 867.913818,1872.120972 883.772461,1861.648193 
	C893.326050,1855.339355 903.250916,1849.590576 912.774475,1843.238525 
	C934.905334,1828.477417 956.827148,1813.402832 978.964722,1798.651978 
	C993.117493,1789.221680 1007.648987,1780.356812 1021.740417,1770.838257 
	C1033.109009,1763.158936 1034.771484,1753.341187 1029.598633,1740.614746 
	C1021.618835,1720.983276 1007.825195,1705.551270 994.544678,1689.740112 
	C990.820007,1685.305786 985.356201,1682.376099 980.957642,1678.455933 
	C967.323242,1666.304443 952.043335,1657.052246 934.810303,1650.873291 
	C918.706604,1645.099365 902.697998,1639.217285 885.216797,1639.418579 
	C883.358276,1639.439941 881.504333,1637.965454 879.619202,1637.887329 
	C869.805908,1637.480957 859.980042,1637.050415 850.165283,1637.171265 
	C846.387207,1637.217773 842.643494,1638.787598 838.852844,1639.496094 
	C835.942749,1640.039917 832.954773,1640.174683 830.051331,1640.744995 
	C818.739197,1642.967407 808.226746,1647.417603 797.473755,1651.490723 
	C780.278198,1658.004028 764.188354,1666.745850 750.928894,1678.666748 
	C727.922180,1699.350952 706.356567,1721.569214 693.047852,1750.638794 
	C686.298035,1765.381958 680.587708,1780.154663 677.671814,1796.004761 
	C676.423035,1802.792725 677.018860,1810.127441 674.687073,1816.442261 
	C672.870605,1821.361328 672.369873,1825.965088 672.339539,1830.886108 
	C672.284058,1839.880737 672.299988,1848.876099 672.340759,1857.870850 
	C672.351257,1860.192627 671.704163,1863.120361 672.837524,1864.726929 
	C677.147705,1870.837280 676.528870,1878.137207 677.273865,1884.679565 
	C679.059570,1900.362671 685.064453,1914.558472 691.183899,1928.562866 
	C700.183960,1949.160034 715.309753,1965.881836 729.235474,1983.260864 
	C730.465271,1984.795654 732.116333,1986.023193 733.683044,1987.251343 
	C736.752686,1989.658203 740.239441,1991.627930 742.963196,1994.365967 
	C764.658386,2016.173340 791.252808,2029.093140 820.454041,2037.212769 
	C830.148376,2039.908447 839.967407,2043.451660 849.853455,2043.905396 
	C874.173096,2045.021606 898.442566,2044.954102 922.220581,2037.197021 
	C943.891052,2030.127441 964.551941,2021.291870 983.645691,2008.916260 
	C989.125977,2005.364136 994.075378,2000.988037 999.232849,1996.944580 
	C1003.352051,1993.715210 1007.756836,1990.752441 1011.409302,1987.053467 
	C1014.957581,1983.460205 1016.774231,1978.808838 1016.205688,1973.462646 
	C1014.643188,1958.769043 1012.963623,1944.082642 1011.752563,1929.358643 
	C1010.966858,1919.805420 1009.944641,1918.291870 1000.633850,1918.241943 
	C983.643799,1918.150757 966.651733,1918.324219 949.663208,1918.139404 
	C945.398193,1918.093140 942.291992,1919.435913 939.052856,1922.221069 
	C933.879761,1926.669189 928.212891,1930.596802 922.488953,1934.337646 
	C914.434692,1939.601562 905.654968,1942.934204 896.004578,1944.423462 
	C887.372620,1945.755493 878.983582,1949.496582 870.371399,1949.944092 
	C853.704041,1950.810303 838.059265,1945.952759 822.439453,1936.713867 
M1077.150269,1678.237549 
	C1071.065796,1678.404785 1071.482300,1682.457031 1071.997192,1686.701538 
	C1072.830688,1693.574097 1074.505493,1700.517944 1074.102905,1707.329834 
	C1073.336548,1720.295532 1076.906006,1732.493530 1078.240967,1744.687622 
	C1090.057007,1740.136597 1101.204590,1735.608276 1112.517944,1731.541870 
	C1128.637329,1725.748047 1145.079346,1723.381104 1161.637451,1729.586060 
	C1171.121216,1733.140015 1180.573975,1733.184814 1189.625854,1729.399170 
	C1200.423462,1724.883667 1211.538086,1724.550781 1222.418701,1726.723022 
	C1233.086182,1728.852661 1244.135620,1732.693970 1247.293457,1744.992065 
	C1249.656738,1754.195801 1250.464233,1763.836792 1251.485840,1773.334595 
	C1252.199341,1779.967773 1252.104370,1786.687744 1252.408691,1794.327026 
	C1250.346924,1793.728760 1247.613770,1793.113647 1245.015503,1792.139160 
	C1241.311035,1790.750000 1237.825562,1788.643799 1234.035767,1787.639038 
	C1220.786377,1784.126343 1207.717407,1780.648193 1193.772705,1779.313232 
	C1174.554688,1777.473511 1156.186890,1779.457031 1137.904785,1784.089111 
	C1119.356445,1788.788574 1103.222168,1798.119751 1087.337036,1809.038330 
	C1075.142944,1817.419922 1067.612427,1829.039795 1058.675171,1839.608032 
	C1052.936157,1846.394531 1050.121704,1855.912842 1046.981079,1864.564209 
	C1043.920532,1872.994751 1040.967773,1881.760498 1040.043579,1890.596191 
	C1038.874268,1901.776123 1038.796265,1913.289917 1040.067383,1924.452637 
	C1041.897827,1940.525635 1046.592407,1955.939209 1054.234253,1970.474365 
	C1062.632446,1986.448120 1072.656616,2001.028442 1087.076660,2012.024536 
	C1096.184082,2018.969604 1105.794189,2025.138794 1116.174438,2030.338989 
	C1132.091675,2038.312866 1148.937134,2042.279663 1166.289062,2044.087524 
	C1192.251587,2046.792847 1216.761230,2040.391235 1240.407837,2030.133179 
	C1245.979614,2027.716187 1251.453613,2025.073364 1257.455200,2022.312378 
	C1258.192749,2027.004028 1258.788696,2030.794800 1259.486694,2035.234741 
	C1285.954346,2035.234741 1312.526245,2035.234741 1340.056763,2035.234741 
	C1340.634888,2028.744995 1341.602173,2022.893433 1341.609985,2017.040405 
	C1341.712158,1941.403320 1341.762085,1865.765869 1341.592651,1790.129150 
	C1341.565308,1777.880005 1340.553345,1765.624268 1339.746094,1753.388062 
	C1338.404175,1733.048462 1332.743896,1713.990601 1322.683228,1696.190796 
	C1313.916870,1680.680908 1301.182251,1669.308350 1286.136597,1660.322876 
	C1273.246094,1652.624756 1259.755493,1646.281494 1244.579834,1644.590942 
	C1230.893311,1643.066406 1217.186768,1640.636475 1203.489868,1640.642456 
	C1192.869995,1640.647095 1182.294189,1644.135254 1171.622437,1645.462280 
	C1155.575317,1647.458008 1141.071411,1654.633667 1127.632812,1662.103149 
	C1112.006592,1670.788696 1096.469971,1676.956543 1077.150269,1678.237549 
M2443.880371,2017.278809 
	C2451.835205,2021.770142 2459.469482,2027.004028 2467.809570,2030.602295 
	C2486.563232,2038.693237 2506.076660,2044.038818 2526.807617,2043.438965 
	C2533.359375,2043.249390 2540.197266,2044.362915 2546.406982,2042.845215 
	C2557.502441,2040.133179 2568.776367,2037.587891 2579.038086,2032.064453 
	C2584.907715,2028.905273 2591.064453,2026.278809 2597.390869,2023.270142 
	C2598.862549,2026.115479 2600.194580,2028.383667 2601.236328,2030.778198 
	C2602.747559,2034.252686 2605.162109,2035.615112 2609.016113,2035.594971 
	C2633.338867,2035.468384 2657.662842,2035.623901 2681.984863,2035.462769 
	C2688.255615,2035.421265 2689.933350,2033.365845 2690.302734,2026.879150 
	C2690.454102,2024.221924 2690.348145,2021.549316 2690.341064,2018.883789 
	C2690.121338,1935.260498 2689.888916,1851.637085 2689.698975,1768.013794 
	C2689.685303,1762.028198 2690.124023,1756.041382 2690.106934,1750.055908 
	C2690.011230,1716.747192 2689.839111,1683.438965 2689.695557,1650.130493 
	C2689.684570,1647.617920 2689.693848,1645.105469 2689.693848,1643.129883 
	C2677.062256,1643.129883 2665.460449,1643.243652 2653.861816,1643.101929 
	C2638.213135,1642.910767 2622.567871,1642.391968 2606.918945,1642.279907 
	C2600.038818,1642.230469 2598.555664,1643.637817 2598.401367,1650.311523 
	C2598.101318,1663.293579 2598.085938,1676.284180 2598.102295,1689.271118 
	C2598.135742,1715.795532 2598.395020,1742.320435 2598.329102,1768.844360 
	C2598.241211,1804.152710 2597.395752,1839.469238 2597.980713,1874.763916 
	C2598.215576,1888.903076 2596.246582,1902.287109 2593.022217,1915.915894 
	C2588.161865,1936.460327 2567.303223,1956.021973 2543.144531,1955.374023 
	C2527.316650,1954.949463 2512.299805,1952.050659 2499.279053,1940.985718 
	C2491.768799,1934.603638 2487.963135,1927.224121 2484.194824,1918.723267 
	C2481.100586,1911.742920 2482.522705,1905.129639 2482.352051,1898.319702 
	C2481.586670,1867.787842 2482.145508,1837.252441 2480.639160,1806.703247 
	C2479.431396,1782.206665 2480.155762,1757.608521 2482.051758,1733.026367 
	C2483.480957,1714.493774 2482.247314,1695.756714 2482.216797,1677.110596 
	C2482.198242,1665.865356 2482.213135,1654.620239 2482.213135,1642.529785 
	C2450.794678,1642.529785 2420.655518,1642.529785 2390.300049,1642.529785 
	C2390.029785,1644.577148 2389.710693,1645.869507 2389.710205,1647.161743 
	C2389.688232,1709.135742 2389.690918,1771.109863 2389.697021,1833.083862 
	C2389.698730,1851.391235 2389.412598,1869.705566 2389.832520,1888.003540 
	C2390.120605,1900.558350 2391.263428,1913.101685 2392.299805,1925.627441 
	C2392.780518,1931.434814 2393.234131,1937.390381 2394.877197,1942.929688 
	C2401.490723,1965.224365 2412.689697,1985.162720 2427.259277,2003.232422 
	C2428.066162,2004.233276 2429.135986,2005.502197 2430.249268,2005.696655 
	C2436.541748,2006.796753 2439.256104,2012.027222 2443.880371,2017.278809 
M2257.017578,1784.249268 
	C2260.561768,1795.490234 2265.006592,1806.542358 2267.415283,1818.021484 
	C2270.240479,1831.485596 2266.540039,1845.079590 2263.221436,1857.930054 
	C2255.318604,1888.530151 2237.765381,1912.559692 2210.950928,1930.152588 
	C2194.589600,1940.886963 2176.702148,1947.332764 2157.975342,1949.696655 
	C2140.453125,1951.908447 2122.311768,1951.511719 2105.164795,1944.743286 
	C2098.863770,1942.256226 2092.336914,1940.341919 2085.419434,1937.999268 
	C2070.736816,1963.580811 2056.053223,1989.163940 2041.223999,2015.001099 
	C2047.117432,2020.676514 2054.366943,2021.847046 2060.647705,2024.971313 
	C2071.621826,2030.430298 2082.863281,2034.899414 2094.571289,2037.569946 
	C2109.511230,2040.977905 2124.793945,2043.989746 2140.037598,2044.645264 
	C2154.693848,2045.275513 2169.506836,2042.871460 2184.218262,2041.460327 
	C2204.204346,2039.543213 2223.004883,2033.170166 2241.178223,2025.009277 
	C2256.170654,2018.276733 2269.750488,2009.261475 2282.898438,1999.288696 
	C2295.624512,1989.635742 2306.553223,1978.114746 2314.960693,1965.213135 
	C2327.125732,1946.545288 2339.243896,1927.689819 2347.492188,1906.512939 
	C2354.068359,1889.629883 2358.028809,1872.582642 2358.149658,1854.779907 
	C2358.261963,1838.241333 2359.996094,1821.605103 2356.459473,1805.109375 
	C2354.612061,1796.493408 2354.240234,1787.563721 2352.437012,1778.935547 
	C2349.483643,1764.803467 2343.670654,1751.707642 2337.589844,1738.609741 
	C2329.207520,1720.554077 2317.277832,1704.974854 2304.863525,1689.865112 
	C2293.720459,1676.302368 2279.105957,1666.374146 2263.902344,1657.587280 
	C2256.752197,1653.454712 2249.660645,1649.121826 2242.167725,1645.701294 
	C2226.610107,1638.599121 2211.345703,1630.744995 2194.184814,1627.664551 
	C2184.143311,1625.862305 2174.580811,1621.928467 2164.064941,1622.021118 
	C2153.988037,1622.110107 2143.824463,1620.080078 2133.834961,1620.818115 
	C2112.579590,1622.388916 2091.885742,1625.903076 2071.806152,1634.652954 
	C2060.076416,1639.764526 2050.124756,1646.999878 2038.082153,1652.943115 
	C2054.179688,1679.238403 2069.881348,1704.887085 2085.295898,1730.066528 
	C2091.300293,1728.046875 2096.285156,1727.196167 2100.384277,1724.818726 
	C2108.795410,1719.940430 2118.060303,1718.276367 2127.293457,1717.126709 
	C2148.015137,1714.545898 2168.604492,1714.616821 2188.137451,1723.837402 
	C2195.532471,1727.328125 2203.571289,1729.676025 2210.504395,1733.883301 
	C2230.277344,1745.882202 2245.658936,1762.254761 2257.017578,1784.249268 
M2859.677002,1808.556152 
	C2859.677734,1791.898315 2859.627930,1775.240356 2859.700439,1758.582886 
	C2859.736816,1750.255981 2861.648193,1747.925659 2869.569580,1746.476685 
	C2871.833740,1746.062622 2874.217529,1746.205811 2876.543945,1746.243286 
	C2893.978516,1746.524048 2911.412354,1746.842163 2930.030518,1747.169434 
	C2930.759277,1744.781738 2932.380859,1741.543823 2932.605469,1738.211670 
	C2932.890381,1733.991577 2932.037354,1729.695068 2931.678223,1725.431274 
	C2930.229736,1708.236328 2934.185303,1691.148682 2932.484375,1673.896362 
	C2931.646973,1665.404419 2932.339111,1656.761841 2932.339111,1647.792603 
	C2919.488525,1644.468384 2907.615234,1648.607422 2895.800049,1647.569702 
	C2883.932373,1646.527344 2871.995605,1646.270020 2859.370117,1645.632324 
	C2858.832520,1642.563110 2857.921387,1639.689575 2857.891357,1636.806763 
	C2857.710693,1619.506714 2857.521240,1602.201294 2857.778320,1584.904297 
	C2857.901367,1576.630737 2859.086914,1568.377319 2859.633057,1560.104370 
	C2860.190674,1551.656128 2858.688232,1550.192505 2850.495605,1550.203369 
	C2823.746094,1550.238770 2796.996338,1550.216675 2769.656982,1550.216675 
	C2769.656982,1563.977661 2770.129150,1576.302124 2769.532471,1588.574463 
	C2768.850098,1602.617310 2770.951172,1616.549927 2767.149170,1630.800415 
	C2763.093262,1646.004028 2753.277100,1653.219360 2738.829590,1655.585327 
	C2730.906006,1656.883057 2722.595215,1655.817505 2714.162598,1655.817505 
	C2713.023438,1686.148560 2709.900146,1716.836182 2712.432373,1748.256836 
	C2730.309326,1744.547119 2747.838623,1746.842285 2766.386230,1746.249756 
	C2767.072266,1750.763916 2768.107666,1754.861206 2768.250244,1758.989380 
	C2768.858643,1776.598389 2769.413330,1794.214233 2769.599121,1811.831665 
	C2769.967529,1846.792603 2769.902100,1881.758667 2770.398926,1916.717163 
	C2770.561035,1928.126221 2770.858643,1939.720581 2772.995361,1950.865723 
	C2775.494385,1963.898315 2780.161621,1976.307495 2787.413330,1987.902954 
	C2797.476074,2003.992310 2811.085938,2015.862183 2827.261719,2024.861572 
	C2838.168945,2030.929932 2849.327637,2036.924072 2862.120361,2038.530640 
	C2867.272461,2039.177490 2872.351807,2040.390747 2877.498535,2041.094116 
	C2886.911621,2042.380737 2896.303955,2044.256104 2905.833740,2041.499512 
	C2908.928223,2040.604248 2912.353027,2040.880493 2915.480225,2040.061768 
	C2920.388184,2038.776733 2925.172363,2037.016968 2929.764160,2035.537109 
	C2928.423096,2030.042603 2926.538086,2025.904785 2926.555664,2021.775146 
	C2926.635010,2003.159180 2927.273438,1984.545776 2927.663330,1965.930664 
	C2927.759766,1961.331787 2927.677734,1956.729248 2927.677734,1951.025635 
	C2921.548828,1951.517822 2916.051514,1950.901733 2911.337402,1952.540039 
	C2898.180908,1957.112183 2887.050537,1952.087036 2876.684082,1945.557373 
	C2869.010010,1940.723755 2863.991211,1932.703003 2862.481445,1923.615479 
	C2860.866699,1913.897583 2860.042236,1903.976074 2859.793213,1894.119995 
	C2859.372314,1877.472900 2859.677002,1860.807373 2859.676270,1844.149658 
	C2859.676025,1832.917114 2859.675049,1821.684448 2859.677002,1808.556152 
M1454.662109,1832.062012 
	C1455.665527,1829.014893 1457.319702,1826.020630 1457.571289,1822.912598 
	C1459.931885,1793.758423 1471.752930,1770.054321 1496.115601,1752.917236 
	C1510.929565,1742.497192 1527.140503,1734.735596 1544.951660,1733.937012 
	C1565.912476,1732.997192 1587.327759,1730.511719 1608.904907,1738.590332 
	C1610.142456,1734.469727 1612.143799,1730.837524 1612.183960,1727.183960 
	C1612.461060,1701.890259 1612.329956,1676.592163 1612.329956,1650.433228 
	C1608.273804,1648.948242 1604.452515,1647.083740 1600.416138,1646.161499 
	C1589.558472,1643.681274 1578.701904,1641.184692 1567.396729,1641.463013 
	C1556.077271,1641.741577 1544.745728,1641.526123 1533.419434,1641.523804 
	C1522.115356,1641.521484 1511.479980,1645.031738 1500.834351,1648.120728 
	C1485.670654,1652.520752 1471.553955,1659.430908 1458.453125,1668.215576 
	C1449.752319,1674.050049 1441.015869,1679.966675 1433.070679,1686.754150 
	C1425.147095,1693.522949 1418.177612,1701.410645 1410.813599,1708.831421 
	C1397.952637,1721.791382 1388.472412,1737.143921 1380.113403,1753.180542 
	C1372.217407,1768.329224 1366.856201,1784.508667 1364.105469,1801.329468 
	C1362.043823,1813.936157 1358.994263,1826.473022 1360.193726,1839.538940 
	C1361.057861,1848.954224 1361.642090,1858.269043 1363.146851,1867.713501 
	C1366.636353,1889.614746 1372.197754,1910.698486 1383.140747,1929.777466 
	C1391.055664,1943.577148 1400.691528,1956.611328 1411.006836,1968.757935 
	C1424.921143,1985.142212 1441.688110,1998.757080 1460.514893,2009.143311 
	C1477.430054,2018.474731 1494.812866,2026.656738 1514.026855,2031.372437 
	C1529.802979,2035.244263 1545.328491,2038.297241 1561.503296,2038.227173 
	C1577.344360,2038.158569 1593.261719,2039.200073 1609.582153,2034.937500 
	C1609.582153,2006.262451 1609.582153,1977.518799 1609.582153,1947.901855 
	C1605.188110,1947.901855 1601.278931,1947.604736 1597.435181,1947.979004 
	C1592.907593,1948.419922 1588.462280,1949.675415 1583.936890,1950.173218 
	C1565.526245,1952.198364 1548.296143,1946.189453 1530.838379,1941.967529 
	C1526.441406,1940.904053 1522.118652,1939.080688 1518.108887,1936.952759 
	C1504.781616,1929.880005 1492.763550,1921.662964 1483.020874,1909.342041 
	C1469.196533,1891.859497 1458.294678,1873.837646 1457.620850,1850.952881 
	C1457.573364,1849.336914 1456.990234,1847.739746 1456.689209,1846.127686 
	C1455.918579,1842.000366 1455.166626,1837.869751 1454.662109,1832.062012 
M456.628296,1646.219971 
	C456.526367,1684.204590 456.355316,1722.189209 456.336426,1760.173828 
	C456.292694,1848.151489 456.317444,1936.129028 456.339874,2024.106689 
	C456.340851,2027.941772 456.594147,2031.776855 456.751770,2036.229004 
	C461.407593,2036.229004 464.712036,2036.229004 468.016449,2036.229004 
	C490.010834,2036.229004 512.005249,2036.230835 533.999634,2036.228516 
	C550.333008,2036.226807 549.970337,2036.214478 550.407288,2020.357422 
	C552.157471,1956.849854 547.426147,1893.443115 547.674683,1829.962769 
	C547.695618,1824.630981 547.269714,1819.260498 547.766907,1813.975342 
	C548.656006,1804.524658 549.066650,1794.839966 551.590027,1785.786255 
	C554.029175,1777.034546 558.786743,1768.911133 562.694214,1760.590820 
	C567.620239,1750.101685 576.888428,1743.833130 586.843689,1739.792969 
	C597.642395,1735.410278 609.402588,1733.365723 620.801208,1730.533936 
	C622.153137,1730.198120 623.869995,1731.316895 625.414368,1731.772583 
	C627.285217,1732.324707 629.118652,1733.160889 631.027466,1733.398071 
	C637.560730,1734.209961 644.110901,1734.933228 650.674316,1735.429321 
	C652.870056,1735.595337 655.124878,1734.978760 658.343628,1734.604736 
	C658.343628,1725.902954 658.153687,1717.645386 658.381470,1709.399414 
	C658.930969,1689.504761 659.827393,1669.619141 660.275513,1649.722900 
	C660.488037,1640.288452 659.570496,1639.354248 649.981995,1639.609497 
	C636.751221,1639.961792 623.576111,1638.934692 610.256958,1641.173828 
	C595.627625,1643.632935 581.175720,1645.879150 567.936279,1652.926758 
	C564.136841,1654.949341 560.547729,1657.367432 556.745728,1659.384644 
	C554.301147,1660.681763 551.643921,1661.578247 548.130188,1663.053955 
	C547.934265,1658.582275 547.774048,1655.634888 547.681702,1652.685425 
	C547.388977,1643.334106 545.815796,1641.594238 536.491150,1641.556885 
	C513.164124,1641.463135 489.835327,1641.416748 466.510590,1641.665771 
	C463.485168,1641.698120 460.479614,1643.584717 456.628296,1646.219971 
z"/>
<path fill="#FEFEFF" opacity="1.000000" stroke="none" 
	d="
M1799.676514,1948.000244 
	C1799.676392,1973.998413 1799.702515,1998.996582 1799.664185,2023.994751 
	C1799.646484,2035.553833 1799.045898,2036.194702 1788.022217,2036.213257 
	C1762.024170,2036.257202 1736.026001,2036.244141 1710.027954,2036.203735 
	C1707.112671,2036.199097 1704.197998,2035.870117 1701.203247,2035.686523 
	C1706.142578,2008.107788 1702.625854,1980.995605 1703.551514,1954.009766 
	C1703.646606,1951.233154 1702.191528,1948.427002 1701.642456,1945.598267 
	C1701.083008,1942.716309 1700.385010,1939.790161 1700.379761,1936.882324 
	C1700.300049,1892.552368 1700.268311,1848.222046 1700.434204,1803.892578 
	C1700.447021,1800.469604 1702.160889,1797.079102 1702.824341,1793.623657 
	C1703.319214,1791.045776 1703.611206,1788.388184 1703.621460,1785.764648 
	C1703.689453,1768.432861 1703.715942,1751.100220 1703.598633,1733.768921 
	C1703.578979,1730.856812 1702.876465,1727.935059 1702.343140,1725.044678 
	C1701.758545,1721.876343 1700.422607,1718.741089 1700.412476,1715.588379 
	C1700.279663,1674.591797 1699.484253,1633.567871 1700.787720,1592.612427 
	C1701.234253,1578.583130 1703.615845,1563.980469 1709.254761,1550.546875 
	C1718.325439,1528.938232 1733.026978,1511.684326 1752.830566,1499.670410 
	C1762.994629,1493.504395 1775.037476,1490.295288 1786.444214,1486.368530 
	C1793.755615,1483.851440 1801.408447,1482.238892 1808.996948,1480.643311 
	C1814.452393,1479.496216 1820.106812,1479.311646 1825.580322,1478.230957 
	C1837.086060,1475.959229 1848.482178,1473.100708 1860.027222,1471.076294 
	C1864.208374,1470.343384 1868.686890,1471.305420 1874.833252,1471.572388 
	C1880.250122,1467.636108 1885.125977,1461.003906 1888.931030,1452.922363 
	C1893.364990,1443.504761 1900.089600,1435.176025 1904.650635,1425.805420 
	C1909.797363,1415.231567 1914.341919,1404.432739 1916.799805,1392.607910 
	C1919.240601,1380.864868 1924.376587,1369.686523 1928.265625,1358.238403 
	C1930.982056,1350.241943 1933.408569,1342.142944 1936.281738,1334.204712 
	C1943.390381,1314.563354 1953.184570,1296.385986 1966.374756,1280.107788 
	C1972.983765,1271.951660 1978.650024,1262.769409 1986.337036,1255.813232 
	C1996.740967,1246.398682 2008.480957,1238.396729 2020.025513,1230.329224 
	C2027.547974,1225.072266 2035.396362,1220.022217 2043.709106,1216.210693 
	C2059.755859,1208.852539 2076.539307,1208.238037 2091.872559,1217.459351 
	C2108.594971,1227.515991 2111.362549,1236.080933 2106.578857,1255.957397 
	C2103.024414,1270.726929 2093.548096,1282.131226 2084.348877,1293.684570 
	C2067.544678,1314.788574 2051.799805,1336.656372 2042.972046,1362.459351 
	C2040.034912,1371.044678 2039.410400,1380.415039 2037.647705,1389.410645 
	C2036.591064,1394.802734 2035.175415,1400.130737 2034.277832,1405.546509 
	C2032.616699,1415.569336 2031.269287,1425.643555 2029.693115,1435.680908 
	C2028.381714,1444.032349 2026.866455,1452.351929 2025.557495,1460.703613 
	C2024.187622,1469.443604 2024.122437,1478.596313 2021.353638,1486.853271 
	C2018.244141,1496.126221 2019.281128,1505.671143 2017.119507,1514.888306 
	C2016.373901,1518.067749 2016.378296,1521.468506 2016.372925,1524.768799 
	C2016.321777,1556.099854 2015.956055,1587.437866 2016.524902,1618.758667 
	C2016.766113,1632.039917 2014.128296,1644.284424 2008.212891,1655.893677 
	C2002.729858,1666.654419 1998.701294,1678.551392 1986.309937,1685.900635 
	C1983.069336,1683.831055 1979.015015,1681.775635 1975.585083,1678.959717 
	C1959.728149,1665.942261 1940.470581,1660.306152 1921.662354,1653.659058 
	C1910.530273,1655.015015 1899.443481,1648.443726 1888.290527,1653.468384 
	C1865.452637,1653.633301 1845.656494,1663.067505 1825.332886,1674.449219 
	C1824.954712,1671.551880 1824.377441,1669.146729 1824.367920,1666.739380 
	C1824.292236,1647.407715 1824.307007,1628.075684 1824.334839,1608.743774 
	C1824.341553,1604.074951 1824.941528,1598.443115 1820.348267,1596.233765 
	C1814.953613,1593.639038 1810.560059,1598.117432 1806.160522,1601.052246 
	C1797.174683,1607.046509 1798.507446,1616.912231 1798.027100,1625.257568 
	C1797.327759,1637.408081 1799.609985,1649.701294 1799.467163,1661.920044 
	C1799.277222,1678.138794 1801.521484,1694.441040 1797.991455,1710.611816 
	C1797.212891,1714.177979 1798.194824,1718.128540 1798.472046,1724.236084 
	C1803.985229,1719.594482 1807.789185,1716.744263 1811.184814,1713.470581 
	C1823.782349,1701.325928 1839.258179,1692.931885 1855.095947,1687.454590 
	C1879.290771,1679.087036 1904.248657,1678.132202 1929.159180,1689.076904 
	C1944.577515,1695.851074 1958.984375,1703.466919 1969.972900,1715.986572 
	C1984.432861,1732.461670 1993.822876,1751.455322 1997.978149,1773.518677 
	C2003.437622,1802.506348 2002.026733,1831.589111 2002.299927,1860.687622 
	C2002.512573,1883.350708 2002.553589,1906.020020 2002.254517,1928.681030 
	C2002.101807,1940.253296 2000.676880,1951.808228 2000.507324,1963.380859 
	C2000.396729,1970.930298 2001.842529,1978.490723 2002.001709,1986.058594 
	C2002.309937,2000.713867 2002.301636,2015.378662 2002.199341,2030.037842 
	C2002.172852,2033.853271 1999.881714,2036.156738 1995.807495,2036.187622 
	C1993.807739,2036.202759 1991.808105,2036.226074 1989.808350,2036.226318 
	C1966.476685,2036.229004 1943.145142,2036.227905 1919.813477,2036.227905 
	C1916.850952,2036.227905 1913.888550,2036.228027 1909.802490,2036.228027 
	C1909.428223,2031.470581 1908.822876,2027.335205 1908.819214,2023.199463 
	C1908.760132,1955.537720 1908.866089,1887.875854 1908.651611,1820.214722 
	C1908.627808,1812.709106 1907.889160,1804.891846 1905.668213,1797.786011 
	C1902.851440,1788.773804 1896.132935,1782.090332 1887.783936,1777.523682 
	C1873.905640,1769.932617 1859.719727,1769.260620 1844.797241,1775.000488 
	C1837.198608,1777.923340 1829.317749,1779.262085 1822.365356,1784.521729 
	C1816.966797,1788.605591 1812.089844,1792.437134 1808.968140,1798.484863 
	C1803.841064,1808.417358 1799.453979,1818.315063 1799.552368,1830.011475 
	C1799.880371,1869.005249 1799.676514,1908.003540 1799.676514,1948.000244 
z"/>
<path fill="#FEFEFF" opacity="1.000000" stroke="none" 
	d="
M1805.588867,1447.802490 
	C1789.417847,1449.888550 1774.779785,1454.740479 1760.375122,1459.880249 
	C1749.603516,1463.723999 1738.835571,1468.562012 1729.383301,1474.916870 
	C1708.709229,1488.816040 1693.276733,1507.451904 1683.339233,1530.618774 
	C1679.043213,1540.633545 1676.224854,1550.901367 1673.364136,1561.363770 
	C1667.401611,1583.170288 1668.635742,1605.251343 1668.309570,1627.335938 
	C1668.276245,1629.598511 1667.851318,1631.855347 1667.577515,1634.398438 
	C1661.613403,1636.347046 1656.775146,1635.247925 1651.256348,1632.732544 
	C1635.210571,1625.418823 1618.855103,1618.740479 1602.387939,1612.421021 
	C1597.280396,1610.460938 1591.456421,1610.056030 1585.907471,1609.631348 
	C1577.738159,1609.005981 1570.203857,1604.228882 1561.658081,1606.191284 
	C1557.532227,1607.138794 1553.322510,1607.730225 1549.140747,1608.421997 
	C1546.540527,1608.852173 1543.923706,1609.465698 1541.310425,1609.486206 
	C1529.010498,1609.583252 1517.252319,1612.358887 1505.710449,1616.320679 
	C1500.465088,1618.121094 1499.723022,1617.484253 1497.510864,1611.567139 
	C1493.988281,1602.145752 1492.477417,1591.824463 1485.209473,1584.035889 
	C1475.730225,1573.877441 1466.613037,1563.367432 1456.854858,1553.487793 
	C1450.380615,1546.932983 1442.981201,1541.301025 1436.131836,1535.105713 
	C1427.336914,1527.150635 1418.658081,1519.066650 1409.969482,1510.994629 
	C1405.466919,1506.811401 1400.911377,1502.671021 1396.620483,1498.276123 
	C1374.445190,1475.561401 1354.737549,1451.168335 1341.058472,1422.096313 
	C1333.674438,1406.402954 1324.283813,1391.642700 1315.578735,1376.588623 
	C1312.961304,1372.062378 1309.950439,1367.661621 1306.517456,1363.729248 
	C1298.216797,1354.221558 1291.841553,1343.562744 1287.964966,1331.676025 
	C1284.170532,1320.040771 1281.326660,1308.376587 1289.350464,1296.637329 
	C1294.921021,1288.487549 1302.244873,1284.607544 1311.395996,1283.649170 
	C1317.330566,1283.027588 1323.383545,1283.576172 1329.382812,1283.521973 
	C1339.342163,1283.431885 1347.223389,1288.605103 1353.863892,1294.866699 
	C1368.734619,1308.889038 1380.871826,1325.155518 1392.188721,1342.273560 
	C1401.807617,1356.823120 1410.564941,1371.814453 1419.524780,1386.726074 
	C1428.973999,1402.451782 1441.831665,1415.377075 1455.178833,1427.642456 
	C1464.573975,1436.276123 1475.206055,1443.572266 1485.359375,1451.369751 
	C1494.462158,1458.360474 1503.403320,1465.609375 1512.905029,1472.019043 
	C1520.960938,1477.453735 1528.015625,1484.672852 1537.970093,1487.045776 
	C1550.336914,1489.993530 1560.680176,1488.920288 1567.631226,1473.585327 
	C1571.671631,1464.671875 1568.906494,1457.019531 1565.779175,1449.653931 
	C1560.153076,1436.403320 1551.561890,1424.791748 1543.357056,1412.930420 
	C1531.467041,1395.741821 1520.188110,1378.028687 1513.676025,1357.833862 
	C1511.768799,1351.918823 1509.166016,1346.221069 1507.393188,1340.271240 
	C1503.293091,1326.511108 1499.765869,1312.577148 1495.512451,1298.866821 
	C1491.851074,1287.064819 1487.255615,1275.553833 1483.532349,1263.769165 
	C1479.653564,1251.492188 1473.654419,1240.193848 1468.552124,1228.470581 
	C1459.821533,1208.410889 1451.479004,1188.068115 1444.854858,1167.245850 
	C1440.417480,1153.298096 1437.619995,1138.611084 1437.553223,1123.630005 
	C1437.513306,1114.678955 1439.651001,1106.047241 1444.761108,1099.421143 
	C1449.443359,1093.349854 1455.247559,1086.435669 1464.947266,1087.578857 
	C1466.919678,1087.811401 1468.962646,1087.795044 1470.939941,1087.583496 
	C1490.109619,1085.532227 1502.228760,1095.640381 1513.015381,1110.075806 
	C1521.541748,1121.486450 1528.976440,1133.387207 1534.690918,1146.250977 
	C1541.700928,1162.031128 1548.291504,1178.013062 1552.510254,1194.901001 
	C1555.117798,1205.338867 1558.650635,1215.583374 1562.353027,1225.700562 
	C1567.726074,1240.383789 1572.714844,1255.320923 1579.571533,1269.314819 
	C1585.901855,1282.234619 1594.415649,1294.093140 1602.078613,1306.349854 
	C1613.701172,1324.939331 1624.610107,1343.877319 1633.576782,1363.953369 
	C1638.380981,1374.710205 1644.041016,1385.173706 1650.247559,1395.191650 
	C1657.317017,1406.602417 1667.987183,1411.666016 1681.616089,1409.453979 
	C1690.557983,1408.002563 1695.945923,1401.302734 1696.244507,1392.353149 
	C1696.690918,1378.969360 1691.295898,1366.710693 1689.404175,1353.789062 
	C1688.087280,1344.793213 1685.686157,1335.949341 1683.825195,1327.093628 
	C1681.356445,1315.346069 1684.972046,1303.134155 1679.893677,1291.807495 
	C1679.016479,1289.850830 1679.664795,1287.196045 1679.663086,1284.863770 
	C1679.652466,1270.864258 1679.732788,1256.864136 1679.629150,1242.865479 
	C1679.567993,1234.617798 1680.839722,1226.203247 1676.843628,1218.356567 
	C1676.282227,1217.254150 1676.468750,1215.745605 1676.402954,1214.420166 
	C1675.696167,1200.199341 1675.171265,1185.966675 1674.224976,1171.761963 
	C1673.901978,1166.911377 1672.277222,1162.160767 1671.702515,1157.310425 
	C1670.810669,1149.784790 1670.687378,1142.155396 1669.548584,1134.674927 
	C1668.035645,1124.737549 1665.007446,1114.968750 1664.215210,1105.001465 
	C1663.467651,1095.595459 1662.002197,1086.011475 1665.553345,1076.495117 
	C1667.788574,1070.504883 1667.640747,1063.806274 1669.148682,1057.404785 
	C1673.994751,1036.831299 1685.829712,1023.578003 1705.395752,1016.879272 
	C1708.363892,1015.863037 1712.114868,1015.943970 1715.212402,1016.704224 
	C1727.948975,1019.830139 1737.933838,1027.717896 1745.216187,1038.043701 
	C1749.174194,1043.655762 1750.308472,1051.366699 1752.270752,1058.257812 
	C1757.091064,1075.186646 1755.803101,1092.884644 1758.347900,1109.955200 
	C1760.176514,1122.222656 1757.255005,1135.229980 1763.256958,1146.895142 
	C1763.681641,1147.720703 1763.539185,1148.855225 1763.596191,1149.849854 
	C1764.297607,1162.072510 1764.773315,1174.313232 1765.761108,1186.512451 
	C1766.341309,1193.679932 1767.498779,1200.824829 1768.802612,1207.905029 
	C1771.870117,1224.562988 1775.040039,1241.205200 1778.449097,1257.796143 
	C1780.406494,1267.322998 1783.461060,1276.648438 1785.010254,1286.228027 
	C1786.464722,1295.221313 1788.842285,1304.032837 1790.293091,1313.043091 
	C1792.030151,1323.830566 1792.246582,1335.206177 1796.988770,1345.570679 
	C1798.423828,1348.707153 1797.552612,1352.815308 1798.362793,1356.334351 
	C1804.375244,1382.444702 1817.430420,1404.455811 1837.494751,1422.209717 
	C1840.164429,1424.572021 1843.600708,1426.057129 1846.632935,1428.024170 
	C1848.660156,1429.338989 1850.600342,1430.787964 1854.617554,1433.607178 
	C1846.145386,1436.308594 1840.047241,1438.432251 1833.845215,1440.188354 
	C1824.734619,1442.768188 1815.549683,1445.085327 1805.588867,1447.802490 
z"/>
<path fill="#FEFEFF" opacity="1.000000" stroke="none" 
	d="
M822.974487,1937.233643 
	C838.059265,1945.952759 853.704041,1950.810303 870.371399,1949.944092 
	C878.983582,1949.496582 887.372620,1945.755493 896.004578,1944.423462 
	C905.654968,1942.934204 914.434692,1939.601562 922.488953,1934.337646 
	C928.212891,1930.596802 933.879761,1926.669189 939.052856,1922.221069 
	C942.291992,1919.435913 945.398193,1918.093140 949.663208,1918.139404 
	C966.651733,1918.324219 983.643799,1918.150757 1000.633850,1918.241943 
	C1009.944641,1918.291870 1010.966858,1919.805420 1011.752563,1929.358643 
	C1012.963623,1944.082642 1014.643188,1958.769043 1016.205688,1973.462646 
	C1016.774231,1978.808838 1014.957581,1983.460205 1011.409302,1987.053467 
	C1007.756836,1990.752441 1003.352051,1993.715210 999.232849,1996.944580 
	C994.075378,2000.988037 989.125977,2005.364136 983.645691,2008.916260 
	C964.551941,2021.291870 943.891052,2030.127441 922.220581,2037.197021 
	C898.442566,2044.954102 874.173096,2045.021606 849.853455,2043.905396 
	C839.967407,2043.451660 830.148376,2039.908447 820.454041,2037.212769 
	C791.252808,2029.093140 764.658386,2016.173340 742.963196,1994.365967 
	C740.239441,1991.627930 736.752686,1989.658203 733.683044,1987.251343 
	C732.116333,1986.023193 730.465271,1984.795654 729.235474,1983.260864 
	C715.309753,1965.881836 700.183960,1949.160034 691.183899,1928.562866 
	C685.064453,1914.558472 679.059570,1900.362671 677.273865,1884.679565 
	C676.528870,1878.137207 677.147705,1870.837280 672.837524,1864.726929 
	C671.704163,1863.120361 672.351257,1860.192627 672.340759,1857.870850 
	C672.299988,1848.876099 672.284058,1839.880737 672.339539,1830.886108 
	C672.369873,1825.965088 672.870605,1821.361328 674.687073,1816.442261 
	C677.018860,1810.127441 676.423035,1802.792725 677.671814,1796.004761 
	C680.587708,1780.154663 686.298035,1765.381958 693.047852,1750.638794 
	C706.356567,1721.569214 727.922180,1699.350952 750.928894,1678.666748 
	C764.188354,1666.745850 780.278198,1658.004028 797.473755,1651.490723 
	C808.226746,1647.417603 818.739197,1642.967407 830.051331,1640.744995 
	C832.954773,1640.174683 835.942749,1640.039917 838.852844,1639.496094 
	C842.643494,1638.787598 846.387207,1637.217773 850.165283,1637.171265 
	C859.980042,1637.050415 869.805908,1637.480957 879.619202,1637.887329 
	C881.504333,1637.965454 883.358276,1639.439941 885.216797,1639.418579 
	C902.697998,1639.217285 918.706604,1645.099365 934.810303,1650.873291 
	C952.043335,1657.052246 967.323242,1666.304443 980.957642,1678.455933 
	C985.356201,1682.376099 990.820007,1685.305786 994.544678,1689.740112 
	C1007.825195,1705.551270 1021.618835,1720.983276 1029.598633,1740.614746 
	C1034.771484,1753.341187 1033.109009,1763.158936 1021.740417,1770.838257 
	C1007.648987,1780.356812 993.117493,1789.221680 978.964722,1798.651978 
	C956.827148,1813.402832 934.905334,1828.477417 912.774475,1843.238525 
	C903.250916,1849.590576 893.326050,1855.339355 883.772461,1861.648193 
	C867.913818,1872.120972 852.250305,1882.888672 836.421875,1893.407471 
	C826.324890,1900.117676 816.054749,1906.566772 805.928345,1913.233276 
	C804.584778,1914.117920 803.632202,1915.596436 801.893860,1917.441650 
	C807.503662,1925.263306 814.176208,1931.784668 822.974487,1937.233643 
M834.096497,1742.729004 
	C783.996399,1763.623535 768.709106,1814.329590 776.167603,1852.375244 
	C782.262390,1848.688110 788.232056,1845.366577 793.897888,1841.589355 
	C806.415222,1833.244507 818.819580,1824.728271 831.196594,1816.175659 
	C847.899048,1804.634277 864.492981,1792.935669 881.209595,1781.415161 
	C892.480835,1773.647217 903.924316,1766.128784 915.175232,1758.332275 
	C916.583313,1757.356445 917.284546,1755.360718 918.663696,1753.318604 
	C916.521912,1752.312012 914.920288,1751.858765 913.675110,1750.928589 
	C898.635193,1739.691284 882.074585,1733.481812 863.030640,1735.559326 
	C859.503479,1735.944092 855.995789,1736.693604 852.543762,1737.538940 
	C846.841797,1738.935303 841.192383,1740.546631 834.096497,1742.729004 
z"/>
<path fill="#FDFEFF" opacity="1.000000" stroke="none" 
	d="
M1077.987793,1678.226562 
	C1096.469971,1676.956543 1112.006592,1670.788696 1127.632812,1662.103149 
	C1141.071411,1654.633667 1155.575317,1647.458008 1171.622437,1645.462280 
	C1182.294189,1644.135254 1192.869995,1640.647095 1203.489868,1640.642456 
	C1217.186768,1640.636475 1230.893311,1643.066406 1244.579834,1644.590942 
	C1259.755493,1646.281494 1273.246094,1652.624756 1286.136597,1660.322876 
	C1301.182251,1669.308350 1313.916870,1680.680908 1322.683228,1696.190796 
	C1332.743896,1713.990601 1338.404175,1733.048462 1339.746094,1753.388062 
	C1340.553345,1765.624268 1341.565308,1777.880005 1341.592651,1790.129150 
	C1341.762085,1865.765869 1341.712158,1941.403320 1341.609985,2017.040405 
	C1341.602173,2022.893433 1340.634888,2028.744995 1340.056763,2035.234741 
	C1312.526245,2035.234741 1285.954346,2035.234741 1259.486694,2035.234741 
	C1258.788696,2030.794800 1258.192749,2027.004028 1257.455200,2022.312378 
	C1251.453613,2025.073364 1245.979614,2027.716187 1240.407837,2030.133179 
	C1216.761230,2040.391235 1192.251587,2046.792847 1166.289062,2044.087524 
	C1148.937134,2042.279663 1132.091675,2038.312866 1116.174438,2030.338989 
	C1105.794189,2025.138794 1096.184082,2018.969604 1087.076660,2012.024536 
	C1072.656616,2001.028442 1062.632446,1986.448120 1054.234253,1970.474365 
	C1046.592407,1955.939209 1041.897827,1940.525635 1040.067383,1924.452637 
	C1038.796265,1913.289917 1038.874268,1901.776123 1040.043579,1890.596191 
	C1040.967773,1881.760498 1043.920532,1872.994751 1046.981079,1864.564209 
	C1050.121704,1855.912842 1052.936157,1846.394531 1058.675171,1839.608032 
	C1067.612427,1829.039795 1075.142944,1817.419922 1087.337036,1809.038330 
	C1103.222168,1798.119751 1119.356445,1788.788574 1137.904785,1784.089111 
	C1156.186890,1779.457031 1174.554688,1777.473511 1193.772705,1779.313232 
	C1207.717407,1780.648193 1220.786377,1784.126343 1234.035767,1787.639038 
	C1237.825562,1788.643799 1241.311035,1790.750000 1245.015503,1792.139160 
	C1247.613770,1793.113647 1250.346924,1793.728760 1252.408691,1794.327026 
	C1252.104370,1786.687744 1252.199341,1779.967773 1251.485840,1773.334595 
	C1250.464233,1763.836792 1249.656738,1754.195801 1247.293457,1744.992065 
	C1244.135620,1732.693970 1233.086182,1728.852661 1222.418701,1726.723022 
	C1211.538086,1724.550781 1200.423462,1724.883667 1189.625854,1729.399170 
	C1180.573975,1733.184814 1171.121216,1733.140015 1161.637451,1729.586060 
	C1145.079346,1723.381104 1128.637329,1725.748047 1112.517944,1731.541870 
	C1101.204590,1735.608276 1090.057007,1740.136597 1078.240967,1744.687622 
	C1076.906006,1732.493530 1073.336548,1720.295532 1074.102905,1707.329834 
	C1074.505493,1700.517944 1072.830688,1693.574097 1071.997192,1686.701538 
	C1071.482300,1682.457031 1071.065796,1678.404785 1077.987793,1678.226562 
M1198.521240,1955.991577 
	C1212.324219,1955.030029 1224.818359,1949.805786 1237.453491,1944.671631 
	C1243.702271,1942.132324 1246.296387,1938.571045 1246.274780,1932.060791 
	C1246.223877,1916.746338 1246.358643,1901.427856 1246.706055,1886.117432 
	C1246.815063,1881.318726 1245.236328,1877.650269 1241.494751,1874.948486 
	C1218.460938,1858.316040 1193.245239,1851.244751 1165.419800,1859.710327 
	C1142.531250,1866.673950 1132.365356,1880.509033 1130.573730,1899.868652 
	C1128.537354,1921.872559 1138.628784,1938.155640 1158.078003,1948.717651 
	C1170.201294,1955.301147 1183.189697,1956.791016 1198.521240,1955.991577 
z"/>
<path fill="#FEFEFF" opacity="1.000000" stroke="none" 
	d="
M2443.394043,2016.736206 
	C2439.256104,2012.027222 2436.541748,2006.796753 2430.249268,2005.696655 
	C2429.135986,2005.502197 2428.066162,2004.233276 2427.259277,2003.232422 
	C2412.689697,1985.162720 2401.490723,1965.224365 2394.877197,1942.929688 
	C2393.234131,1937.390381 2392.780518,1931.434814 2392.299805,1925.627441 
	C2391.263428,1913.101685 2390.120605,1900.558350 2389.832520,1888.003540 
	C2389.412598,1869.705566 2389.698730,1851.391235 2389.697021,1833.083862 
	C2389.690918,1771.109863 2389.688232,1709.135742 2389.710205,1647.161743 
	C2389.710693,1645.869507 2390.029785,1644.577148 2390.300049,1642.529785 
	C2420.655518,1642.529785 2450.794678,1642.529785 2482.213135,1642.529785 
	C2482.213135,1654.620239 2482.198242,1665.865356 2482.216797,1677.110596 
	C2482.247314,1695.756714 2483.480957,1714.493774 2482.051758,1733.026367 
	C2480.155762,1757.608521 2479.431396,1782.206665 2480.639160,1806.703247 
	C2482.145508,1837.252441 2481.586670,1867.787842 2482.352051,1898.319702 
	C2482.522705,1905.129639 2481.100586,1911.742920 2484.194824,1918.723267 
	C2487.963135,1927.224121 2491.768799,1934.603638 2499.279053,1940.985718 
	C2512.299805,1952.050659 2527.316650,1954.949463 2543.144531,1955.374023 
	C2567.303223,1956.021973 2588.161865,1936.460327 2593.022217,1915.915894 
	C2596.246582,1902.287109 2598.215576,1888.903076 2597.980713,1874.763916 
	C2597.395752,1839.469238 2598.241211,1804.152710 2598.329102,1768.844360 
	C2598.395020,1742.320435 2598.135742,1715.795532 2598.102295,1689.271118 
	C2598.085938,1676.284180 2598.101318,1663.293579 2598.401367,1650.311523 
	C2598.555664,1643.637817 2600.038818,1642.230469 2606.918945,1642.279907 
	C2622.567871,1642.391968 2638.213135,1642.910767 2653.861816,1643.101929 
	C2665.460449,1643.243652 2677.062256,1643.129883 2689.693848,1643.129883 
	C2689.693848,1645.105469 2689.684570,1647.617920 2689.695557,1650.130493 
	C2689.839111,1683.438965 2690.011230,1716.747192 2690.106934,1750.055908 
	C2690.124023,1756.041382 2689.685303,1762.028198 2689.698975,1768.013794 
	C2689.888916,1851.637085 2690.121338,1935.260498 2690.341064,2018.883789 
	C2690.348145,2021.549316 2690.454102,2024.221924 2690.302734,2026.879150 
	C2689.933350,2033.365845 2688.255615,2035.421265 2681.984863,2035.462769 
	C2657.662842,2035.623901 2633.338867,2035.468384 2609.016113,2035.594971 
	C2605.162109,2035.615112 2602.747559,2034.252686 2601.236328,2030.778198 
	C2600.194580,2028.383667 2598.862549,2026.115479 2597.390869,2023.270142 
	C2591.064453,2026.278809 2584.907715,2028.905273 2579.038086,2032.064453 
	C2568.776367,2037.587891 2557.502441,2040.133179 2546.406982,2042.845215 
	C2540.197266,2044.362915 2533.359375,2043.249390 2526.807617,2043.438965 
	C2506.076660,2044.038818 2486.563232,2038.693237 2467.809570,2030.602295 
	C2459.469482,2027.004028 2451.835205,2021.770142 2443.394043,2016.736206 
z"/>
<path fill="#FDFEFF" opacity="1.000000" stroke="none" 
	d="
M2256.632324,1783.602417 
	C2245.658936,1762.254761 2230.277344,1745.882202 2210.504395,1733.883301 
	C2203.571289,1729.676025 2195.532471,1727.328125 2188.137451,1723.837402 
	C2168.604492,1714.616821 2148.015137,1714.545898 2127.293457,1717.126709 
	C2118.060303,1718.276367 2108.795410,1719.940430 2100.384277,1724.818726 
	C2096.285156,1727.196167 2091.300293,1728.046875 2085.295898,1730.066528 
	C2069.881348,1704.887085 2054.179688,1679.238403 2038.082153,1652.943115 
	C2050.124756,1646.999878 2060.076416,1639.764526 2071.806152,1634.652954 
	C2091.885742,1625.903076 2112.579590,1622.388916 2133.834961,1620.818115 
	C2143.824463,1620.080078 2153.988037,1622.110107 2164.064941,1622.021118 
	C2174.580811,1621.928467 2184.143311,1625.862305 2194.184814,1627.664551 
	C2211.345703,1630.744995 2226.610107,1638.599121 2242.167725,1645.701294 
	C2249.660645,1649.121826 2256.752197,1653.454712 2263.902344,1657.587280 
	C2279.105957,1666.374146 2293.720459,1676.302368 2304.863525,1689.865112 
	C2317.277832,1704.974854 2329.207520,1720.554077 2337.589844,1738.609741 
	C2343.670654,1751.707642 2349.483643,1764.803467 2352.437012,1778.935547 
	C2354.240234,1787.563721 2354.612061,1796.493408 2356.459473,1805.109375 
	C2359.996094,1821.605103 2358.261963,1838.241333 2358.149658,1854.779907 
	C2358.028809,1872.582642 2354.068359,1889.629883 2347.492188,1906.512939 
	C2339.243896,1927.689819 2327.125732,1946.545288 2314.960693,1965.213135 
	C2306.553223,1978.114746 2295.624512,1989.635742 2282.898438,1999.288696 
	C2269.750488,2009.261475 2256.170654,2018.276733 2241.178223,2025.009277 
	C2223.004883,2033.170166 2204.204346,2039.543213 2184.218262,2041.460327 
	C2169.506836,2042.871460 2154.693848,2045.275513 2140.037598,2044.645264 
	C2124.793945,2043.989746 2109.511230,2040.977905 2094.571289,2037.569946 
	C2082.863281,2034.899414 2071.621826,2030.430298 2060.647705,2024.971313 
	C2054.366943,2021.847046 2047.117432,2020.676514 2041.223999,2015.001099 
	C2056.053223,1989.163940 2070.736816,1963.580811 2085.419434,1937.999268 
	C2092.336914,1940.341919 2098.863770,1942.256226 2105.164795,1944.743286 
	C2122.311768,1951.511719 2140.453125,1951.908447 2157.975342,1949.696655 
	C2176.702148,1947.332764 2194.589600,1940.886963 2210.950928,1930.152588 
	C2237.765381,1912.559692 2255.318604,1888.530151 2263.221436,1857.930054 
	C2266.540039,1845.079590 2270.240479,1831.485596 2267.415283,1818.021484 
	C2265.006592,1806.542358 2260.561768,1795.490234 2256.632324,1783.602417 
z"/>
<path fill="#FDFEFF" opacity="1.000000" stroke="none" 
	d="
M2859.675781,1809.504028 
	C2859.675049,1821.684448 2859.676025,1832.917114 2859.676270,1844.149658 
	C2859.677002,1860.807373 2859.372314,1877.472900 2859.793213,1894.119995 
	C2860.042236,1903.976074 2860.866699,1913.897583 2862.481445,1923.615479 
	C2863.991211,1932.703003 2869.010010,1940.723755 2876.684082,1945.557373 
	C2887.050537,1952.087036 2898.180908,1957.112183 2911.337402,1952.540039 
	C2916.051514,1950.901733 2921.548828,1951.517822 2927.677734,1951.025635 
	C2927.677734,1956.729248 2927.759766,1961.331787 2927.663330,1965.930664 
	C2927.273438,1984.545776 2926.635010,2003.159180 2926.555664,2021.775146 
	C2926.538086,2025.904785 2928.423096,2030.042603 2929.764160,2035.537109 
	C2925.172363,2037.016968 2920.388184,2038.776733 2915.480225,2040.061768 
	C2912.353027,2040.880493 2908.928223,2040.604248 2905.833740,2041.499512 
	C2896.303955,2044.256104 2886.911621,2042.380737 2877.498535,2041.094116 
	C2872.351807,2040.390747 2867.272461,2039.177490 2862.120361,2038.530640 
	C2849.327637,2036.924072 2838.168945,2030.929932 2827.261719,2024.861572 
	C2811.085938,2015.862183 2797.476074,2003.992310 2787.413330,1987.902954 
	C2780.161621,1976.307495 2775.494385,1963.898315 2772.995361,1950.865723 
	C2770.858643,1939.720581 2770.561035,1928.126221 2770.398926,1916.717163 
	C2769.902100,1881.758667 2769.967529,1846.792603 2769.599121,1811.831665 
	C2769.413330,1794.214233 2768.858643,1776.598389 2768.250244,1758.989380 
	C2768.107666,1754.861206 2767.072266,1750.763916 2766.386230,1746.249756 
	C2747.838623,1746.842285 2730.309326,1744.547119 2712.432373,1748.256836 
	C2709.900146,1716.836182 2713.023438,1686.148560 2714.162598,1655.817505 
	C2722.595215,1655.817505 2730.906006,1656.883057 2738.829590,1655.585327 
	C2753.277100,1653.219360 2763.093262,1646.004028 2767.149170,1630.800415 
	C2770.951172,1616.549927 2768.850098,1602.617310 2769.532471,1588.574463 
	C2770.129150,1576.302124 2769.656982,1563.977661 2769.656982,1550.216675 
	C2796.996338,1550.216675 2823.746094,1550.238770 2850.495605,1550.203369 
	C2858.688232,1550.192505 2860.190674,1551.656128 2859.633057,1560.104370 
	C2859.086914,1568.377319 2857.901367,1576.630737 2857.778320,1584.904297 
	C2857.521240,1602.201294 2857.710693,1619.506714 2857.891357,1636.806763 
	C2857.921387,1639.689575 2858.832520,1642.563110 2859.370117,1645.632324 
	C2871.995605,1646.270020 2883.932373,1646.527344 2895.800049,1647.569702 
	C2907.615234,1648.607422 2919.488525,1644.468384 2932.339111,1647.792603 
	C2932.339111,1656.761841 2931.646973,1665.404419 2932.484375,1673.896362 
	C2934.185303,1691.148682 2930.229736,1708.236328 2931.678223,1725.431274 
	C2932.037354,1729.695068 2932.890381,1733.991577 2932.605469,1738.211670 
	C2932.380859,1741.543823 2930.759277,1744.781738 2930.030518,1747.169434 
	C2911.412354,1746.842163 2893.978516,1746.524048 2876.543945,1746.243286 
	C2874.217529,1746.205811 2871.833740,1746.062622 2869.569580,1746.476685 
	C2861.648193,1747.925659 2859.736816,1750.255981 2859.700439,1758.582886 
	C2859.627930,1775.240356 2859.677734,1791.898315 2859.675781,1809.504028 
z"/>
<path fill="#FEFEFF" opacity="1.000000" stroke="none" 
	d="
M1454.534668,1832.901123 
	C1455.166626,1837.869751 1455.918579,1842.000366 1456.689209,1846.127686 
	C1456.990234,1847.739746 1457.573364,1849.336914 1457.620850,1850.952881 
	C1458.294678,1873.837646 1469.196533,1891.859497 1483.020874,1909.342041 
	C1492.763550,1921.662964 1504.781616,1929.880005 1518.108887,1936.952759 
	C1522.118652,1939.080688 1526.441406,1940.904053 1530.838379,1941.967529 
	C1548.296143,1946.189453 1565.526245,1952.198364 1583.936890,1950.173218 
	C1588.462280,1949.675415 1592.907593,1948.419922 1597.435181,1947.979004 
	C1601.278931,1947.604736 1605.188110,1947.901855 1609.582153,1947.901855 
	C1609.582153,1977.518799 1609.582153,2006.262451 1609.582153,2034.937500 
	C1593.261719,2039.200073 1577.344360,2038.158569 1561.503296,2038.227173 
	C1545.328491,2038.297241 1529.802979,2035.244263 1514.026855,2031.372437 
	C1494.812866,2026.656738 1477.430054,2018.474731 1460.514893,2009.143311 
	C1441.688110,1998.757080 1424.921143,1985.142212 1411.006836,1968.757935 
	C1400.691528,1956.611328 1391.055664,1943.577148 1383.140747,1929.777466 
	C1372.197754,1910.698486 1366.636353,1889.614746 1363.146851,1867.713501 
	C1361.642090,1858.269043 1361.057861,1848.954224 1360.193726,1839.538940 
	C1358.994263,1826.473022 1362.043823,1813.936157 1364.105469,1801.329468 
	C1366.856201,1784.508667 1372.217407,1768.329224 1380.113403,1753.180542 
	C1388.472412,1737.143921 1397.952637,1721.791382 1410.813599,1708.831421 
	C1418.177612,1701.410645 1425.147095,1693.522949 1433.070679,1686.754150 
	C1441.015869,1679.966675 1449.752319,1674.050049 1458.453125,1668.215576 
	C1471.553955,1659.430908 1485.670654,1652.520752 1500.834351,1648.120728 
	C1511.479980,1645.031738 1522.115356,1641.521484 1533.419434,1641.523804 
	C1544.745728,1641.526123 1556.077271,1641.741577 1567.396729,1641.463013 
	C1578.701904,1641.184692 1589.558472,1643.681274 1600.416138,1646.161499 
	C1604.452515,1647.083740 1608.273804,1648.948242 1612.329956,1650.433228 
	C1612.329956,1676.592163 1612.461060,1701.890259 1612.183960,1727.183960 
	C1612.143799,1730.837524 1610.142456,1734.469727 1608.904907,1738.590332 
	C1587.327759,1730.511719 1565.912476,1732.997192 1544.951660,1733.937012 
	C1527.140503,1734.735596 1510.929565,1742.497192 1496.115601,1752.917236 
	C1471.752930,1770.054321 1459.931885,1793.758423 1457.571289,1822.912598 
	C1457.319702,1826.020630 1455.665527,1829.014893 1454.534668,1832.901123 
z"/>
<path fill="#FDFEFF" opacity="1.000000" stroke="none" 
	d="
M457.046570,1645.416260 
	C460.479614,1643.584717 463.485168,1641.698120 466.510590,1641.665771 
	C489.835327,1641.416748 513.164124,1641.463135 536.491150,1641.556885 
	C545.815796,1641.594238 547.388977,1643.334106 547.681702,1652.685425 
	C547.774048,1655.634888 547.934265,1658.582275 548.130188,1663.053955 
	C551.643921,1661.578247 554.301147,1660.681763 556.745728,1659.384644 
	C560.547729,1657.367432 564.136841,1654.949341 567.936279,1652.926758 
	C581.175720,1645.879150 595.627625,1643.632935 610.256958,1641.173828 
	C623.576111,1638.934692 636.751221,1639.961792 649.981995,1639.609497 
	C659.570496,1639.354248 660.488037,1640.288452 660.275513,1649.722900 
	C659.827393,1669.619141 658.930969,1689.504761 658.381470,1709.399414 
	C658.153687,1717.645386 658.343628,1725.902954 658.343628,1734.604736 
	C655.124878,1734.978760 652.870056,1735.595337 650.674316,1735.429321 
	C644.110901,1734.933228 637.560730,1734.209961 631.027466,1733.398071 
	C629.118652,1733.160889 627.285217,1732.324707 625.414368,1731.772583 
	C623.869995,1731.316895 622.153137,1730.198120 620.801208,1730.533936 
	C609.402588,1733.365723 597.642395,1735.410278 586.843689,1739.792969 
	C576.888428,1743.833130 567.620239,1750.101685 562.694214,1760.590820 
	C558.786743,1768.911133 554.029175,1777.034546 551.590027,1785.786255 
	C549.066650,1794.839966 548.656006,1804.524658 547.766907,1813.975342 
	C547.269714,1819.260498 547.695618,1824.630981 547.674683,1829.962769 
	C547.426147,1893.443115 552.157471,1956.849854 550.407288,2020.357422 
	C549.970337,2036.214478 550.333008,2036.226807 533.999634,2036.228516 
	C512.005249,2036.230835 490.010834,2036.229004 468.016449,2036.229004 
	C464.712036,2036.229004 461.407593,2036.229004 456.751770,2036.229004 
	C456.594147,2031.776855 456.340851,2027.941772 456.339874,2024.106689 
	C456.317444,1936.129028 456.292694,1848.151489 456.336426,1760.173828 
	C456.355316,1722.189209 456.526367,1684.204590 457.046570,1645.416260 
z"/>
<path fill="#2277FE" opacity="1.000000" stroke="none" 
	d="
M834.808716,1742.398193 
	C841.192383,1740.546631 846.841797,1738.935303 852.543762,1737.538940 
	C855.995789,1736.693604 859.503479,1735.944092 863.030640,1735.559326 
	C882.074585,1733.481812 898.635193,1739.691284 913.675110,1750.928589 
	C914.920288,1751.858765 916.521912,1752.312012 918.663696,1753.318604 
	C917.284546,1755.360718 916.583313,1757.356445 915.175232,1758.332275 
	C903.924316,1766.128784 892.480835,1773.647217 881.209595,1781.415161 
	C864.492981,1792.935669 847.899048,1804.634277 831.196594,1816.175659 
	C818.819580,1824.728271 806.415222,1833.244507 793.897888,1841.589355 
	C788.232056,1845.366577 782.262390,1848.688110 776.167603,1852.375244 
	C768.709106,1814.329590 783.996399,1763.623535 834.808716,1742.398193 
z"/>
<path fill="#2176FE" opacity="1.000000" stroke="none" 
	d="
M1197.588135,1956.000732 
	C1183.189697,1956.791016 1170.201294,1955.301147 1158.078003,1948.717651 
	C1138.628784,1938.155640 1128.537354,1921.872559 1130.573730,1899.868652 
	C1132.365356,1880.509033 1142.531250,1866.673950 1165.419800,1859.710327 
	C1193.245239,1851.244751 1218.460938,1858.316040 1241.494751,1874.948486 
	C1245.236328,1877.650269 1246.815063,1881.318726 1246.706055,1886.117432 
	C1246.358643,1901.427856 1246.223877,1916.746338 1246.274780,1932.060791 
	C1246.296387,1938.571045 1243.702271,1942.132324 1237.453491,1944.671631 
	C1224.818359,1949.805786 1212.324219,1955.030029 1197.588135,1956.000732 
z"/>
</svg>